<?xml version="1.0" encoding="UTF-8"?>
<svg width="137.97" height="156.91" enable-background="new 0 0 283.46 283.46" version="1.1" viewBox="0 0 137.97 156.91" xmlns="http://www.w3.org/2000/svg">
  <style type="text/css">.st0{fill:#90A99E;}
    .st1{fill:#739385;}
    .st2{fill:#767676;}
    .st3{fill:#4E4D4D;}
    .st4{fill:#B1C9BF;}</style>
  <g id="GLOWA" transform="translate(-83.527 12.17)">
    <path class="st0" d="m146.21 123.31c-22.78 0-38.99-4.03-39.15-4.07-.21-.05-.38-.22-.42-.44-1.14-5.1-1.67-16.81-1.69-17.31-.01-.17.06-.34.19-.46.11-.1.25-.15.4-.15.99.13 2.05.25 3.24.35l1.52.14.03-1.52c.16-8.58 1.4-25.14 7.97-39.66 6.98-15.41 18.08-23.55 32.12-23.55.99 0 1.98.03 3.02.1l1.17.08.3-1.13c1.8-6.83-.83-10.94-2.57-12.77l-1.04-1.1-1.03 1.1c-1.56 1.67-3.67 2.59-5.94 2.59-4.49 0-8.14-3.65-8.14-8.14s3.65-8.14 8.14-8.14 8.14 3.65 8.14 8.14c0 .85-.14 1.71-.41 2.54l-.29.89.71.62c2.81 2.44 5.25 7.42 3.68 14.07l-.35 1.47 1.5.25c26.25 4.37 29.82 34.04 30.14 46.6l.04 1.58 1.56-.21c5.82-.77 9.88-1.26 10.39-1.32h.02c.24 0 .39.08.5.21.13.16.17.36.1.55-.62 1.87-4.94 21.79-7.13 32.06-.04.21-.2.38-.41.44-14.29 4.11-29.87 6.19-46.31 6.19z"/>
    <path class="st1" d="m144.62 23.65c-6.13-1.06-5.07-11.86.42-12.11l-2.29-1.52s-3.72 1.19-3.84 1.3c-.12.1-1.77 2.24-1.77 2.24s-.46 4.45-.33 4.75c.13.31 3 5.34 3 5.34l3.62.79z"/>
    <path class="st4" d="m143.66 11.38c6.17.81 5.54 11.65.07 12.12l2.35 1.43s3.67-1.34 3.78-1.45 1.67-2.31 1.67-2.31.28-4.46.14-4.76-3.21-5.21-3.21-5.21l-3.65-.65z"/>
    <path class="st1" d="m193.24 111.41c-20.82 3.47-38.47 8.06-71.29 3.94 0 0 2.88-2.53 1.12-6.65s-8.61-3.59-9.45-.41l-.71-4.94-6.67-.71.94 16.29 27.87 4.05h29.37l26.33-5.38 2.5-1.73v-4.46z"/>
    <path class="st1" d="m154.76 38.29c-22.94 2.52-30 19.76-32.91 34.24s-2.03 22.94-2.03 22.94 12.18 2.03 22.32 1.68l.44 5.5h-31.76l2.56-23.41 7.24-23.63 9.66-11.84 11.46-5.47 10.78-1.06z"/>
    <path class="st4" d="m156.09 38.82c10.76 2.82 17.91 11.04 20.82 20.52 0 0-6.22-6.05-11.6.83l.35 12.26s8.19 6.27 13.56-1.89c0 0 1.78 9.64.71 15.16h6.96l-1.32-14.24-3.39-13.86-6.21-10.06-7.49-6.32-9.42-3.67z"/>
    <polygon class="st4" points="197.88 89.82 198.82 84.59 142.65 93.71 143.88 108.41 146.82 97.24 160.24 94.71 161.77 107.71 165.71 94 179.94 91.94 180.41 107.12 185.47 91.29"/>
    <path d="m201.05 83.18c-.43-.53-1.1-.81-1.79-.72-.51.06-4.58.56-10.41 1.33-.32-12.68-3.98-43.41-31.32-47.96 1.84-7.79-1.42-13.1-4.13-15.46.31-.94.48-1.94.48-2.98 0-5.27-4.29-9.56-9.56-9.56s-9.56 4.29-9.56 9.56 4.29 9.56 9.56 9.56c2.75 0 5.23-1.17 6.97-3.04 1.5 1.59 3.86 5.26 2.23 11.44-1.01-.07-2.04-.11-3.11-.11-14.63 0-26.19 8.43-33.41 24.38-6.74 14.87-7.95 31.89-8.1 40.21-1.13-.1-2.17-.21-3.1-.34-.58-.08-1.18.1-1.62.5s-.68.97-.65 1.57c.02.5.55 12.33 1.72 17.56.17.74.73 1.32 1.46 1.5.26.07 16.6 4.12 39.49 4.12 13.87 0 30.15-1.49 46.7-6.25.71-.2 1.25-.78 1.4-1.5 2.54-11.91 6.53-30.23 7.09-31.9.22-.67.09-1.38-.34-1.91zm-56.73-60.24c-3.06 0-5.56-2.49-5.56-5.56 0-3.06 2.49-5.56 5.56-5.56s5.56 2.49 5.56 5.56-2.49 5.56-5.56 5.56zm6.09 16.3c30.05 0 34.21 30.38 34.46 45.08-13.36 1.81-32.6 4.65-42.43 7.19-.88.23-1.5 1.02-1.5 1.94v7.19c-4.51.04-18.02.08-28.04-.51.24-11.34 3.25-60.89 37.51-60.89zm40.24 75.72c-38.23 10.65-74.68 3.61-81.73 2.06-.66-3.8-1.08-9.94-1.27-13.29 10.19 1.02 27.88.95 33.29.9v2.92c0 1.1.9 2 2 2s2-.9 2-2v-12.54c3.84-.92 8.87-1.87 14.32-2.8l-.76 15.25c-.06 1.1.79 2.04 1.9 2.1h.1c1.06 0 1.94-.83 2-1.9l.8-16.12c5.04-.81 10.26-1.59 15.14-2.29-.27 2.61-.47 5.22-.73 7.83l-.94 10.29c-.1 1.09.7 2.07 1.8 2.17 1.1.11 2.08-.7 2.18-1.8l1-10.28c.27-2.93.6-5.86.82-8.79 6.05-.84 11.23-1.5 14.26-1.89-1.62 6.93-5.12 23.22-6.18 28.18z"/>
    <ellipse cx="143.41" cy="66.29" rx="8.41" ry="9.29"/>
    <path d="m133.69 66.46c0-3.36 1.44-6.3 3.6-7.93-3.4.76-5.94 3.95-5.94 7.76 0 3.59 2.26 6.63 5.35 7.61-1.83-1.69-3.01-4.4-3.01-7.44z"/>
    <ellipse cx="170.1" cy="66.29" rx="7.71" ry="8.32"/>
    <path d="m163.95 73.1c-1.68-1.52-2.76-3.94-2.76-6.66 0-3.01 1.32-5.64 3.3-7.1-3.11.68-5.45 3.53-5.45 6.95 0 3.21 2.08 5.93 4.91 6.81z"/>
    <circle cx="117.62" cy="111.41" r="3"/>
  </g>
</svg>
