<?xml version="1.0" encoding="UTF-8"?>
<svg enable-background="new 0 0 283.46 283.46" version="1.1" viewBox="0 0 283.46 283.46" xmlns="http://www.w3.org/2000/svg">
  <style type="text/css">
    .st0{fill:#90A99E;}
    .st1{fill:#739385;}
    .st2{fill:#767676;}
    .st3{fill:#4E4D4D;}
    .st4{fill:#B1C9BF;}
  </style>
  <g id="NOGA" transform="translate(-73.1 -16.978)">
    <polygon class="st0" points="148.41 265.12 149.59 274.76 116.41 274.76 117.71 263.79 125.71 257.94 140.29 257.94"/>
    <path class="st1" d="m124.1 265.65c.01-.93.74-1.39 1.46-1.38.12-.03.24-.05.38-.05 4.57.01 9.14.4 13.71.21 2.09-.09 4.18-.33 6.26-.52.33-.03.65-.08.97-.14l-6.59-5.83h-14.59l-8 5.85-1.29 10.98h7.69c-.09-3.04-.05-6.08 0-9.12z"/>
    <polygon class="st2" points="140.88 203.89 138.83 222.52 138.83 240.76 140.88 257.35 126.46 257.35 124.65 236.88 125.55 215.12 127.59 200.29"/>
    <polygon class="st3" points="133.01 201.24 130.83 214.18 130.27 229.68 130.27 246.53 131.44 257.35 126.46 257.35 124.65 239.82 124.65 218.18 127.59 200.29"/>
    <polygon class="st4" points="145.06 273.24 144.42 266 148.35 265.53 148.82 274.18"/>
    <path d="m150.75 264.39h-.02c-.05-.48-.26-.94-.62-1.27l-7.83-7.19c-4.43-27.77.77-51.63.83-51.87l.44-1.95-17.54-4.01-.45 1.95c-.24 1.06-5.83 26.08-1.39 56.57l-7.97 6.41c-.42.34-.67.84-.72 1.36h-.02l-1 9.94c-.06.56.13 1.12.51 1.54s.92.66 1.48.66h33.29c.57 0 1.1-.24 1.48-.66s.56-.98.51-1.54zm-11.92-59.25c-1.15 6.27-4.23 26.81-.67 50.33h-5.88c-.14-1.35-.27-2.68-.39-3.97l4.35-.39-4.47-.98c-.39-4.41-.64-8.46-.79-12.22l4.45-.4-4.5-.98c-.14-4.39-.13-8.39.01-12.08l4.49-.08-4.43-1.29c.35-7.25 1.22-13.36 2.39-19.2zm-9.77-2.24 2.37.54c-1.17 5.82-2.04 11.9-2.41 19.07l-2.24-.65c.56-9.04 1.68-15.79 2.28-18.96zm-2.5 35.41 2.42-.22c.14 3.59.38 7.43.74 11.6l-2.43-.53c-.38-3.74-.61-7.37-.73-10.85zm1.03 13.58 2.31-.21c.11 1.23.24 2.5.37 3.79h-2.22c-.17-1.2-.32-2.4-.46-3.58zm-.95-27.35 2.29-.04c-.14 3.56-.15 7.4-.02 11.6l-2.42-.53c-.07-3.92 0-7.61.15-11.03zm.38 34.93h13.21l4.19 3.85c-7.3.9-16.48.32-21.95-.19zm-8.34 13.06.57-5.71c3.17.36 9.57.98 16.27.98 3.93 0 7.95-.22 11.47-.82l.56 5.55z"/>
  </g>
  <g id="KABLE" transform="translate(50.934 26.41)">
    <path d="m77.7 170.14-3.04-2.6c6.01-7.02 17.22-10.74 29.98-9.95l-.25 3.99c-11.34-.69-21.57 2.58-26.69 8.56z"/>
    <path d="m89.66 187.52-3.92-.81c.91-4.4 8.24-18 19.36-22.57l1.52 3.7c-9.69 3.99-16.29 16.45-16.96 19.68z"/>
    <path d="m83.72 171.34-1.45-1.38c5.29-5.54 12.42-8.38 22.45-8.97l.12 2c-9.49.55-16.2 3.2-21.12 8.35z"/>
    <path d="m83.24 179.64-2.35-1.86c7.69-9.74 22.7-15.91 23.33-16.17l1.13 2.78c-.15.06-14.92 6.14-22.11 15.25z"/>
    <path d="m207.41 170.14 3.04-2.6c-6.01-7.02-17.22-10.74-29.98-9.95l.25 3.99c11.33-.69 21.57 2.58 26.69 8.56z"/>
    <path d="m195.44 187.52 3.92-.81c-.91-4.4-8.24-18-19.36-22.57l-1.52 3.7c9.69 3.99 16.29 16.45 16.96 19.68z"/>
    <path d="m201.38 171.34 1.45-1.38c-5.29-5.54-12.42-8.38-22.45-8.97l-.12 2c9.49.55 16.2 3.2 21.12 8.35z"/>
    <path d="m201.87 179.64 2.35-1.86c-7.69-9.74-22.7-15.91-23.33-16.17l-1.13 2.78c.15.06 14.92 6.14 22.11 15.25z"/>
    <path d="m172.52 231.09-2.2 3.34c-7.72-5.07-12.83-15.72-13.66-28.48l3.99-.26c.74 11.34 5.29 21.07 11.87 25.4z"/>
    <path d="m145.69 231.09 2.99 2.65c2.98-3.36 9.49-17.37 6.5-29.02l-3.87 1c2.61 10.16-3.43 22.9-5.62 25.37z"/>
    <path d="m160.85 210.03-1.91-.6c-2.3 7.3-1.35 14.92 2.98 23.99l1.8-.86c-4.09-8.58-5-15.74-2.87-22.53z"/>
    <path d="m153.19 235.06 2.83 1.01c4.17-11.68 1.43-27.68 1.32-28.36l-2.95.52c.01.16 2.7 15.91-1.2 26.83z"/>
  </g>
  <g id="BRZUCH" transform="translate(50.934 26.41)">
    <polygon class="st0" points="119.47 213 168.53 213 184.65 149.82 151.47 143.94 139.81 139.94 128.38 144.41 102.18 152.41"/>
    <path class="st1" d="m140.56 158.53c-9.21 0-13.98-1.76-17.06-7.06l-14.14 4.12 14.14 51.65s36.47 1.53 46.4-.94l-1.37 6.71h-49.88l-16.47-60.59 26.2-8v6.24l4.27 4.47z"/>
    <polygon class="st4" points="144 175.93 165.55 177.01 167.82 164.82 136.9 164.12 119.65 166.85 122.12 178.71"/>
    <path class="st4" d="m146.85 157.24s6.71.59 11.67-8c0 0 15.31 2.01 18.6 4 0 0-8.35 37.41-8 50l15.53-53.41-32-5.41.12 6z"/>
    <path class="st3" d="m141 139.94c-4.76.35-13.94 2.76-13.68 8.71.26 5.94 8.38 8.94 13.24 8.77 4.85-.18 14.21-2.38 13.23-9.35-.97-6.98-12.79-8.13-12.79-8.13z"/>
    <path d="m186.66 149.27c-.23-.49-.65-.86-1.16-1.04-.64-.22-15.87-5.4-34.17-6.88-2.7-1.96-6.49-3.17-10.77-3.17-5 0-9.34 1.65-12.03 4.23-11.04 2.17-26.53 8.16-27.2 8.41-.97.38-1.49 1.44-1.19 2.44.13.44 13.42 44.53 16.66 60.26.18.87.91 1.52 1.8 1.59.14.01 9.42.73 24.15.73 7.41 0 16.19-.18 25.89-.73.93-.05 1.7-.74 1.86-1.65.06-.36 6.35-36.07 16.23-62.64.19-.5.16-1.06-.07-1.55zm-35.19-.62c0 .56-.14 1.11-.38 1.63l-2.2-.28 1.01 1.93c-1.12 1.09-2.75 1.98-4.69 2.54l-1.54-1.79-.83 2.28c-.74.1-1.5.15-2.28.15-1.38 0-2.71-.17-3.94-.46l-.4-2.13-1.47 1.55c-1.45-.56-2.68-1.31-3.57-2.19l1.05-2.21s-1.26.26-2.27.47c-.2-.48-.32-.99-.32-1.5 0-1.04.45-2.04 1.23-2.92.09-.08.17-.17.24-.26 1.91-1.95 5.46-3.29 9.44-3.29 5.92.01 10.92 2.97 10.92 6.48zm15.37 62.56c-23.52 1.25-41.34.34-46.44.02-3.32-15.14-13.41-49.05-15.9-57.33 3.82-1.42 13.25-4.81 21.31-6.79-.1.5-.17 1.01-.17 1.54 0 5.87 6.55 10.47 14.91 10.47s14.91-4.6 14.91-10.47c0-1.02-.21-2-.58-2.93 12.45 1.4 23.13 4.38 27.37 5.68-8.41 23.42-14.1 52.76-15.41 59.81z"/>
    <path d="m118.65 164.6c-.53.09-1 .39-1.31.83s-.42.98-.33 1.51l3.06 16.44-.79 5.36 3.29-3.04c15.27-2.22 27.47-2.28 40.49-.17l1.12 1.62s-17.07-1.32-28.28 0c0 0 24.18.66 31.94 3.31l-1.36-6.39 3.36-18.19c.1-.53-.02-1.08-.34-1.53-.32-.44-.8-.74-1.33-.82-15.95-2.35-31.23-2.02-49.52 1.07zm5.15 16.89-.3-1.62c3.14-.64 17.77-3.25 39.93-1.15l-.5 2.73c-12.64-1.97-24.56-1.96-39.13.04zm41.75-14.29-1.4 7.57c-22.88-2.22-37.76.4-41.39 1.16l-1.44-7.71c16.2-2.59 30.01-2.91 44.23-1.02z"/>
    <path d="m128.38 172.65c.8 0 1.46-.65 1.46-1.46 0-.8-.65-1.46-1.46-1.46s-1.46.65-1.46 1.46.65 1.46 1.46 1.46z"/>
    <path d="m138.35 171.75c.8 0 1.46-.65 1.46-1.46 0-.8-.65-1.46-1.46-1.46-.8 0-1.46.65-1.46 1.46.01.81.66 1.46 1.46 1.46z"/>
    <circle cx="148.3" cy="170.01" r="1.46"/>
    <path d="m157.06 171.75c.8 0 1.46-.65 1.46-1.46 0-.8-.65-1.46-1.46-1.46s-1.46.65-1.46 1.46.65 1.46 1.46 1.46z"/>
  </g>
  <g id="SZYJA" transform="translate(58.952 -53.764)">
    <path class="st2" d="m136.41 148.59s-6.02-23.76 3.13-39.09l9.35 4.91s-5.66 14.68-1.97 32.32c0 .01-5.12 6.18-10.51 1.86z"/>
    <path class="st3" d="m136.41 148.59s-6.53-19.39 3.6-39.09l4.25 2.29s-10.03 16.59-2.59 37.5c.01 0-3.58.53-5.26-.7z"/>
    <path d="m152.1 113.33-13.5-6.55c-2.95 6.09-8.79 21.3-4.93 40.32.63 3.12 3.4 5.2 6.42 5.2.67 0 1.35-.1 2.02-.32l1.78-.57c3.19-1.02 5.08-4.27 4.43-7.56-2.85-14.44 1.55-25.91 3.78-30.52zm-11.5-1.13 1.72.83c-1.04 2.68-1.86 5.24-2.5 7.67-.32-.14-.65-.27-.96-.43-.23-.12-.47-.24-.69-.37.74-3 1.61-5.61 2.43-7.7zm-4.15 20.23c.17.01.34.03.51.04.34.02.68 0 1.02-.01-.18 3.69.06 6.87.47 9.47-.09-.02-.18-.02-.27-.04-.45-.09-.91-.21-1.33-.35-.39-3.18-.5-6.23-.4-9.11zm1.61-1.21c-.28-.07-.56-.13-.83-.22-.23-.08-.47-.16-.71-.25.2-3.33.67-6.39 1.27-9.16.2.04.4.09.61.12.38.07.76.1 1.14.14-.82 3.39-1.28 6.52-1.48 9.37zm-.46 15.09c-.2-.97-.36-1.93-.51-2.88.33 0 .66-.02.99-.04.2-.01.41-.04.61-.06.41 2.14.91 3.81 1.32 4.97-1.02-.03-2.16-.71-2.41-1.99zm6.8-1.67c.26 1.3-.49 2.58-1.73 2.97l-.69.22c-.38-1.05-.87-2.69-1.28-4.83 1.03-.23 2.02-.57 2.94-1.02-1.03.19-2.07.25-3.09.2-.44-2.63-.73-5.94-.53-9.84.9-.12 1.78-.32 2.62-.61-.87.06-1.73.02-2.58-.09.19-2.92.65-6.16 1.51-9.68.7-.01 1.39-.07 2.06-.2-.66-.07-1.3-.2-1.92-.37.61-2.37 1.39-4.87 2.4-7.48l2.79 1.36c-2.31 6.11-5 16.72-2.5 29.37z"/>
  </g>
  <g id="GLOWA" transform="translate(-75.93 11.319)">
    <path class="st0" d="m146.21 123.31c-22.78 0-38.99-4.03-39.15-4.07-.21-.05-.38-.22-.42-.44-1.14-5.1-1.67-16.81-1.69-17.31-.01-.17.06-.34.19-.46.11-.1.25-.15.4-.15.99.13 2.05.25 3.24.35l1.52.14.03-1.52c.16-8.58 1.4-25.14 7.97-39.66 6.98-15.41 18.08-23.55 32.12-23.55.99 0 1.98.03 3.02.1l1.17.08.3-1.13c1.8-6.83-.83-10.94-2.57-12.77l-1.04-1.1-1.03 1.1c-1.56 1.67-3.67 2.59-5.94 2.59-4.49 0-8.14-3.65-8.14-8.14s3.65-8.14 8.14-8.14 8.14 3.65 8.14 8.14c0 .85-.14 1.71-.41 2.54l-.29.89.71.62c2.81 2.44 5.25 7.42 3.68 14.07l-.35 1.47 1.5.25c26.25 4.37 29.82 34.04 30.14 46.6l.04 1.58 1.56-.21c5.82-.77 9.88-1.26 10.39-1.32h.02c.24 0 .39.08.5.21.13.16.17.36.1.55-.62 1.87-4.94 21.79-7.13 32.06-.04.21-.2.38-.41.44-14.29 4.11-29.87 6.19-46.31 6.19z"/>
    <path class="st1" d="m144.62 23.65c-6.13-1.06-5.07-11.86.42-12.11l-2.29-1.52s-3.72 1.19-3.84 1.3c-.12.1-1.77 2.24-1.77 2.24s-.46 4.45-.33 4.75c.13.31 3 5.34 3 5.34l3.62.79z"/>
    <path class="st4" d="m143.66 11.38c6.17.81 5.54 11.65.07 12.12l2.35 1.43s3.67-1.34 3.78-1.45 1.67-2.31 1.67-2.31.28-4.46.14-4.76-3.21-5.21-3.21-5.21l-3.65-.65z"/>
    <path class="st1" d="m193.24 111.41c-20.82 3.47-38.47 8.06-71.29 3.94 0 0 2.88-2.53 1.12-6.65s-8.61-3.59-9.45-.41l-.71-4.94-6.67-.71.94 16.29 27.87 4.05h29.37l26.33-5.38 2.5-1.73v-4.46z"/>
    <path class="st1" d="m154.76 38.29c-22.94 2.52-30 19.76-32.91 34.24s-2.03 22.94-2.03 22.94 12.18 2.03 22.32 1.68l.44 5.5h-31.76l2.56-23.41 7.24-23.63 9.66-11.84 11.46-5.47 10.78-1.06z"/>
    <path class="st4" d="m156.09 38.82c10.76 2.82 17.91 11.04 20.82 20.52 0 0-6.22-6.05-11.6.83l.35 12.26s8.19 6.27 13.56-1.89c0 0 1.78 9.64.71 15.16h6.96l-1.32-14.24-3.39-13.86-6.21-10.06-7.49-6.32-9.42-3.67z"/>
    <polygon class="st4" points="179.94 91.94 180.41 107.12 185.47 91.29 197.88 89.82 198.82 84.59 142.65 93.71 143.88 108.41 146.82 97.24 160.24 94.71 161.77 107.71 165.71 94"/>
    <path d="m201.05 83.18c-.43-.53-1.1-.81-1.79-.72-.51.06-4.58.56-10.41 1.33-.32-12.68-3.98-43.41-31.32-47.96 1.84-7.79-1.42-13.1-4.13-15.46.31-.94.48-1.94.48-2.98 0-5.27-4.29-9.56-9.56-9.56s-9.56 4.29-9.56 9.56 4.29 9.56 9.56 9.56c2.75 0 5.23-1.17 6.97-3.04 1.5 1.59 3.86 5.26 2.23 11.44-1.01-.07-2.04-.11-3.11-.11-14.63 0-26.19 8.43-33.41 24.38-6.74 14.87-7.95 31.89-8.1 40.21-1.13-.1-2.17-.21-3.1-.34-.58-.08-1.18.1-1.62.5s-.68.97-.65 1.57c.02.5.55 12.33 1.72 17.56.17.74.73 1.32 1.46 1.5.26.07 16.6 4.12 39.49 4.12 13.87 0 30.15-1.49 46.7-6.25.71-.2 1.25-.78 1.4-1.5 2.54-11.91 6.53-30.23 7.09-31.9.22-.67.09-1.38-.34-1.91zm-56.73-60.24c-3.06 0-5.56-2.49-5.56-5.56 0-3.06 2.49-5.56 5.56-5.56s5.56 2.49 5.56 5.56-2.49 5.56-5.56 5.56zm6.09 16.3c30.05 0 34.21 30.38 34.46 45.08-13.36 1.81-32.6 4.65-42.43 7.19-.88.23-1.5 1.02-1.5 1.94v7.19c-4.51.04-18.02.08-28.04-.51.24-11.34 3.25-60.89 37.51-60.89zm40.24 75.72c-38.23 10.65-74.68 3.61-81.73 2.06-.66-3.8-1.08-9.94-1.27-13.29 10.19 1.02 27.88.95 33.29.9v2.92c0 1.1.9 2 2 2s2-.9 2-2v-12.54c3.84-.92 8.87-1.87 14.32-2.8l-.76 15.25c-.06 1.1.79 2.04 1.9 2.1h.1c1.06 0 1.94-.83 2-1.9l.8-16.12c5.04-.81 10.26-1.59 15.14-2.29-.27 2.61-.47 5.22-.73 7.83l-.94 10.29c-.1 1.09.7 2.07 1.8 2.17 1.1.11 2.08-.7 2.18-1.8l1-10.28c.27-2.93.6-5.86.82-8.79 6.05-.84 11.23-1.5 14.26-1.89-1.62 6.93-5.12 23.22-6.18 28.18z"/>
    <ellipse cx="143.41" cy="66.29" rx="8.41" ry="9.29"/>
    <path d="m133.69 66.46c0-3.36 1.44-6.3 3.6-7.93-3.4.76-5.94 3.95-5.94 7.76 0 3.59 2.26 6.63 5.35 7.61-1.83-1.69-3.01-4.4-3.01-7.44z"/>
    <ellipse cx="170.1" cy="66.29" rx="7.71" ry="8.32"/>
    <path d="m163.95 73.1c-1.68-1.52-2.76-3.94-2.76-6.66 0-3.01 1.32-5.64 3.3-7.1-3.11.68-5.45 3.53-5.45 6.95 0 3.21 2.08 5.93 4.91 6.81z"/>
    <circle cx="117.62" cy="111.41" r="3"/>
  </g>
</svg>
