<?xml version="1.0" encoding="UTF-8"?>
<svg id="RUCHOMY_KLOCEK" enable-background="new 0 0 283.46 141.73" version="1.1" viewBox="0 0 283.46 141.73" xmlns="http://www.w3.org/2000/svg">
  <style type="text/css">.st0{fill:#D1C552;stroke:#000000;stroke-width:4;stroke-miterlimit:10;}
	.st1{fill:#6EA7BD;stroke:#000000;stroke-width:4;stroke-miterlimit:10;}
	.st2{fill:#E94B4D;stroke:#000000;stroke-width:4;stroke-miterlimit:10;}
	.st3{fill:#D1C552;}
	.st4{fill:#B29F31;}
	.st5{fill:#F4E783;}
	.st6{fill:#4E4D4D;}
	.st7{fill:#767676;}
	.st8{fill:#6EA7BD;}
	.st9{fill:#4D90A5;}
	.st10{fill:#8DD1E7;}</style>
  <path class="st0" d="m121.24 109.44c-3.24-2.17-6.25-4.9-8.95-8.18l4.63-3.82c10.6 12.86 26.94 15.78 41.63 7.44l2.96 5.22c-13.61 7.74-28.45 7.26-40.27-.66z"/>
  <path class="st1" d="m113.04 116.99c-3.9 0-7.92-.59-11.99-1.81l1.72-5.75c15.96 4.78 31.16-1.89 38.72-17l5.37 2.68c-7.01 14.02-19.59 21.88-33.82 21.88z"/>
  <path class="st2" d="m151.92 97.33c-1.6-3.56-2.71-7.47-3.26-11.68l5.95-.78c2.18 16.52 14.49 27.66 31.37 28.36l-.25 6c-15.65-.66-27.98-8.92-33.81-21.9z"/>
  <polygon class="st3" points="1.78 29.88 14.07 17.58 269.93 17.58 282.61 30.27 282.61 88.05 270.11 100.55 13.55 100.55 1.99 89"/>
  <polygon class="st4" points="3.08 89.09 9.51 86.18 16.31 93.24 129.34 98.81 126.98 101.02 13.66 101.38"/>
  <path class="st5" d="m176.43 26.27-160.24 1.13 1.18 2.51 84.75 42.68c6.38.75 13.56 1.7 21.07 2.86 2.46.38-4.23 4.53-6.63 3.87-.74-.21-1.49-.4-2.24-.58l14.65 7.38.85-40.88 67.13-.67-20.52-18.3z"/>
  <polygon class="st6" points="128.05 47.43 127.64 84.87 123.42 89.09 17.81 89.09 13.66 84.24 14.03 33.81 18.34 29.88 123.34 29.88 123.44 29.96 130.08 29.96 125.1 25.28 16.13 25.28 9.51 32.16 9.51 86.18 16.31 93.24 125.45 93.24 132.16 85.81 132.35 47.43"/>
  <polygon class="st5" points="12.76 17.96 13.66 19.17 16.19 25 123.93 25.28 171.08 24.97 169 17.58"/>
  <path class="st5" d="m28.42 39.32 47.02 23.05s-13.43-3.12-25.96-8.81c-10.74-4.89-21.06-14.24-21.06-14.24z"/>
  <polygon class="st4" points="72.92 78.69 25.71 48.33 13.63 48.33 13.63 50.33 25.12 50.33 72.09 80.53 72.34 80.69 127.07 80.69 127.07 78.69"/>
  <polygon class="st5" points="127.66 74.91 73.91 74.91 26.69 44.56 13.63 44.56 13.63 46.56 26.1 46.56 73.08 76.75 73.32 76.91 127.66 76.91"/>
  <polygon class="st7" points="32.37 100.85 38.02 115.44 104.13 115.44 109.08 101.38"/>
  <polygon class="st6" points="38.63 115.85 102.6 115.85 100.98 123.17 40.49 123.17"/>
  <polygon class="st6" points="38.13 113.44 37.31 104.61 103.55 104.61 101.49 113.05 47.08 115.44 103.55 115.44 109.08 101.38 32.37 102.02"/>
  <polygon class="st4" points="267.33 93.87 155.4 98.81 157.76 101.02 270.09 100.44"/>
  <path class="st5" d="m266.5 26.27-108.58 1.13 1.18 2.51 84.75 42.68c6.38.75 13.56 1.7 21.07 2.86 2.46.38-4.23 4.53-6.63 3.87-.74-.21-1.49-.4-2.24-.58l14.65 7.38 1.13-54.21-5.33-5.64z"/>
  <polygon class="st6" points="266.84 25.28 123.86 25.28 119.76 29.55 164.03 29.55 164.03 29.88 265.08 29.88 269.93 33.81 269.38 84.87 265.16 89.09 159.55 89.09 155.4 84.24 155.67 47.37 151.25 47.37 151.25 86.18 158.05 93.24 267.19 93.24 273.9 85.81 274.16 32.16"/>
  <polygon class="st5" points="154.49 17.96 155.4 19.17 157.92 25 265.66 25.28 269.32 27.07 273.91 31.92 274.03 72.86 279.87 28.52 269.87 17.58"/>
  <path class="st5" d="m187.13 47.73 47.02 23.05s-13.43-3.12-25.96-8.81c-10.75-4.88-21.06-14.24-21.06-14.24z"/>
  <polygon class="st4" points="214.66 78.69 167.44 48.33 155.37 48.33 155.37 50.33 166.85 50.33 213.82 80.53 214.07 80.69 268.8 80.69 268.8 78.69"/>
  <polygon class="st5" points="269.4 74.91 215.64 74.91 168.42 44.56 128.98 44.56 128.98 46.56 167.84 46.56 214.81 76.75 215.05 76.91 269.4 76.91"/>
  <polygon class="st7" points="174.1 100.85 179.75 115.44 245.87 115.44 250.81 101.38"/>
  <polygon class="st6" points="180.37 115.85 244.34 115.85 242.71 123.17 182.22 123.17"/>
  <polygon class="st6" points="179.87 113.44 179.04 104.61 245.28 104.61 243.22 113.05 188.81 115.44 245.28 115.44 250.81 101.38 174.1 102.02"/>
  <path class="st4" d="m161.89 62.96c1.1 0 1.99-.89 1.99-1.99s-.89-1.99-1.99-1.99-1.99.89-1.99 1.99.89 1.99 1.99 1.99z"/>
  <path class="st4" d="m174.77 62.96c1.1 0 1.99-.89 1.99-1.99s-.89-1.99-1.99-1.99-1.99.89-1.99 1.99c.01 1.1.9 1.99 1.99 1.99z"/>
  <rect class="st8" x="132.35" y="47.43" width="18.9" height="20.83"/>
  <polygon class="st9" points="132.88 49.05 135.13 65.26 150.88 65.26 151.38 65.46 151.01 67.84 132.25 67.84"/>
  <polygon class="st10" points="148.62 53.44 148.66 49.87 142 49.87 145.11 53.44"/>
  <polygon class="st10" points="148.58 57.37 148.61 54.06 145.31 54.06 145.68 57.37"/>
  <polygon class="st10" points="148.54 60.41 148.57 57.9 145.74 57.9 146.02 60.41"/>
  <polygon class="st10" points="148.52 62.18 148.54 60.85 146.07 60.85 146.21 62.18"/>
  <polygon class="st10" points="146.26 62.62 146.36 63.55 148.51 63.55 148.52 62.62"/>
  <path d="m271.04 15.77h-258.61c-4.86 4.85-7.58 7.57-12.43 12.42v62.18l12.43 12.43h18.25l7.99 21.85c.29.79 1.04 1.31 1.88 1.31h60.65c.84 0 1.59-.52 1.88-1.31l7.99-21.85h16.32c3.95 0 7.45-.01 10.56-.02 8.99.01 17.91.01 17.91.02h16.56l7.99 21.85c.29.79 1.04 1.31 1.88 1.31h60.65c.84 0 1.59-.52 1.88-1.31l7.99-21.85h18.25l12.43-12.43v-62.18c-4.88-4.85-7.6-7.57-12.45-12.42zm-230.96 101.1h2.52l-1.85 1.85-.67-1.85zm1.86 5.1-.43-1.18 3.92-3.92h2.39l-5.1 5.1h-.78zm3.61 0 5.1-5.1h2.39l-5.1 5.1h-2.39zm5.21 0 5.1-5.1h2.39l-5.1 5.1h-2.39zm5.22 0 5.1-5.1h2.39l-5.1 5.1h-2.39zm5.22 0 5.1-5.1h2.39l-5.1 5.1h-2.39zm5.22 0 5.1-5.1h2.39l-5.1 5.1h-2.39zm5.22 0 5.1-5.1h2.39l-5.1 5.1h-2.39zm5.22 0 5.1-5.1h2.39l-5.1 5.1h-2.39zm5.22 0 5.1-5.1h2.39l-5.1 5.1h-2.39zm5.22 0 5.1-5.1h2.39l-5.1 5.1h-2.39zm5.22 0 5.1-5.1h2.38l-5.1 5.1h-2.38zm7.27 0h-2.06l3.24-3.24-1.18 3.24zm2.6-7.1h-63.04l-4.41-12.06h71.86l-4.41 12.06zm79.42 2h2.52l-1.85 1.85-.67-1.85zm1.86 5.1-.43-1.18 3.92-3.92h2.39l-5.1 5.1h-.78zm3.61 0 5.1-5.1h2.39l-5.1 5.1h-2.39zm5.22 0 5.1-5.1h2.39l-5.1 5.1h-2.39zm5.22 0 5.1-5.1h2.39l-5.1 5.1h-2.39zm5.21 0 5.1-5.1h2.39l-5.1 5.1h-2.39zm5.22 0 5.1-5.1h2.39l-5.1 5.1h-2.39zm5.22 0 5.1-5.1h2.39l-5.1 5.1h-2.39zm5.22 0 5.1-5.1h2.39l-5.1 5.1h-2.39zm5.22 0 5.1-5.1h2.39l-5.1 5.1h-2.39zm5.22 0 5.1-5.1h2.39l-5.1 5.1h-2.39zm5.22 0 5.1-5.1h2.39l-5.1 5.1h-2.39zm7.27 0h-2.06l3.24-3.24-1.18 3.24zm2.6-7.1h-63.04l-4.41-12.06h71.86l-4.41 12.06zm35.34-26.15-10.08 10.08h-255.3l-10.08-10.08v-58.87l10.08-10.08h255.3l10.08 10.08v58.87z"/>
  <path d="m164.76 24.27h-148.81l-7.45 7.45v55.14l7.45 7.45h109.83l7.45-7.45v-17.6h17.01v17.6l7.45 7.45h109.83l7.45-7.45v-55.14l-7.45-7.45h-102.76zm-3.02 2h103.92l-1.06 2.25h-245.82l-.89-2.25h143.85zm-145.7.74.9 2.28-3.49 3.49-2.3-.88 4.89-4.89zm-1.28 21.46h10.88l46.96 30.19.25.16h54.13v5.45l-3.78 3.78h-104.66l-3.78-3.78v-35.8zm-4.26-14.66 2.25.86v11.8h-2.25v-12.66zm0 14.66h2.25v35.39l-2.25 1v-36.39zm5.48 43.03-4.77-4.77 2.2-.98 3.47 3.47-.9 2.28zm1.83.8.9-2.25h104.19l.95 2.25h-106.04zm107.9-.76-.95-2.24 3.5-3.5 2.26.93-4.81 4.81zm5.52-6.67-2.25-.92v-35.48h2.25v36.4zm-4.25-38.4v30.35h-53.54l-47.22-30.35h-11.46v-12.16l3.78-3.78h246.39l3.71 3.71c.01.01 0 .03.01.04.02.04.04.07.06.1v42.44h-53.54l-37.55-24.14v-.01h-.01l-9.65-6.21h-40.98zm29.51 8.2h20.53l37.32 23.99.25.16h54.12v5.45l-3.78 3.78h-104.66l-3.78-3.78v-29.6zm0-2v-4.21h10.88l6.54 4.21h-17.42zm-2-4.2v18.79h-2.25v-18.79h2.25zm-4.25 18.79h-17.01v-18.79h17.01v18.79zm2 2h2.25v14.6l-2.25 1v-15.6zm5.47 22.24-4.77-4.77 2.2-.98 3.47 3.47-.9 2.28zm1.84.8.9-2.25h104.19l.95 2.25h-106.04zm107.89-.76-.95-2.24 3.5-3.5 2.26.93-4.81 4.81zm5.52-6.67-2.25-.92v-49.44l2.25-.93v51.29zm-3.05-52.19-3.44-3.44 1.02-2.16 4.68 4.68-2.26.92z"/>
  <rect x="95.29" y="67.26" width="31.68" height="2"/>
  <rect x="101.91" y="63.26" width="25.06" height="2"/>
  <rect x="99.91" y="59.26" width="27.06" height="2"/>
  <rect x="110.91" y="55.26" width="16.06" height="2"/>
  <path d="m161.89 61.97c.91 0 1.65-.74 1.65-1.65s-.74-1.65-1.65-1.65-1.65.74-1.65 1.65.74 1.65 1.65 1.65z"/>
  <path d="m174.77 61.97c.91 0 1.65-.74 1.65-1.65s-.74-1.65-1.65-1.65-1.65.74-1.65 1.65.74 1.65 1.65 1.65z"/>
</svg>
