<?xml version="1.0" encoding="UTF-8"?>
<svg id="RUCHOMY_KLOCEK" enable-background="new 0 0 141.73 141.73" version="1.1" viewBox="0 0 141.73 141.73" xmlns="http://www.w3.org/2000/svg">
  <style type="text/css">.st0{fill:#D1C552;}
	.st1{fill:#B29F31;}
	.st2{fill:#F4E783;}
	.st3{fill:#4E4D4D;}
	.st4{fill:#767676;}</style>
  <polygon class="st0" points="1.78 29.88 14.07 17.58 128.13 17.58 140.82 30.27 140.82 88.05 128.32 100.55 13.55 100.55 1.99 89"/>
  <polygon class="st1" points="3.08 89.09 9.51 86.18 16.31 93.24 129.34 98.81 126.98 101.02 13.66 101.38"/>
  <path class="st2" d="m124.76 26.27-108.57 1.13 1.18 2.51 84.75 42.68c6.38.75 13.56 1.7 21.07 2.86 2.46.38-4.23 4.53-6.63 3.87-.74-.21-1.49-.4-2.24-.58l14.65 7.38 1.13-54.21-5.34-5.64z"/>
  <path class="st3" d="m125.1 25.28h-108.97l-6.62 6.88v54.02l6.8 7.06h109.14l6.71-7.43.26-53.65-7.32-6.88zm2.54 59.59-4.22 4.22h-105.61l-4.15-4.85.37-50.43 4.31-3.93h105l4.85 3.93-.55 51.06z"/>
  <polygon class="st2" points="12.76 17.96 13.66 19.17 16.19 25 123.93 25.28 127.59 27.07 132.17 31.92 132.3 72.86 138.13 28.52 128.13 17.58"/>
  <path class="st2" d="m28.42 39.32 47.02 23.05s-13.43-3.12-25.96-8.81c-10.74-4.89-21.06-14.24-21.06-14.24z"/>
  <polygon class="st1" points="72.92 78.69 25.71 48.33 13.63 48.33 13.63 50.33 25.12 50.33 72.09 80.53 72.34 80.69 127.07 80.69 127.07 78.69"/>
  <polygon class="st2" points="127.66 74.91 73.91 74.91 26.69 44.56 13.63 44.56 13.63 46.56 26.1 46.56 73.08 76.75 73.32 76.91 127.66 76.91"/>
  <polygon class="st4" points="32.37 100.85 38.02 115.44 104.13 115.44 109.08 101.38"/>
  <polygon class="st3" points="38.63 115.85 102.6 115.85 100.98 123.17 40.49 123.17"/>
  <polygon class="st3" points="38.13 113.44 37.31 104.61 103.55 104.61 101.49 113.05 47.08 115.44 103.55 115.44 109.08 101.38 32.37 102.02"/>
  <path d="m129.3 15.77h-116.87c-4.86 4.85-7.58 7.57-12.43 12.42v62.18l12.43 12.43h18.25l7.99 21.85c.29.79 1.04 1.31 1.88 1.31h60.65c.84 0 1.59-.52 1.88-1.31l7.99-21.85h18.25l12.43-12.43v-62.18c-4.87-4.85-7.59-7.57-12.45-12.42zm-89.22 101.1h2.52l-1.85 1.85-.67-1.85zm1.86 5.1-.43-1.18 3.92-3.92h2.39l-5.1 5.1h-.78zm3.61 0 5.1-5.1h2.39l-5.1 5.1h-2.39zm5.21 0 5.1-5.1h2.39l-5.1 5.1h-2.39zm5.22 0 5.1-5.1h2.39l-5.1 5.1h-2.39zm5.22 0 5.1-5.1h2.39l-5.1 5.1h-2.39zm5.22 0 5.1-5.1h2.39l-5.1 5.1h-2.39zm5.22 0 5.1-5.1h2.39l-5.1 5.1h-2.39zm5.22 0 5.1-5.1h2.39l-5.1 5.1h-2.39zm5.22 0 5.1-5.1h2.39l-5.1 5.1h-2.39zm5.22 0 5.1-5.1h2.39l-5.1 5.1h-2.39zm5.22 0 5.1-5.1h2.38l-5.1 5.1h-2.38zm7.27 0h-2.06l3.24-3.24-1.18 3.24zm2.6-7.1h-63.04l-4.41-12.06h71.86l-4.41 12.06zm35.34-26.15-10.08 10.08h-113.57l-10.08-10.08v-58.87l10.08-10.08h113.56l10.08 10.08v58.87z"/>
  <path d="m15.95 24.27-7.45 7.45v55.14l7.45 7.45h109.83l7.45-7.45v-55.14l-7.45-7.45h-109.83zm107.98 2-1.06 2.25h-104.09l-.89-2.25h106.04zm-109.17 22.2h10.88l46.96 30.19.25.16h54.13v5.45l-3.78 3.78h-104.66l-3.78-3.78v-35.8zm112.22 28.35h-53.54l-47.22-30.35h-11.46v-12.16l3.78-3.78h104.65l3.71 3.71c.01.01 0 .03.01.04.02.04.04.07.06.1v42.44zm-110.94-49.81.9 2.28-3.49 3.49-2.3-.88 4.89-4.89zm-3.28 7.66v11.8h-2.26v-12.66l2.26.86zm-2.26 13.8h2.25v35.39l-2.25 1v-36.39zm5.48 43.03-4.77-4.77 2.2-.98 3.47 3.47-.9 2.28zm1.83.8.9-2.25h104.19l.95 2.25h-106.04zm107.9-.76-.95-2.24 3.5-3.5 2.26.93-4.81 4.81zm5.52-6.67-2.25-.92v-49.44l2.25-.93v51.29zm-3.05-52.19-3.44-3.44 1.02-2.16 4.68 4.68-2.26.92z"/>
</svg>
