<?xml version="1.0" encoding="UTF-8"?>
<svg enable-background="new 0 0 141.73 141.73" version="1.1" viewBox="0 0 141.73 141.73" xmlns="http://www.w3.org/2000/svg">
  <style type="text/css">.st0{fill:#767676;}
	.st1{fill:#909091;}
	.st2{fill:#4E4D4D;}
	.st3{fill:#D1C552;}
	.st4{fill:#B29F31;}
	.st5{fill:#F4E783;}</style>
  <g id="KLOCEK_1_">
    <polygon class="st0" points="1.78 14.11 14.07 1.82 128.13 1.82 140.82 14.51 140.82 126.98 128.32 139.48 13.55 139.48 1.99 127.92"/>
    <polygon class="st1" points="17.37 14.14 128.98 125.03 130.1 16.12 124.76 10.5 16.19 11.63"/>
    <path class="st2" d="m125.1 9.51h-108.97l-6.62 6.88v108.71l6.8 7.06h109.14l6.71-7.43.26-108.34-7.32-6.88zm2.54 114.28-4.22 4.22h-105.61l-4.15-4.85.37-105.12 4.31-3.93h105l4.85 3.93-.55 105.75z"/>
    <polygon class="st1" points="12.76 2.19 13.66 3.41 16.19 9.23 123.93 9.51 127.59 11.31 132.17 16.16 132.3 69.68 138.13 12.76 128.13 1.82"/>
    <path class="st1" d="m20.19 21.25 87.71 91.76s-30.35-22.23-47.29-39.76-40.42-52-40.42-52z"/>
    <rect class="st3" x="13.81" y="46.09" width="114.12" height="49.55"/>
    <path class="st4" d="m121.29 88.17c-2.12-.27-3.9-1.21-4.54-2.36-.15-.25-.21-.51-.25-.77 0-.06.02-.12.02-.18l-.04-1.06c-.05-1.37-.13-2.74-.28-4.11-.16-2.15-.4-4.3-.78-6.44-.38 2.15-.61 4.3-.78 6.45-.15 1.37-.23 2.74-.28 4.11l-.04 1.06c-.04.3-.08.6-.25.89-.29.58-.9 1.09-1.65 1.52-1.54.85-3.89 1.19-5.99.9-2.12-.27-3.9-1.21-4.54-2.36-.15-.25-.21-.51-.25-.77 0-.06.02-.12.02-.18l-.04-1.06c-.05-1.37-.13-2.74-.28-4.11-.16-2.15-.4-4.3-.78-6.44-.38 2.15-.61 4.3-.78 6.45-.15 1.37-.23 2.74-.28 4.11l-.04 1.06c-.04.3-.08.6-.25.89-.29.58-.9 1.09-1.65 1.52-1.54.85-3.89 1.19-5.99.9-2.12-.27-3.9-1.21-4.54-2.36-.15-.25-.21-.51-.25-.77 0-.06.02-.12.02-.18l-.04-1.06c-.05-1.37-.13-2.74-.28-4.11-.16-2.15-.4-4.3-.78-6.44-.38 2.15-.61 4.3-.78 6.45-.15 1.37-.23 2.74-.28 4.11l-.04 1.06c-.04.3-.08.6-.25.89-.29.58-.9 1.09-1.65 1.52-1.54.85-3.89 1.19-5.99.9-2.12-.27-3.9-1.21-4.54-2.36-.15-.25-.21-.51-.25-.77 0-.06.02-.12.02-.18l-.04-1.09c-.05-1.37-.13-2.74-.28-4.11-.16-2.15-.4-4.3-.78-6.44-.38 2.15-.61 4.3-.78 6.45-.15 1.37-.23 2.74-.28 4.11l-.04 1.06c-.04.3-.08.6-.25.89-.29.58-.9 1.09-1.65 1.52-1.54.85-3.89 1.19-5.99.9-2.12-.27-3.9-1.21-4.54-2.36-.15-.25-.21-.51-.25-.77 0-.06.02-.12.02-.18l-.04-1.06c-.05-1.37-.13-2.74-.28-4.11-.16-2.15-.4-4.3-.78-6.44-.38 2.15-.61 4.3-.78 6.45-.15 1.37-.23 2.74-.28 4.11l-.04 1.06c-.04.3-.08.6-.25.89-.29.58-.9 1.09-1.65 1.52-1.54.85-3.89 1.19-5.99.9-2.12-.27-3.9-1.21-4.54-2.36-.15-.25-.21-.51-.25-.77 0-.06.02-.12.02-.18l-.04-1.06c-.05-1.37-.13-2.74-.28-4.11-.16-2.15-.4-4.3-.78-6.44-.38 2.15-.61 4.3-.78 6.45-.15 1.37-.23 2.74-.28 4.11l-.04 1.06c-.04.3-.08.6-.25.89-.29.58-.9 1.09-1.65 1.52-1.54.85-3.89 1.19-5.99.9-2.12-.27-3.9-1.21-4.54-2.36-.15-.25-.21-.51-.25-.77 0-.06.02-.12.02-.18l-.04-1.06c-.05-1.37-.13-2.74-.28-4.11-.16-2.15-.4-4.3-.78-6.44-.38 2.15-.61 4.3-.78 6.45-.15 1.37-.23 2.74-.28 4.11l-.04 1.06c-.04.3-.08.6-.25.89-.29.58-.9 1.09-1.65 1.52-1.54.85-3.89 1.19-5.99.9-.91-.12-1.74-.36-2.46-.69v5.25c.72.43 1.55.76 2.46.91 2.11.38 4.45-.06 5.99-1.18.75-.56 1.36-1.24 1.65-2 .17-.38.22-.77.25-1.17l.04-1.4c.05-1.8.13-3.6.28-5.4.16-2.83.4-5.66.78-8.48.38 2.83.61 5.65.78 8.48.15 1.8.23 3.61.28 5.41l.04 1.4c0 .08-.01.16-.02.24.04.34.1.68.25 1.01.64 1.52 2.42 2.75 4.54 3.11 2.11.38 4.45-.06 5.99-1.18.75-.56 1.36-1.24 1.65-2 .17-.38.22-.77.25-1.17l.04-1.4c.05-1.8.13-3.6.28-5.4.16-2.83.4-5.66.78-8.48.38 2.83.61 5.65.78 8.48.15 1.8.23 3.61.28 5.41l.04 1.4c0 .08-.01.16-.02.24.04.34.1.68.25 1.01.64 1.52 2.42 2.75 4.54 3.11 2.11.38 4.45-.06 5.99-1.18.75-.56 1.36-1.24 1.65-2 .17-.38.22-.77.25-1.17l.04-1.4c.05-1.8.13-3.6.28-5.4.16-2.83.4-5.66.78-8.48.38 2.83.61 5.65.78 8.48.15 1.8.23 3.61.28 5.41l.04 1.4c0 .08-.01.16-.02.24.04.34.1.68.25 1.01.64 1.52 2.42 2.75 4.54 3.11 2.11.38 4.45-.06 5.99-1.18.75-.56 1.36-1.24 1.65-2 .17-.38.22-.77.25-1.17l.04-1.4c.05-1.8.13-3.6.28-5.4.16-2.83.4-5.66.78-8.48.38 2.83.61 5.65.78 8.48.15 1.8.23 3.61.28 5.41l.04 1.4c0 .08-.01.16-.02.24.04.34.1.68.25 1.01.64 1.52 2.42 2.75 4.54 3.11 2.11.38 4.45-.06 5.99-1.18.75-.56 1.36-1.24 1.65-2 .17-.38.22-.77.25-1.17l.04-1.4c.05-1.8.13-3.6.28-5.4.16-2.83.4-5.66.78-8.48.38 2.83.61 5.65.78 8.48.15 1.8.23 3.61.28 5.41l.04 1.4c0 .08-.01.16-.02.24.04.34.1.68.25 1.01.64 1.52 2.42 2.75 4.54 3.11 2.11.38 4.45-.06 5.99-1.18.75-.56 1.36-1.24 1.65-2 .17-.38.22-.77.25-1.17l.04-1.4c.05-1.8.13-3.6.28-5.4.16-2.83.4-5.66.78-8.48.38 2.83.61 5.65.78 8.48.15 1.8.23 3.61.28 5.41l.04 1.4c0 .08-.01.16-.02.24.04.34.1.68.25 1.01.64 1.52 2.42 2.75 4.54 3.11 2.11.38 4.45-.06 5.99-1.18.75-.56 1.36-1.24 1.65-2 .17-.38.22-.77.25-1.17l.04-1.4c.05-1.8.13-3.6.28-5.4.16-2.83.4-5.66.78-8.48.38 2.83.61 5.65.78 8.48.15 1.8.23 3.61.28 5.41l.04 1.4c0 .08-.01.16-.02.24.04.34.1.68.25 1.01.64 1.52 2.42 2.75 4.54 3.11 1.96.36 4.11-.01 5.64-.96v-5.24c-1.54.54-3.69.82-5.64.55z"/>
    <path class="st5" d="m126.76 48.98c-1.43-.84-3.36-1.14-5.16-.91-1.8.25-3.43 1.1-4.34 2.27-.41.53-.67 1.13-.76 1.74.01.11.02.23.02.34-.06 1.66-.16 3.32-.34 4.98-.16 2.23-.39 4.45-.75 6.68-.36-2.23-.59-4.46-.75-6.69-.18-1.66-.28-3.31-.34-4.96-.05-1.35-.98-2.64-2.42-3.45-1.43-.84-3.36-1.14-5.16-.91-1.8.25-3.43 1.1-4.34 2.27-.41.53-.67 1.13-.76 1.74.01.11.02.23.02.34-.06 1.66-.16 3.32-.34 4.98-.16 2.23-.39 4.45-.75 6.68-.36-2.23-.59-4.46-.75-6.69-.18-1.66-.28-3.31-.34-4.96-.05-1.35-.98-2.64-2.42-3.45-1.43-.84-3.36-1.14-5.16-.91-1.8.25-3.43 1.1-4.34 2.27-.41.53-.67 1.13-.76 1.74.01.11.02.23.02.34-.06 1.66-.16 3.32-.34 4.98-.16 2.23-.39 4.45-.75 6.68-.36-2.23-.59-4.46-.75-6.69-.18-1.66-.28-3.31-.34-4.96-.05-1.35-.98-2.64-2.42-3.45-1.43-.84-3.36-1.14-5.16-.91-1.8.25-3.43 1.1-4.34 2.27-.41.53-.67 1.13-.76 1.74.01.11.02.23.02.34-.06 1.66-.16 3.32-.34 4.98-.16 2.23-.39 4.45-.75 6.68-.36-2.23-.59-4.46-.75-6.69-.18-1.66-.28-3.31-.34-4.96-.05-1.35-.98-2.64-2.42-3.45-1.43-.84-3.36-1.14-5.16-.91-1.8.25-3.43 1.1-4.34 2.27-.41.53-.67 1.13-.76 1.74.01.11.02.23.02.34-.06 1.66-.16 3.32-.34 4.98-.16 2.23-.39 4.45-.75 6.68-.36-2.23-.59-4.46-.75-6.69-.18-1.66-.28-3.31-.34-4.96-.05-1.35-.98-2.64-2.42-3.45-1.43-.84-3.36-1.14-5.16-.91-1.8.25-3.43 1.1-4.34 2.27-.41.53-.67 1.13-.76 1.74.01.11.02.23.02.34-.06 1.66-.16 3.32-.34 4.98-.16 2.23-.39 4.45-.75 6.68-.36-2.23-.59-4.46-.75-6.69-.18-1.66-.28-3.31-.34-4.96-.05-1.35-.98-2.64-2.42-3.45-1.43-.84-3.36-1.14-5.16-.91-1.8.25-3.43 1.1-4.34 2.27-.41.53-.67 1.13-.76 1.74.01.11.02.23.02.34-.06 1.66-.16 3.32-.34 4.98-.16 2.23-.39 4.45-.75 6.68-.36-2.23-.59-4.46-.75-6.69-.18-1.66-.28-3.31-.34-4.96-.05-1.35-.98-2.64-2.42-3.45-1.43-.84-3.36-1.14-5.16-.91-1.01.14-1.96.48-2.77.96v5.25c.81-.36 1.76-.62 2.77-.73 1.8-.18 3.73.05 5.16.69 1.44.62 2.37 1.6 2.42 2.62.06 1.25.16 2.51.34 3.77.16 1.69.39 3.39.75 5.08.36-1.69.59-3.38.75-5.07.18-1.26.28-2.52.34-3.78 0-.09-.01-.17-.02-.26.09-.47.35-.92.76-1.32.92-.89 2.54-1.54 4.34-1.72s3.73.05 5.16.69c1.44.62 2.37 1.6 2.42 2.62.06 1.25.16 2.51.34 3.77.16 1.69.39 3.39.75 5.08.36-1.69.59-3.38.75-5.07.18-1.26.28-2.52.34-3.78 0-.09-.01-.17-.02-.26.09-.47.35-.92.76-1.32.92-.89 2.54-1.54 4.34-1.72s3.73.05 5.16.69c1.44.62 2.37 1.6 2.42 2.62.06 1.25.16 2.51.34 3.77.16 1.69.39 3.39.75 5.08.36-1.69.59-3.38.75-5.07.18-1.26.28-2.52.34-3.78 0-.09-.01-.17-.02-.26.09-.47.35-.92.76-1.32.92-.89 2.54-1.54 4.34-1.72s3.73.05 5.16.69c1.44.62 2.37 1.6 2.42 2.62.06 1.25.16 2.51.34 3.77.16 1.69.39 3.39.75 5.08.36-1.69.59-3.38.75-5.07.18-1.26.28-2.52.34-3.78 0-.09-.01-.17-.02-.26.09-.47.35-.92.76-1.32.92-.89 2.54-1.54 4.34-1.72s3.73.05 5.16.69c1.44.62 2.37 1.6 2.42 2.62.06 1.25.16 2.51.34 3.77.16 1.69.39 3.39.75 5.08.36-1.69.59-3.38.75-5.07.18-1.26.28-2.52.34-3.78 0-.09-.01-.17-.02-.26.09-.47.35-.92.76-1.32.92-.89 2.54-1.54 4.34-1.72s3.73.05 5.16.69c1.44.62 2.37 1.6 2.42 2.62.06 1.25.16 2.51.34 3.77.16 1.69.39 3.39.75 5.08.36-1.69.59-3.38.75-5.07.18-1.26.28-2.52.34-3.78 0-.09-.01-.17-.02-.26.09-.47.35-.92.76-1.32.92-.89 2.54-1.54 4.34-1.72s3.73.05 5.16.69c1.44.62 2.37 1.6 2.42 2.62.06 1.25.16 2.51.34 3.77.16 1.69.39 3.39.75 5.08.36-1.69.59-3.38.75-5.07.18-1.26.28-2.52.34-3.78 0-.09-.01-.17-.02-.26.09-.47.35-.92.76-1.32.92-.89 2.54-1.54 4.34-1.72s3.73.05 5.16.69c.06.03.11.06.17.09v-5.3c-.06-.04-.11-.08-.17-.12z"/>
  </g>
  <g id="KLOCEK">
    <path d="m129.3 0h-116.87c-4.86 4.85-7.58 7.57-12.43 12.43v116.87l12.43 12.43h116.87l12.43-12.43v-116.87c-4.85-4.86-7.57-7.58-12.43-12.43zm8.43 127.65-10.08 10.08h-113.57l-10.08-10.08v-113.57l10.08-10.08h113.56l10.08 10.08v113.57z"/>
    <path d="m15.95 8.5-7.45 7.45v109.83l7.45 7.45h109.83l7.45-7.45v-109.83l-7.45-7.45h-109.83zm107.98 2-1.06 2.25h-104.09l-.89-2.25h106.04zm-96.6 41.75c.09-.61.35-1.2.76-1.73.92-1.16 2.54-2.01 4.34-2.25 1.8-.23 3.73.07 5.16.9 1.44.81 2.37 2.08 2.42 3.42.06 1.64.16 3.28.34 4.92.16 2.21.39 4.42.75 6.63.36-2.21.59-4.42.75-6.62.18-1.64.28-3.29.34-4.94 0-.11-.01-.23-.02-.34.09-.61.35-1.2.76-1.73.92-1.16 2.54-2.01 4.34-2.25 1.8-.23 3.73.07 5.16.9 1.44.81 2.37 2.08 2.42 3.42.06 1.64.16 3.28.34 4.92.16 2.21.39 4.42.75 6.63.36-2.21.59-4.42.75-6.62.18-1.64.28-3.29.34-4.94 0-.11-.01-.23-.02-.34.09-.61.35-1.2.76-1.73.92-1.16 2.54-2.01 4.34-2.25 1.8-.23 3.73.07 5.16.9 1.44.81 2.37 2.08 2.42 3.42.06 1.64.16 3.28.34 4.92.16 2.21.39 4.42.75 6.63.36-2.21.59-4.42.75-6.62.18-1.64.28-3.29.34-4.94 0-.11-.01-.23-.02-.34.09-.61.35-1.2.76-1.73.92-1.16 2.54-2.01 4.34-2.25 1.8-.23 3.73.07 5.16.9 1.44.81 2.37 2.08 2.42 3.42.06 1.64.16 3.28.34 4.92.16 2.21.39 4.42.75 6.63.36-2.21.59-4.42.75-6.62.18-1.64.28-3.29.34-4.94 0-.11-.01-.23-.02-.34.09-.61.35-1.2.76-1.73.92-1.16 2.54-2.01 4.34-2.25 1.8-.23 3.73.07 5.16.9 1.44.81 2.37 2.08 2.42 3.42.06 1.64.16 3.28.34 4.92.16 2.21.39 4.42.75 6.63.36-2.21.59-4.42.75-6.62.18-1.64.28-3.29.34-4.94 0-.11-.01-.23-.02-.34.09-.61.35-1.2.76-1.73.92-1.16 2.54-2.01 4.34-2.25 1.8-.23 3.73.07 5.16.9 1.44.81 2.37 2.08 2.42 3.42.06 1.64.16 3.28.34 4.92.16 2.21.39 4.42.75 6.63.36-2.21.59-4.42.75-6.62.18-1.64.28-3.29.34-4.94 0-.11-.01-.23-.02-.34.09-.61.35-1.2.76-1.73.92-1.16 2.54-2.01 4.34-2.25 1.8-.23 3.73.07 5.16.9.06.03.11.08.17.11v43.28c-1.53.94-3.68 1.3-5.64.95-2.12-.35-3.9-1.58-4.54-3.08-.15-.32-.21-.66-.25-1 0-.08.02-.16.02-.23l-.04-1.38c-.05-1.79-.13-3.57-.28-5.36-.16-2.8-.4-5.61-.78-8.41-.38 2.8-.61 5.61-.78 8.41-.15 1.79-.23 3.57-.28 5.36l-.04 1.38c-.04.39-.08.79-.25 1.16-.29.76-.9 1.43-1.65 1.99-1.54 1.11-3.89 1.55-5.99 1.17-2.12-.35-3.9-1.58-4.54-3.08-.15-.32-.21-.66-.25-1 0-.08.02-.16.02-.23l-.04-1.38c-.05-1.79-.13-3.57-.28-5.36-.16-2.8-.4-5.61-.78-8.41-.38 2.8-.61 5.61-.78 8.41-.15 1.79-.23 3.57-.28 5.36l-.04 1.38c-.04.39-.08.79-.25 1.16-.29.76-.9 1.43-1.65 1.99-1.54 1.11-3.89 1.55-5.99 1.17-2.12-.35-3.9-1.58-4.54-3.08-.15-.32-.21-.66-.25-1 0-.08.02-.16.02-.23l-.04-1.38c-.05-1.79-.13-3.57-.28-5.36-.16-2.8-.4-5.61-.78-8.41-.38 2.8-.61 5.61-.78 8.41-.15 1.79-.23 3.57-.28 5.36l-.04 1.38c-.04.39-.08.79-.25 1.16-.29.76-.9 1.43-1.65 1.99-1.54 1.11-3.89 1.55-5.99 1.17-2.12-.35-3.9-1.58-4.54-3.08-.15-.32-.21-.66-.25-1 0-.08.02-.16.02-.23l-.04-1.38c-.05-1.79-.13-3.57-.28-5.36-.16-2.8-.4-5.61-.78-8.41-.38 2.8-.61 5.61-.78 8.41-.15 1.79-.23 3.57-.28 5.36l-.04 1.38c-.04.39-.08.79-.25 1.16-.29.76-.9 1.43-1.65 1.99-1.54 1.11-3.89 1.55-5.99 1.17-2.12-.35-3.9-1.58-4.54-3.08-.15-.32-.21-.66-.25-1 0-.08.02-.16.02-.23l-.04-1.38c-.05-1.79-.13-3.57-.28-5.36-.16-2.8-.4-5.61-.78-8.41-.38 2.8-.61 5.61-.78 8.41-.15 1.79-.23 3.57-.28 5.36l-.04 1.38c-.04.39-.08.79-.25 1.16-.29.76-.9 1.43-1.65 1.99-1.54 1.11-3.89 1.55-5.99 1.17-2.12-.35-3.9-1.58-4.54-3.08-.15-.32-.21-.66-.25-1 0-.08.02-.16.02-.23l-.04-1.38c-.05-1.79-.13-3.57-.28-5.36-.16-2.8-.4-5.61-.78-8.41-.38 2.8-.61 5.61-.78 8.41-.15 1.79-.23 3.57-.28 5.36l-.04 1.38c-.04.39-.08.79-.25 1.16-.29.76-.9 1.43-1.65 1.99-1.54 1.11-3.89 1.55-5.99 1.17-2.12-.35-3.9-1.58-4.54-3.08-.15-.32-.21-.66-.25-1 0-.08.02-.16.02-.23l-.04-1.38c-.05-1.79-.13-3.57-.28-5.36-.16-2.8-.4-5.61-.78-8.41-.38 2.8-.61 5.61-.78 8.41-.15 1.79-.23 3.57-.28 5.36l-.04 1.38c-.04.39-.08.79-.25 1.16-.29.76-.9 1.43-1.65 1.99-1.54 1.11-3.89 1.55-5.99 1.17-.91-.15-1.74-.47-2.46-.9v-43.4c.81-.47 1.76-.81 2.77-.95 1.8-.23 3.73.07 5.16.9 1.44.81 2.37 2.08 2.42 3.42.06 1.64.16 3.28.34 4.92.16 2.21.39 4.42.75 6.63.36-2.21.59-4.42.75-6.62.18-1.64.28-3.29.34-4.94.15-.1.13-.22.12-.33zm-12.57 57.38h15.16l16.74-12.5h48.41l16.74 12.5h15.16v13.57l-3.78 3.78h-104.65l-3.78-3.78v-13.57zm112.22-77.52h-15.16l-16.74 12.5h-48.42l-16.74-12.5h-15.16v-13.57l3.78-3.78h104.65l3.71 3.71c.01.01 0 .03.01.04.02.04.04.07.06.1v13.5zm-110.94-20.86.9 2.28-3.49 3.49-2.3-.88 4.89-4.89zm-5.54 6.79 2.25.86v103.88l-2.25 1v-105.74zm5.48 112.39-4.77-4.77 2.2-.98 3.47 3.47-.9 2.28zm1.83.8.9-2.25h104.19l.95 2.25h-106.04zm107.9-.76-.95-2.24 3.5-3.5 2.26.93-4.81 4.81zm5.52-6.68-2.25-.92v-104.12l2.25-.93v105.97zm-3.05-106.88-3.44-3.44 1.02-2.16 4.68 4.68-2.26.92z"/>
  </g>
</svg>
