<?xml version="1.0" encoding="UTF-8"?>
<svg id="KLOCEK" enable-background="new 0 0 141.73 141.73" version="1.1" viewBox="0 0 141.73 141.73" xmlns="http://www.w3.org/2000/svg">
  <style type="text/css">.st0{fill:#767676;}
	.st1{fill:#909091;}
	.st2{fill:#4E4D4D;}
	.st3{fill:#D1C552;}
	.st4{fill:#B29F31;}</style>
  <polygon class="st0" points="1.78 14.11 14.07 1.82 128.13 1.82 140.82 14.51 140.82 126.98 128.32 139.48 13.55 139.48 1.99 127.92"/>
  <polygon class="st1" points="17.37 14.14 128.98 125.03 130.1 16.12 124.76 10.5 16.19 11.63"/>
  <path class="st2" d="m125.1 9.51h-108.97l-6.62 6.88v108.71l6.8 7.06h109.14l6.71-7.43.26-108.34-7.32-6.88zm2.54 114.28-4.22 4.22h-105.61l-4.15-4.85.37-105.12 4.31-3.93h105l4.85 3.93-.55 105.75z"/>
  <path class="st3" d="m31.43 41.43c-3.53-4.71-5.76-11.12-1.18-13.88s23.47-.53 23.47-.53l15.59 10.06 6.88 17.71 1.06 18-1 13.35 4.47 7.41 8.65 2.59 17.71 2.53 4.12 5.12-.47 6.18-6.18 3.24-14.88-.35-19.12-6.71-7.82-9.12-3.13-16.48s1.29-17.24 1.24-17.41c-.06-.18-1.94-11.59-1.94-11.59l-4.06-5.82-12.06-3.29-11.35-1.01z"/>
  <path class="st4" d="m35.43 26.16c-2.29 2.85-3.94 5.74-2.88 8.85 1.06 3.12 3.88 5 9.88 5.29s-6.59 2.35-6.59 2.35l-9.24-4.94 1.59-7.96 5.24-4.45 2 .86z"/>
  <path class="st4" d="m102.19 98.55c2.88 2 4.54 5.06 3.83 7.59s-1.85 4.21-8.6 5.18l4.65 2.88 6.53-4.29 3.35-6.12s-2.65-3.24-3-3.65-4.48-1.84-4.48-1.84l-2.28.25z"/>
  <polygon class="st1" points="45.6 48.87 61.36 62.63 60.45 69.1"/>
  <polygon class="st1" points="94.37 98.29 75.49 82.76 76.41 76.29"/>
  <polygon class="st1" points="12.76 2.19 13.66 3.41 16.19 9.23 123.93 9.51 127.59 11.31 132.17 16.16 132.3 69.68 138.13 12.76 128.13 1.82"/>
  <path d="m129.3 0h-116.87c-4.86 4.85-7.58 7.57-12.43 12.43v116.87l12.43 12.43h116.87l12.43-12.43v-116.87c-4.85-4.86-7.57-7.58-12.43-12.43zm8.43 127.65-10.08 10.08h-113.57l-10.08-10.08v-113.57l10.08-10.08h113.56l10.08 10.08v113.57z"/>
  <path d="m15.95 8.5-7.45 7.45v109.83l7.45 7.45h109.83l7.45-7.45v-109.83l-7.45-7.45h-109.83zm114.49 7.49-2.26.93-3.44-3.44 1.02-2.16 4.68 4.67zm.79 107.8-2.25-.92v-104.12l2.25-.93v105.97zm-5.52 6.68-.95-2.24 3.5-3.5 2.26.93-4.81 4.81zm-114.5-4.81 2.2-.98 3.47 3.47-.91 2.27-4.76-4.76zm-.71-107.62 2.25.86v103.88l-2.25 1v-105.74zm5.54-6.79.9 2.28-3.49 3.49-2.3-.88 4.89-4.89zm110.87 7.22c.01.01 0 .03.01.04.02.04.04.07.06.1v104.58l-3.78 3.78h-104.66l-3.78-3.78v-104.65l3.78-3.78h104.65l3.72 3.71zm-4.05-5.71h-104.08l-.89-2.25h106.03l-1.06 2.25zm-104.15 116.22h104.19l.95 2.25h-106.04l.9-2.25z"/>
  <path d="m102.96 92.55c-2.89 0-5.54.97-7.68 2.59-6.79-.34-12.58-1.34-15-4.08-2.25-2.54-2.94-8.02-1.98-15.84 2.17-17.76-.5-30.59-8.14-39.22-5.93-6.7-14.53-10.6-26.13-11.81-2.24-1.96-5.15-3.17-8.37-3.17-7.04 0-12.76 5.71-12.76 12.76 0 7.04 5.71 12.76 12.76 12.76 2.73 0 5.26-.86 7.33-2.33 5.77.73 9.86 2.42 12.19 5.05 3.58 4.04 4.67 11.96 3.26 23.54-1.71 14.06.53 24.37 6.86 31.52 7.26 8.2 18.18 10.32 29.57 10.83 2.2 1.81 5.01 2.91 8.08 2.91 7.04 0 12.76-5.71 12.76-12.76 0-7.03-5.71-12.75-12.75-12.75zm-34.66 9.13c-5.53-6.25-7.46-15.53-5.89-28.39 1.58-12.95.19-21.68-4.24-26.68-4.07-4.6-11.43-6.83-22.51-6.83-3.31 0-6-2.69-6-6 0-3.1 2.36-5.66 5.38-5.97-.07.35-.15.7-.2 1.05-.18 1.1-.21 2.22-.19 3.31.05 1.1.2 2.18.45 3.23.26 1.04.62 2.06 1.15 2.97-.28-1.01-.37-2.05-.37-3.07.01-1.02.13-2.03.33-3 .23-.97.5-1.92.9-2.83.23-.57.51-1.12.8-1.65 2.3.06 4.49.22 6.57.47-.14.45-.28.91-.38 1.37-.27 1.08-.4 2.19-.47 3.28-.05 1.1.01 2.19.18 3.25s.44 2.1.89 3.06c-.2-1.03-.19-2.07-.1-3.09.1-1.02.3-2.01.59-2.97.31-.95.67-1.87 1.14-2.74.31-.61.68-1.19 1.06-1.76 2.25.39 4.36.89 6.32 1.53-.32.71-.62 1.42-.86 2.15-.36 1.05-.59 2.15-.75 3.23-.14 1.09-.18 2.18-.1 3.26.08 1.07.26 2.13.62 3.12-.11-1.04-.01-2.08.16-3.08.18-1 .47-1.98.84-2.9.4-.92.83-1.81 1.37-2.63.47-.75 1.01-1.44 1.57-2.11 2.28.95 4.34 2.09 6.19 3.43-.37.44-.72.88-1.04 1.35-.66.9-1.19 1.88-1.67 2.87-.46 1-.81 2.03-1.06 3.08-.24 1.05-.38 2.12-.32 3.17.2-1.03.6-1.99 1.06-2.9.47-.91 1.03-1.75 1.66-2.53.65-.76 1.32-1.49 2.08-2.12.48-.42.99-.78 1.51-1.14.77.69 1.5 1.41 2.19 2.18.99 1.12 1.88 2.34 2.68 3.63-.41.21-.82.43-1.21.68-.96.57-1.84 1.26-2.66 1.97-.81.74-1.55 1.55-2.19 2.41-.63.87-1.19 1.79-1.55 2.78.59-.86 1.34-1.59 2.12-2.24.79-.65 1.64-1.2 2.52-1.67.9-.45 1.8-.84 2.75-1.12.51-.16 1.04-.29 1.56-.4 1.06 2.14 1.9 4.5 2.52 7.06-.54.1-1.07.21-1.6.36-1.08.27-2.12.69-3.11 1.14-.99.48-1.93 1.04-2.78 1.7-.85.65-1.65 1.38-2.27 2.23.81-.66 1.73-1.15 2.67-1.55s1.91-.69 2.89-.89c.99-.17 1.97-.3 2.95-.3.61-.01 1.22.02 1.82.08.35 2.07.59 4.26.69 6.58-.51-.01-1.02-.01-1.53.02-1.11.05-2.21.24-3.28.48-1.07.27-2.1.63-3.07 1.09-.97.47-1.89 1.02-2.68 1.72.93-.48 1.93-.77 2.93-.97s2.01-.28 3.01-.28c1 .03 1.99.11 2.95.31.59.11 1.17.27 1.74.44 0 1.84-.07 3.76-.21 5.76-.53-.06-1.06-.1-1.59-.11-1.11-.05-2.23.05-3.31.19-1.09.17-2.14.45-3.15.82-1.01.38-1.97.85-2.82 1.48.97-.4 1.99-.6 3-.71 1.02-.11 2.03-.11 3.02-.02.99.12 1.97.28 2.91.57.58.16 1.14.37 1.7.59-.07.74-.15 1.48-.24 2.24-.13 1.09-.24 2.14-.31 3.15-.37-.03-.73-.07-1.1-.08-1.11-.05-2.23.05-3.31.19-1.09.17-2.14.45-3.15.82-1.01.38-1.97.85-2.82 1.48.97-.4 1.99-.6 3-.71 1.02-.11 2.03-.11 3.02-.02.99.12 1.97.28 2.91.57.45.12.88.28 1.32.44-.04 1.67.02 3.22.17 4.63-.46.05-.92.11-1.37.19-1.1.18-2.17.51-3.2.88-1.03.4-2 .88-2.91 1.46-.9.58-1.75 1.24-2.45 2.03.87-.59 1.82-1 2.79-1.33.97-.32 1.96-.53 2.95-.65 1-.09 1.98-.14 2.97-.05.57.03 1.13.11 1.69.21.29 1.26.69 2.39 1.18 3.39-.46.32-.9.65-1.32 1.01-.87.7-1.64 1.51-2.36 2.33-.7.85-1.32 1.75-1.82 2.7s-.92 1.94-1.14 2.97c.47-.94 1.1-1.77 1.78-2.52.69-.75 1.45-1.42 2.26-2.01.82-.57 1.66-1.09 2.56-1.5.52-.25 1.05-.46 1.59-.65l.03.03c.92 1.04 2.09 1.89 3.46 2.59-.19.34-.38.68-.54 1.03-.49 1-.85 2.06-1.15 3.11-.28 1.06-.45 2.14-.51 3.22-.06 1.07-.01 2.15.22 3.18.03-1.05.25-2.07.55-3.04.31-.97.72-1.9 1.2-2.77.51-.86 1.05-1.69 1.69-2.44.35-.43.73-.83 1.12-1.22 1.77.58 3.79.99 6.07 1.29-.14.51-.26 1.02-.35 1.53-.22 1.09-.3 2.21-.33 3.3 0 1.1.1 2.19.32 3.24s.53 2.08 1.02 3.02c-.24-1.02-.28-2.06-.24-3.08.05-1.02.21-2.02.46-2.99.27-.96.58-1.9 1.02-2.79.3-.67.68-1.3 1.06-1.93 1.94.16 4.03.25 6.26.3-.06.49-.1.98-.12 1.47-.06 1.11.03 2.23.16 3.31.16 1.09.43 2.15.79 3.16.37 1.01.83 1.98 1.45 2.83-.39-.97-.58-2-.69-3.01-.1-1.02-.09-2.03.01-3.02.13-.99.3-1.97.59-2.91.18-.62.41-1.21.65-1.8.49 0 .98.01 1.48.01 3.31 0 6 2.69 6 6s-2.69 6-6 6c-13.21.04-26.78-.7-34.65-9.59z"/>
  <circle cx="114.49" cy="27.24" r="4"/>
  <path d="m114.49 34.48c-3.99 0-7.24-3.25-7.24-7.24s3.25-7.24 7.24-7.24 7.24 3.25 7.24 7.24-3.25 7.24-7.24 7.24zm0-12.48c-2.89 0-5.24 2.35-5.24 5.24s2.35 5.24 5.24 5.24 5.24-2.35 5.24-5.24-2.35-5.24-5.24-5.24z"/>
  <circle cx="27.24" cy="114.49" r="4"/>
  <path d="m27.24 121.73c-3.99 0-7.24-3.25-7.24-7.24s3.25-7.24 7.24-7.24 7.24 3.25 7.24 7.24-3.25 7.24-7.24 7.24zm0-12.48c-2.89 0-5.24 2.35-5.24 5.24s2.35 5.24 5.24 5.24 5.24-2.35 5.24-5.24-2.35-5.24-5.24-5.24z"/>
</svg>
