<?xml version="1.0" encoding="UTF-8"?>
<svg enable-background="new 0 0 141.73 141.73" version="1.1" viewBox="0 0 141.73 141.73" xmlns="http://www.w3.org/2000/svg">
  <style type="text/css">.st0{fill:#767676;}
	.st1{fill:#909091;}
	.st2{fill:#4E4D4D;}
	.st3{fill:#D1C552;}
	.st4{fill:#F4E783;}
	.st5{fill:#6EA7BD;}
	.st6{fill:#8DD1E7;}
	.st7{fill:#90A99E;}
	.st8{fill:#E94B4D;}</style>
  <g id="KLOCEK_1_">
    <polygon class="st0" points="1.78 14.11 14.07 1.82 128.13 1.82 140.82 14.51 140.82 126.98 128.32 139.48 13.55 139.48 1.99 127.92"/>
    <polygon class="st1" points="17.37 14.14 128.98 125.03 130.1 16.12 124.76 10.5 16.19 11.63"/>
    <path class="st2" d="m125.1 9.51h-108.97l-6.62 6.88v108.71l6.8 7.06h109.14l6.71-7.43.26-108.34-7.32-6.88zm2.54 114.28-4.22 4.22h-105.61l-4.15-4.85.37-105.12 4.31-3.93h105l4.85 3.93-.55 105.75z"/>
    <polygon class="st1" points="12.76 2.19 13.66 3.41 16.19 9.23 123.93 9.51 127.59 11.31 132.17 16.16 132.3 69.68 138.13 12.76 128.13 1.82"/>
    <rect class="st3" x="37.93" y="42.39" width="67" height="57.35"/>
    <polygon class="st4" points="40.76 42.39 44.59 46.19 101.13 46.19 101.13 46.02 101.66 46.02 101.66 46.19 101.78 46.19 101.78 46.55 101.66 46.55 101.66 69.84 101.55 69.84 101.55 69.9 68.45 69.9 98.48 99.74 104.93 99.74 104.93 42.39"/>
    <path class="st4" d="m65.65 70.05h-3.5c.72.77 1.46 1.55 2.23 2.34 11.68 12.09 26.13 22.56 26.13 22.56l-24.86-24.9z"/>
    <rect class="st5" x="41.78" y="46.19" width="59.35" height="23.85"/>
    <polygon class="st6" points="68.03 69.49 101.13 69.49 101.13 46.55 44.94 46.55"/>
    <path class="st6" d="m65.3 69.69-18.13-18.16s4.72 7.49 14.65 18.16h3.48z"/>
    <circle class="st7" cx="45.19" cy="92.84" r="2.9"/>
    <circle class="st7" cx="55.91" cy="92.84" r="2.9"/>
    <circle class="st8" cx="66.7" cy="92.92" r="2.98"/>
  </g>
  <g id="KLOCEK">
    <path d="m129.3 0h-116.87c-4.86 4.85-7.58 7.57-12.43 12.43v116.87l12.43 12.43h116.87l12.43-12.43v-116.87c-4.85-4.86-7.57-7.58-12.43-12.43zm8.43 127.65-10.08 10.08h-113.57l-10.08-10.08v-113.57l10.08-10.08h113.56l10.08 10.08v113.57z"/>
    <path d="m15.95 8.5-7.45 7.45v109.83l7.45 7.45h109.83l7.45-7.45v-109.83l-7.45-7.45h-109.83zm107.98 2-1.06 2.25h-104.09l-.89-2.25h106.04zm2.98 7.97c.01.01 0 .03.01.04.02.04.04.07.06.1v104.58l-3.78 3.78h-104.66l-3.78-3.78v-104.65l3.78-3.78h104.65l3.72 3.71zm-110.87-7.22.9 2.28-3.49 3.49-2.3-.88 4.89-4.89zm-5.54 6.79 2.25.86v103.88l-2.25 1v-105.74zm5.48 112.39-4.77-4.77 2.2-.98 3.47 3.47-.9 2.28zm1.83.8.9-2.25h104.19l.95 2.25h-106.04zm107.9-.76-.95-2.24 3.5-3.5 2.26.93-4.81 4.81zm5.52-6.68-2.25-.92v-104.12l2.25-.93v105.97zm-3.05-106.88-3.44-3.44 1.02-2.16 4.68 4.68-2.26.92z"/>
    <path d="m40.92 70.88h61.64v-25.6h-61.64v25.6zm2-23.6h57.64v21.61h-57.64v-21.61z"/>
    <path d="m56.02 88.5c-2.33 0-4.22 1.89-4.22 4.22s1.89 4.22 4.22 4.22 4.22-1.89 4.22-4.22c0-2.32-1.89-4.22-4.22-4.22zm0 6.45c-1.22 0-2.22-1-2.22-2.22s1-2.22 2.22-2.22 2.22 1 2.22 2.22-1 2.22-2.22 2.22z"/>
    <path d="m45.14 88.5c-2.33 0-4.22 1.89-4.22 4.22s1.89 4.22 4.22 4.22 4.22-1.89 4.22-4.22c0-2.32-1.89-4.22-4.22-4.22zm0 6.45c-1.22 0-2.22-1-2.22-2.22s1-2.22 2.22-2.22 2.22 1 2.22 2.22-.99 2.22-2.22 2.22z"/>
    <path d="m66.89 88.5c-2.33 0-4.22 1.89-4.22 4.22s1.89 4.22 4.22 4.22 4.22-1.89 4.22-4.22c0-2.32-1.89-4.22-4.22-4.22zm0 6.45c-1.22 0-2.22-1-2.22-2.22s1-2.22 2.22-2.22 2.22 1 2.22 2.22-.99 2.22-2.22 2.22z"/>
    <path d="m46.6 106.59 1.05-6.09h2.93l1.05 6.09 1.05-6.09h2.93l1.05 6.09 1.05-6.09h2.93l1.05 6.09 1.05-6.09h2.93l1.05 6.09 1.05-6.09h2.93l1.05 6.09 1.05-6.09h33.46v-9.11l6.09-1.05-6.09-1.05v-2.93l6.09-1.05-6.09-1.05v-2.93l6.09-1.05-6.09-1.05v-38.05h-5.22l-1.09-6.32-1.09 6.32h-2.86l-1.09-6.32-1.09 6.32h-2.85l-1.09-6.32-1.09 6.32h-2.85l-1.09-6.32-1.09 6.32h-2.85l-1.09-6.32-1.09 6.32h-2.85l-1.09-6.32-1.09 6.32h-36.47v59.32h8.31l1.06 6.09zm-7.37-63.41h65.01v55.32h-65.01v-55.32z"/>
  </g>
</svg>
