<?xml version="1.0" encoding="UTF-8"?>
<svg id="KLOCEK_1_" enable-background="new 0 0 141.73 141.73" version="1.1" viewBox="0 0 141.73 141.73" xmlns="http://www.w3.org/2000/svg">
  <style type="text/css">.st0{fill:#767676;}
	.st1{fill:#909091;}
	.st2{fill:#4E4D4D;}</style>
  <polygon class="st0" points="1.78 14.11 14.07 1.82 128.13 1.82 140.82 14.51 140.82 126.98 128.32 139.48 13.55 139.48 1.99 127.92"/>
  <polygon class="st1" points="17.37 14.14 128.98 125.03 130.1 16.12 124.76 10.5 16.19 11.63"/>
  <path class="st2" d="m125.1 9.51h-108.97l-6.62 6.88v108.71l6.8 7.06h109.14l6.71-7.43.26-108.34-7.32-6.88zm2.54 114.28-4.22 4.22h-105.61l-4.15-4.85.37-105.12 4.31-3.93h105l4.85 3.93-.55 105.75z"/>
  <polygon class="st1" points="12.76 2.19 13.66 3.41 16.19 9.23 123.93 9.51 127.59 11.31 132.17 16.16 132.3 69.68 138.13 12.76 128.13 1.82"/>
  <path class="st1" d="m37.43 40.25 62.82 62.94s-20.94-15.18-37.88-32.71-24.94-30.23-24.94-30.23z"/>
  <path d="m129.3 0h-116.87c-4.86 4.85-7.58 7.57-12.43 12.43v116.87l12.43 12.43h116.87l12.43-12.43v-116.87c-4.85-4.86-7.57-7.58-12.43-12.43zm8.43 127.65-10.08 10.08h-113.57l-10.08-10.08v-113.57l10.08-10.08h113.56l10.08 10.08v113.57z"/>
  <path d="m15.95 8.5-7.45 7.45v109.83l7.45 7.45h109.83l7.45-7.45v-109.83l-7.45-7.45h-109.83zm114.49 7.49-2.26.93-3.44-3.44 1.02-2.16 4.68 4.67zm.79 107.8-2.25-.92v-104.12l2.25-.93v105.97zm-5.52 6.68-.95-2.24 3.5-3.5 2.26.93-4.81 4.81zm-114.5-4.81 2.2-.98 3.47 3.47-.91 2.27-4.76-4.76zm-.71-107.62 2.25.86v103.88l-2.25 1v-105.74zm5.54-6.79.9 2.28-3.49 3.49-2.3-.88 4.89-4.89zm110.87 7.22c.01.01 0 .03.01.04.02.04.04.07.06.1v104.58l-3.78 3.78h-104.66l-3.78-3.78v-104.65l3.78-3.78h104.65l3.72 3.71zm-4.05-5.71h-104.08l-.89-2.25h106.03l-1.06 2.25zm-104.15 116.22h104.19l.95 2.25h-106.04l.9-2.25z"/>
  <circle cx="114.49" cy="27.24" r="4"/>
  <path d="m114.49 34.48c-3.99 0-7.24-3.25-7.24-7.24s3.25-7.24 7.24-7.24 7.24 3.25 7.24 7.24-3.25 7.24-7.24 7.24zm0-12.48c-2.89 0-5.24 2.35-5.24 5.24s2.35 5.24 5.24 5.24 5.24-2.35 5.24-5.24-2.35-5.24-5.24-5.24z"/>
  <circle cx="27.24" cy="114.49" r="4"/>
  <path d="m27.24 121.73c-3.99 0-7.24-3.25-7.24-7.24s3.25-7.24 7.24-7.24 7.24 3.25 7.24 7.24-3.25 7.24-7.24 7.24zm0-12.48c-2.89 0-5.24 2.35-5.24 5.24s2.35 5.24 5.24 5.24 5.24-2.35 5.24-5.24-2.35-5.24-5.24-5.24z"/>
  <circle cx="114.49" cy="114.49" r="4"/>
  <path d="m107.25 114.49c0-3.99 3.25-7.24 7.24-7.24s7.24 3.25 7.24 7.24-3.25 7.24-7.24 7.24-7.24-3.25-7.24-7.24zm12.48 0c0-2.89-2.35-5.24-5.24-5.24s-5.24 2.35-5.24 5.24 2.35 5.24 5.24 5.24 5.24-2.35 5.24-5.24z"/>
  <circle cx="27.24" cy="27.24" r="4"/>
  <path d="m20 27.24c0-3.99 3.25-7.24 7.24-7.24s7.24 3.25 7.24 7.24-3.25 7.24-7.24 7.24-7.24-3.25-7.24-7.24zm12.48 0c0-2.89-2.35-5.24-5.24-5.24s-5.24 2.35-5.24 5.24 2.35 5.24 5.24 5.24 5.24-2.35 5.24-5.24z"/>
</svg>
