<?xml version="1.0" encoding="UTF-8"?>
<svg enable-background="new 0 0 340.16 340.16" version="1.1" viewBox="0 0 340.16 340.16" xmlns="http://www.w3.org/2000/svg">
  <style type="text/css">.st0{fill:#767676;}
	.st1{fill:#909091;}
	.st2{fill:#4E4D4D;}
	.st3{fill:#D1C552;}</style>
  <g id="door_frame">
    <polygon class="st0" points="250.52 30.29 89.76 30.29 53.58 191.41 35.76 191.41 6.46 326.93 334.17 326.93 303.99 191.58 286.7 191.58"/>
    <polygon class="st1" points="252.64 39.73 248.99 30.76 90.17 31.35 99.11 48.17 240.64 48.17 290.41 270.41"/>
    <path class="st1" d="m286.7 191.58 3.27 12.96s41.53 110.39 41.45 110.05c-.07-.34-27.22-122.09-27.22-122.09z"/>
    <polygon class="st1" points="25.97 312.88 52.64 191.41 35.58 192.24"/>
    <polygon class="st2" points="31.35 320.23 34.88 320.23 68.76 181.02 39.31 326.93 6.46 326.93 19.88 259.37 13.7 320.23 25.97 320.23 33.29 283.52"/>
    <polygon class="st2" points="320.76 319.35 331.75 319.35 334.17 326.93 300.52 326.93 286.7 256.76 307.35 319.35 314.19 319.35 304.52 271.82"/>
    <path d="m336.2 326.72-30.24-135.57c-.2-.91-1.02-1.56-1.95-1.56h-15.96l-35.47-159.06c-.2-.91-1.02-1.56-1.95-1.56h-161.1c-.18 0-.35.03-.51.07-.18.04-.37.09-.54.18-.75.4-1.14 1.2-1.05 1.99l-35.32 158.38h-15.96c-.94 0-1.75.65-1.95 1.56l-30.24 135.57c-.13.59.01 1.21.39 1.69s.95.75 1.56.75h328.33c.61 0 1.18-.28 1.56-.75s.53-1.1.4-1.69zm-95.53-281.08h-141.24l-6.71-12.67h154.1zm-218.8 279.52h-13.46l29.34-131.57h13.46l-25.86 115.98zm5.99-8.48 62.4-279.8 5.82 11-58.5 277.28h-11.61zm274.71 8.48-58.51-277.34 5.67-11.69 34.77 155.9 29.7 133.13zm15.72 0-15.33-68.74-14.01-62.83h13.46l29.35 131.57z"/>
  </g>
  <g id="doors">
    <g transform="translate(324.18,-1.84)">
      <polygon class="st0" points="182.71 152.22 182.71 178.88 157.45 195.92 157.45 222.58 182.71 239.61 182.71 266.27 157.45 283.31 157.45 327 39.4 327 98.31 47.8 182.71 47.8 182.71 91.49 157.45 108.53 157.45 135.19"/>
      <polygon class="st2" points="175.65 155.22 175.65 175.88 150.39 192.92 150.39 225.58 175.65 242.61 175.65 263.27 150.39 280.31 150.39 327 157.45 327 157.45 283.31 182.71 266.27 182.71 239.61 157.45 222.58 157.45 195.92 182.71 178.88 182.71 152.22 157.45 135.19 157.45 108.53 182.71 91.49 182.71 47.8 175.65 47.8 175.65 88.49 150.39 105.53 150.39 138.19"/>
      <polygon class="st2" points="95.23 61.35 54.64 314.76 152.76 318.99 152.76 327 39.4 327"/>
      <path d="m157.45 329h-118.05c-.6 0-1.17-.27-1.55-.74s-.53-1.08-.4-1.67l58.91-279.2c.2-.92 1.01-1.59 1.96-1.59h84.4c1.1 0 2 .9 2 2v43.69c0 .67-.33 1.29-.88 1.66l-24.38 16.45v24.53l24.38 16.44c.55.37.88.99.88 1.66v26.66c0 .67-.33 1.29-.88 1.66l-24.38 16.45v24.53l24.38 16.43c.55.37.88.99.88 1.66v26.66c0 .67-.33 1.29-.88 1.66l-24.38 16.45v42.61c-.01 1.1-.91 2-2.01 2zm-115.59-4h113.58v-41.69c0-.67.33-1.29.88-1.66l24.38-16.45v-24.53l-24.38-16.43c-.55-.37-.88-.99-.88-1.66v-26.66c0-.67.33-1.29.88-1.66l24.38-16.45v-24.53l-24.38-16.44c-.55-.37-.88-.99-.88-1.66v-26.66c0-.67.33-1.29.88-1.66l24.38-16.45v-40.61h-80.77z"/>
      <polygon class="st3" points="67.51 293.23 59.51 312.88 54.94 312.88 56.44 303.55 60.64 293.23"/>
      <polygon class="st3" points="65.42 312.88 72.29 312.88 80.29 293.23 73.42 293.23"/>
      <polygon class="st3" points="78.2 312.88 85.07 312.88 93.07 293.23 86.2 293.23"/>
      <polygon class="st3" points="90.98 312.88 97.85 312.88 105.85 293.23 98.98 293.23"/>
      <polygon class="st3" points="103.76 312.88 110.63 312.88 118.63 293.23 111.76 293.23"/>
      <polygon class="st3" points="116.54 312.88 123.4 312.88 131.41 293.23 124.54 293.23"/>
      <polygon class="st3" points="129.32 312.88 136.18 312.88 144.18 293.23 137.32 293.23"/>
      <polygon class="st3" points="150.39 293.23 150.39 309.39 148.97 312.88 142.1 312.88 150.1 293.23"/>
    </g>
    <g transform="translate(374.55 -1.84)">
      <polygon class="st0" points="157.45 283.31 182.71 266.27 182.71 239.61 157.45 222.58 157.45 195.92 182.71 178.88 182.71 152.22 157.45 135.19 157.45 108.53 182.71 91.49 182.71 47.8 241.85 47.8 300.76 327 157.45 327"/>
      <polygon class="st1" points="183.18 151.22 183.18 179.88 157.92 196.92 157.92 221.58 183.18 238.61 183.18 266.71 157.92 283.75 157.92 327 164.98 327 164.98 286.75 190.24 269.71 190.24 235.61 164.98 218.58 164.98 199.92 190.24 182.88 190.24 148.22 164.98 131.19 164.98 112.53 190.24 95.49 190.24 47.8 183.18 47.8 183.18 92.49 157.92 109.53 157.92 134.19"/>
      <polygon class="st2" points="244.88 65.76 300.76 327 171.99 326.05 287.93 317.05"/>
      <path d="m300.76 329h-143.31c-1.1 0-2-.9-2-2v-43.69c0-.67.33-1.29.88-1.66l24.38-16.45v-24.53l-24.38-16.43c-.55-.37-.88-.99-.88-1.66v-26.66c0-.67.33-1.29.88-1.66l24.38-16.45v-24.53l-24.38-16.44c-.55-.37-.88-.99-.88-1.66v-26.66c0-.67.33-1.29.88-1.66l24.38-16.45v-42.61c0-1.1.9-2 2-2h59.14c.95 0 1.76.66 1.96 1.59l58.91 279.2c.12.59-.02 1.21-.4 1.67-.39.47-.96.74-1.56.74zm-141.31-4h138.84l-58.07-275.2h-55.52v41.69c0 .67-.33 1.29-.88 1.66l-24.38 16.45v24.53l24.38 16.44c.55.37.88.99.88 1.66v26.66c0 .67-.33 1.29-.88 1.66l-24.38 16.45v24.53l24.38 16.43c.55.37.88.99.88 1.66v26.66c0 .67-.33 1.29-.88 1.66l-24.38 16.45v40.61z"/>
      <polygon class="st3" points="169.75 293.23 164.98 304.94 164.98 293.23"/>
      <polygon class="st3" points="167.66 312.88 174.52 312.88 182.52 293.23 175.66 293.23"/>
      <polygon class="st3" points="180.43 312.88 187.3 312.88 195.3 293.23 188.44 293.23"/>
      <polygon class="st3" points="193.21 312.88 200.08 312.88 208.08 293.23 201.21 293.23"/>
      <polygon class="st3" points="205.99 312.88 212.86 312.88 220.86 293.23 213.99 293.23"/>
      <polygon class="st3" points="218.77 312.88 225.64 312.88 233.64 293.23 226.77 293.23"/>
      <polygon class="st3" points="231.55 312.88 238.42 312.88 246.42 293.23 239.55 293.23"/>
      <polygon class="st3" points="244.33 312.88 251.2 312.88 259.2 293.23 252.33 293.23"/>
      <polygon class="st3" points="257.11 312.88 263.98 312.88 271.98 293.23 265.11 293.23"/>
      <polygon class="st3" points="284.12 294.79 276.76 312.88 269.89 312.88 277.89 293.23 283.86 293.23"/>
      <polygon class="st3" points="287.22 312.88 282.67 312.88 285.87 305.01"/>
    </g>
  </g>
  <g id="door_mask">
    <path d="m699.31 327.16h261.74l1.6308-4-59.023-279.52h-146.99l-.47266 2.2402-58.5 277.28z" fill-opacity="0"/>
    <path d="m701.86 322.76c.0475.68817.86079.30193 1.3328.40039h255.18c.33066-.66002-.19087-1.3666-.21975-2.0552-19.248-91.155-38.495-182.31-57.743-273.46h-140.51c-19.348 91.706-38.697 183.41-58.045 275.12z"/>
  </g>
</svg>
