<?xml version="1.0" encoding="UTF-8"?>
<svg id="LAMPKA" width="85.04" height="85.04" enable-background="new 0 0 85.04 85.04" version="1.1" viewBox="0 0 85.04 85.04" xmlns="http://www.w3.org/2000/svg">
  <style type="text/css">#g22 .st0{fill:#E94B4D;}
#g22 .st1{fill:#C22330;}
#g22 .st2{fill:#767676;}
#g22 .st3{fill:#4E4D4D;}
#g22 .st4{fill:#F18B8E;}</style>
  <g transform="translate(.2143 -21.12)">
    <path class="st0" d="m24.76 43.46s4.93-11.91 17.34-11.91 18.31 11.91 18.31 11.91z"/>
    <path class="st1" d="m29.79 43.2c2.12-3.79 7.24-10.01 18.53-10.08l-7.59-2.19-10.94 4.06-5.65 8.47z"/>
    <polygon class="st2" points="74.79 53.79 70.61 43.2 14.08 43.67 10.61 53.79"/>
    <polygon class="st3" points="31.86 44.61 29.7 50.39 72.71 50.39 73.99 52.99 10.2 53.57 14.48 44.08"/>
    <path d="m77.11 53.18-4-10.06c-.3-.76-1.04-1.26-1.86-1.26h-8.73c-3.9-7.78-11.61-12.74-20-12.74s-16.1 4.96-20 12.74h-8.73c-.82 0-1.56.5-1.86 1.26l-4 10.06c-.25.62-.17 1.31.2 1.86s.99.88 1.65.88h65.47c.66 0 1.28-.33 1.66-.88.37-.55.45-1.25.2-1.86zm-34.59-20.06c6.21 0 11.99 3.35 15.42 8.74h-30.84c3.43-5.39 9.21-8.74 15.42-8.74zm-15.37 18.8 1.7-4.2c.04-.13.02-.26-.06-.37s-.2-.17-.33-.17h-1.03c-.18 0-.34.12-.41.32l-1.75 4.41h-2.86l1.7-4.2c.04-.13.02-.26-.06-.37s-.2-.17-.33-.17h-1.03c-.18 0-.34.12-.41.32l-1.75 4.41h-2.89l1.7-4.2c.04-.13.02-.26-.06-.37s-.2-.17-.33-.17h-1.03c-.18 0-.34.12-.41.32l-1.75 4.41h-3.03l2.41-6.06h54.75l2.41 6.06h-45.15z"/>
    <path class="st4" d="m46.89 36.61c.31-.09.63-.17.95-.24l1.56-.33c-.28-.21-.56-.41-.84-.58-.77.13-1.53.28-2.28.47.14.13.28.27.42.42.06.09.12.17.19.26z"/>
    <path class="st4" d="m51.89 38.48c-.5-.62-1.01-1.16-1.51-1.62-.72.13-1.42.28-2.13.44-.27.06-.53.12-.8.18.26.49.44.99.57 1.44 1.29-.17 2.58-.31 3.87-.44z"/>
    <path class="st4" d="m48.23 39.9c.09.63.08 1.05.08 1.05h5.29c-.33-.56-.67-1.06-1.01-1.53-1.45.13-2.91.29-4.36.48z"/>
    <path class="st4" d="m47.11 34.73c-1.64-.65-3.07-.65-4.04-.45 0 0 1.06.15 2.23.88.6-.16 1.2-.3 1.81-.43z"/>
  </g>
  <style type="text/css">.st0{fill:#5CB354;}
	.st1{fill:#508E4A;}
	.st2{fill:#767676;}
	.st3{fill:#4E4D4D;}
	.st4{fill:#A5CC73;}</style>
  <g transform="translate(.2143 21.4)">
    <path class="st0" d="m24.76 43.46s4.93-11.91 17.34-11.91 18.31 11.91 18.31 11.91z"/>
    <path class="st1" d="m29.79 43.2c2.12-3.79 7.24-10.01 18.53-10.08l-7.59-2.19-10.94 4.06-5.65 8.47z"/>
    <polygon class="st2" points="70.61 43.2 14.08 43.67 10.61 53.79 74.79 53.79"/>
    <polygon class="st3" points="14.48 44.08 31.86 44.61 29.7 50.39 72.71 50.39 73.99 52.99 10.2 53.57"/>
    <path d="m77.11 53.18-4-10.06c-.3-.76-1.04-1.26-1.86-1.26h-8.73c-3.9-7.78-11.61-12.74-20-12.74s-16.1 4.96-20 12.74h-8.73c-.82 0-1.56.5-1.86 1.26l-4 10.06c-.25.62-.17 1.31.2 1.86s.99.88 1.65.88h65.47c.66 0 1.28-.33 1.66-.88.37-.55.45-1.25.2-1.86zm-34.59-20.06c6.21 0 11.99 3.35 15.42 8.74h-30.84c3.43-5.39 9.21-8.74 15.42-8.74zm-15.37 18.8 1.7-4.2c.04-.13.02-.26-.06-.37s-.2-.17-.33-.17h-1.03c-.18 0-.34.12-.41.32l-1.75 4.41h-2.86l1.7-4.2c.04-.13.02-.26-.06-.37s-.2-.17-.33-.17h-1.03c-.18 0-.34.12-.41.32l-1.75 4.41h-2.89l1.7-4.2c.04-.13.02-.26-.06-.37s-.2-.17-.33-.17h-1.03c-.18 0-.34.12-.41.32l-1.75 4.41h-3.03l2.41-6.06h54.75l2.41 6.06h-45.15z"/>
    <path class="st4" d="m46.89 36.61c.31-.09.63-.17.95-.24l1.56-.33c-.28-.21-.56-.41-.84-.58-.77.13-1.53.28-2.28.47.14.13.28.27.42.42.06.09.12.17.19.26z"/>
    <path class="st4" d="m51.89 38.48c-.5-.62-1.01-1.16-1.51-1.62-.72.13-1.42.28-2.13.44-.27.06-.53.12-.8.18.26.49.44.99.57 1.44 1.29-.17 2.58-.31 3.87-.44z"/>
    <path class="st4" d="m48.23 39.9c.09.63.08 1.05.08 1.05h5.29c-.33-.56-.67-1.06-1.01-1.53-1.45.13-2.91.29-4.36.48z"/>
    <path class="st4" d="m47.11 34.73c-1.64-.65-3.07-.65-4.04-.45 0 0 1.06.15 2.23.88.6-.16 1.2-.3 1.81-.43z"/>
  </g>
</svg>
