<?xml version="1.0" encoding="UTF-8"?>
<svg width="180" height="200" version="1.1" viewBox="0 0 180 200" xmlns="http://www.w3.org/2000/svg">
  <style type="text/css">.st0{fill:#E94B4D;}
	.st1{fill:#F18B8E;}
	.st2{fill:#C22330;}
	.st3{fill:#4E4D4D;}
	.st4{fill:#767676;}</style>
  <g id="SMIGLO" transform="translate(-51.909 -59.066)">
    <circle cx="143.1" cy="81.5" r="5.12"/>
    <path d="m135.18 81.5c0 .3-.68.67-1.9 1.09-.07.02-.14.05-.21.07-4.85 1.35-62.93-.03-63.28.49-.35.53 1.15 6.53 2.21 7s45.15-3.88 45.15-3.88c-18.37 3.48-44.42 7.3-46.24 7.3-2.83 0-6.12-9.24-6.12-12.07 0-2.82 2.29-5.12 5.12-5.12s65.27 2.3 65.27 5.12z"/>
    <path d="m151.01 81.5c0-.3.68-.67 1.9-1.09.07-.02.14-.05.21-.07 4.85-1.35 62.93.03 63.28-.49.35-.53-1.15-6.53-2.21-7s-45.15 3.88-45.15 3.88c18.37-3.48 44.42-7.3 46.24-7.3 2.83 0 6.12 9.24 6.12 12.07 0 2.82-2.29 5.12-5.12 5.12s-65.27-2.3-65.27-5.12z"/>
    <ellipse transform="matrix(.9776 -.2106 .2106 .9776 -16.883 24.465)" cx="106.4" cy="91.49" rx="20.3" ry=".62"/>
    <ellipse transform="matrix(.9776 -.2106 .2106 .9776 -11.029 39.473)" cx="179.78" cy="71.51" rx="20.3" ry=".62"/>
  </g>
  <g transform="translate(-.77815 -.86529)">
    <path class="st0" d="m101.4 141.2c-29.73 0-54.603-6.9296-54.863-6.9696-.22-.03-.25244-4.7544-.47-.39-.12521-17.246.24304-23.4.24304-23.4l1.38-24.57-.91-.39c-.5-.21-.95-.5-1.33-.86-.99-.91-1.55-2.21-1.54-3.55l.14-14.91c0-3.08 2.5-5.58 5.58-5.58h25.94l.42-.62c3.35-4.92 9.17-7.85 15.56-7.85s12.2 2.94 15.55 7.85l.42.62h25c3.08 0 5.58 5.58 5.58 5.58l2.06 71.65s-.23.41-.47.45c-10.74 1.95-23.63 2.94-38.29 2.94z"/>
    <path class="st1" d="m59.405 62.571c-6.47-.12-9.76 2-9.76 4.12v12c0 1.41 2.71 1.41 8.35.82s36.94-2.71 54 1.88l-38 1.53-20.12 1.76-5.0531 45.709-1.6469 6.1606.53-50.7-3.7-3.89v-18.11l2.82-2.52z"/>
    <path class="st2" d="m47.175 136.55c38.706 5.7647 74.29 4.49 74.29 4.49l17.83-2.65-1.68-72.91-1.83-3.85-4.87-1.05-36.98 2.26c11.91.71 36.79 2.91 37.59 3.79.79.88-.26176 63.972-.26176 64.592s.27795 6.5642-43.675 5.0741"/>
    <polygon class="st1" transform="translate(-51.475 -39.459)" points="163.85 142.03 179.38 140.74 179.97 159.21 164.91 160.85"/>
    <polygon class="st1" transform="translate(-51.475 -39.459)" points="161.03 157.71 165.71 158.06 165.71 156.38"/>
    <polygon class="st1" transform="translate(-51.475 -39.459)" points="160.74 152.44 165.41 152.8 165.41 151.12"/>
    <polygon class="st1" transform="translate(-51.475 -39.459)" points="160.74 146.94 165.41 147.3 165.41 145.62"/>
    <polygon class="st1" transform="translate(-51.475 -39.459)" points="167.32 136.55 172.63 136.72 171.99 135.23"/>
    <polygon class="st0" transform="translate(-51.475 -39.459)" points="175.47 145.47 180.15 145.82 180.15 144.15"/>
    <polygon class="st0" transform="translate(-51.475 -39.459)" points="175.47 151.6 180.15 151.96 180.15 150.28"/>
    <polygon class="st0" transform="translate(-51.475 -39.459)" points="175.76 156.66 180.44 157.02 180.44 155.34"/>
    <polygon class="st1" transform="translate(-51.475 -39.459)" points="179 131.74 179.41 139.09 170.29 139.44 170.29 132.38"/>
    <polygon class="st0" transform="translate(-51.475 -39.459)" points="175.47 136.07 180.15 136.43 180.15 134.75"/>
    <polygon class="st0" transform="translate(-51.475 -39.459)" points="174.41 158.38 167.53 157.68 165.71 144.74 166.47 159.09"/>
    <polygon class="st0" transform="translate(-51.475 -39.459)" points="177.81 138.21 171.73 137.61 171.06 133.27 171.09 138.47"/>
    <path class="st3" d="m75.315 61.351c.18-.25 32.03 0 32.03 0s-6.93-8.66-15.79-8.48-16.24 8.48-16.24 8.48z"/>
    <path class="st4" d="m94.855 54.381c.68-.21 1.37-.4 2.07-.58-1.67-.6-3.47-.98-5.36-.94-8.86.18-16.24 8.48-16.24 8.48.05-.08 3.12-.11 7.32-.11 3.09-3.48 7.92-5.52 12.21-6.85z"/>
    <path transform="translate(.48303 4.4068)" d="m91.072 46.285c-6.85 0-13.15 3.2188-16.73 8.4688h-25.189c-3.86 0-7 3.1405-7 6.9805l-.14062 14.91c-.02 1.75.71 3.4294 2 4.6094.52.47 1.1005.85109 1.7305 1.1211l-1.2402 48.139 4.1078-.33478 1.1226-47.415c1.38-.13 4.6191-.41992 4.6191-.41992l21.42-1.5487 2.0996-.10938 2.5704-.1406 5.041-.2207 23.889-.1093 1.9609.08984 3.3691.2207s2.0706.16953 3.0606.26953c1.11.12 2.0792-.69125 2.1992-1.7812.11-1.1-.6793-2.0792-1.7793-2.1992-20.85-2.17-55.761.72031-69.811 2.0703-.14.01-.28969.01-.42969 0h-.02933c-.45-.05-.86094-.24078-1.2109-.55078-.46-.42-.70922-.99891-.69922-1.6289l.16016-14.951c0-1.65 1.35-3 3-3h82.879c1.65 0 3 1.351 3 3.041l.96245 71.92c-10.471.70588-28.099 2.1101-87.393-3.537l-4.1078.33478c.2123 1.2469.40369 2.5008 1.5325 3.4423 52.671 3.5693 69.263 5.2369 89.777 3.62 2.0029-.73864 3.8515-1.6626 4.3098-4.2547l-1.0801-71.566c0-3.86-3.14-7-7-7h-24.24c-3.58-5.25-9.8785-8.4688-16.729-8.4688zm.0098 4c4.45 0 8.5895 1.6488 11.52 4.4688h-23.039c2.92-2.82 7.0695-4.4688 11.52-4.4688z"/>
  </g>
  <g transform="translate(-.63218 42.62)">
    <path class="st0" d="m101.4 149.2c-29.73 0-56.3-4.01-56.56-4.05-.22-.03-.4-.18-.47-.39-3.57-10.87-4.64-33.1-4.68-34.04-.01-.16.05-.32.16-.43s.27-.18.45-.18c1.3.02 2.85.09 4.57.22l1.44.11 52.8 10.19 1.2917 11.161 38.798-4.2711 1.93-.46c.01 0 .05-.01.1-.01.12 0 .25.04.35.12.14.1.22.26.23.44.42 8.5-1.57 17.81-1.65 18.2-.05.23-.23.41-.47.45-10.74 1.95-23.63 2.94-38.29 2.94z"/>
    <path class="st1" d="m41.115 116.16s11.65 1.06 14.94 1.59c0 0 4.18 15 5.47 16.41l.53-15.53s10.18 1.71 13.88 2.47l4.24 14.76 1.29-13.82s12.82 2.35 15.12 3.06l2.06 11.24.47-15.71-42.49-8.58-15.51-1.42z"/>
    <path class="st2" d="m44.345 139.78s49.24 6.44 81.44 3.09c0 0-3.53-8.91 4.5-9.44v-3l10.41-1.85-1.41 17.76-41.65 2.09-33.88-1.8-19.41-2.43z"/>
    <circle cx="130.77" cy="138.42" r="3"/>
    <path d="m136.6 126.59c-6.66 1.31-20.42 3.56-34.48 3.02v-9.15c0-.94-.65-1.75-1.56-1.95-1.5-.34-32.02-7.14-51.59-9.22l-3.99-.37c-1.7-.13-3.27-.21-4.69-.23-.55 0-1.08.21-1.46.61s-.59.93-.56 1.48c.04.95 1.11 23.34 4.75 34.41.24.72.85 1.24 1.6 1.35.38.06 27.13 4.07 56.77 4.07 12.95 0 26.45-.76 38.55-2.96.8-.14 1.43-.76 1.6-1.55.09-.39 2.12-9.92 1.69-18.56-.03-.6-.33-1.15-.8-1.51-.48-.36-1.09-.48-1.67-.34m-2.87 18.27c-35.7 6.1-83.2-.04-91.43-1.19-2.58-8.88-3.73-24.34-4.07-30.01 4.47.22 10.21.92 16.33 1.85.15 3.46.66 12.47 2.12 20.27.18.96 1.02 1.63 1.96 1.63.12 0 .25-.01.37-.03 1.09-.2 1.8-1.25 1.6-2.33-1.29-6.93-1.82-15.08-2.02-18.9 5.32.86 10.77 1.85 15.8 2.82.16 3.01.67 12.26 1.14 18.26.08 1.05.96 1.84 1.99 1.84.05 0 .11 0 .16-.01 1.1-.09 1.92-1.05 1.84-2.15-.43-5.39-.88-13.46-1.08-17.16 7.07 1.4 12.87 2.64 15.52 3.22v14.86c0 1.1.9 2 2 2s2-.9 2-2v-3.32c16.06.61 31.37-2.24 37.17-3.48-.02 5.61-.94 11.32-1.4 13.83z"/>
  </g>
  <path d="m74.914 83.425-10.611 4.9922-11.539-3.9356c-3.1222.89209-3.7901 2.3408-1.1113 4.5527l6.7422 2.1641-7.2441 3.4082c-.54869 1.5283-1.1839 3.0764 1.8613 3.7637l11.57-5.1875 11.605 3.7246c2.9503-1.0205 2.1463-2.4891 1.4316-3.9473l-7.1211-2.4297 6.0254-2.7012c2.4172-2.4952 1.5925-3.8637-1.6094-4.4043z"/>
  <path d="m111.05 84.467-11.156 3.6155-10.951-5.358c-3.2097.49161-4.0548 1.8446-1.6761 4.3764l6.4158 2.9963-7.6158 2.4684c-.73688 1.447-1.5621 2.9027 1.3723 3.9682l12.132-3.6884 11.044 5.1571c3.0554-.64066 2.4428-2.1989 1.9176-3.7354l-6.7582-3.3075 6.3177-1.9205c2.7123-2.1708 2.0665-3.6322-1.0417-4.572z"/>
</svg>
