<?xml version="1.0" encoding="UTF-8"?>
<svg id="KLOCEK_1_" enable-background="new 0 0 141.73 85.04" version="1.1" viewBox="0 0 141.73 85.04" xmlns="http://www.w3.org/2000/svg">
  <style type="text/css">.st0{fill:#767676;}
	.st1{fill:#909091;}</style>
  <path class="st0" d="m26.943 63.2c-.18-.35 12-44.44 12-44.44l10.94 44.09z" fill="#ccc"/>
  <path class="st1" d="m49.883 62.85-8.1565.006c-.18-.34998-3.1835-43.406-3.1835-43.406z" fill="#f2f2f2"/>
  <g transform="translate(-23.667 2.7203)">
    <path d="m52.98 58.98 9.23-40.903 9.23 40.903zm22.85 1.61-13.62-55.655-13.63 55.655c-.12.59.04 1.2.42 1.66s.95.73 1.55.73h23.32c.6 0 1.17-.27 1.55-.73s.53-1.07.41-1.66z"/>
  </g>
  <path class="st0" d="m60.947 63.2c-.18-.35 12-44.44 12-44.44l10.94 44.09z" fill="#ccc"/>
  <path class="st1" d="m83.887 62.85-8.1565.006c-.18-.34998-3.1835-43.406-3.1835-43.406z" fill="#f2f2f2"/>
  <path d="m63.317 61.7 9.23-40.903 9.23 40.903zm22.85 1.61-13.62-55.655-13.63 55.655c-.12.59.04 1.2.42 1.66s.95.73 1.55.73h23.32c.6 0 1.17-.27 1.55-.73s.53-1.07.41-1.66z"/>
  <path class="st0" d="m94.68 63.2c-.18-.35 12-44.44 12-44.44l10.94 44.09z" fill="#ccc"/>
  <path class="st1" d="m117.62 62.85-8.1565.006c-.18-.34998-3.1835-43.406-3.1835-43.406z" fill="#f2f2f2"/>
  <g transform="translate(44.07 2.7203)">
    <path d="m52.98 58.98 9.23-40.903 9.23 40.903zm22.85 1.61-13.62-55.655-13.63 55.655c-.12.59.04 1.2.42 1.66s.95.73 1.55.73h23.32c.6 0 1.17-.27 1.55-.73s.53-1.07.41-1.66z"/>
  </g>
</svg>
