<?xml version="1.0" encoding="UTF-8"?>
<svg id="LOGO_ETC" enable-background="new 0 0 283.46 159.45" version="1.1" viewBox="0 0 283.46 159.45" xmlns="http://www.w3.org/2000/svg">
  <style type="text/css">.st0{fill:#B29F31;}
	.st1{fill:#4E4D4D;}
	.st2{fill:#D1C552;}
	.st3{fill:#F4E783;}
	.st4{fill:#767676;}
	.st5{fill:#909091;}
	.st6{opacity:0.6;}
	.st7{fill:url(#SVGID_1_);}
	.st8{fill:url(#SVGID_2_);}
	.st9{fill:url(#SVGID_3_);}
	.st10{fill:url(#SVGID_4_);}
	.st11{fill:url(#SVGID_5_);}
	.st12{fill:url(#SVGID_6_);}
	.st13{fill:url(#SVGID_7_);}
	.st14{fill:url(#SVGID_8_);}
	.st15{fill:url(#SVGID_9_);}
	.st16{fill:url(#SVGID_10_);}
	.st17{fill:url(#SVGID_11_);}
	.st18{fill:url(#SVGID_12_);}
	.st19{fill:url(#SVGID_13_);}
	.st20{fill:url(#SVGID_14_);}
	.st21{fill:url(#SVGID_15_);}
	.st22{fill:url(#SVGID_16_);}
	.st23{fill:url(#SVGID_17_);}
	.st24{fill:url(#SVGID_18_);}
	.st25{fill:url(#SVGID_19_);}
	.st26{fill:url(#SVGID_20_);}
	.st27{opacity:0.7;}
	.st28{fill:url(#SVGID_21_);}
	.st29{fill:url(#SVGID_22_);}
	.st30{fill:url(#SVGID_23_);}
	.st31{fill:url(#SVGID_24_);}
	.st32{fill:url(#SVGID_25_);}
	.st33{fill:url(#SVGID_26_);}
	.st34{fill:url(#SVGID_27_);}
	.st35{fill:url(#SVGID_28_);}
	.st36{fill:url(#SVGID_29_);}
	.st37{fill:url(#SVGID_30_);}
	.st38{fill:url(#SVGID_31_);}
	.st39{fill:url(#SVGID_32_);}</style>
  <path d="m209.49 27.18v-.06-.04c0-.04-.01-.07-.02-.1-.84-6.84-11-9.02-14.92-3.46-1.17 1.62-2.33 3.24-3.51 4.85-.19-.02-.39-.04-.59-.06l.99-11.08c-2.21-.2-4.57-.4-6.78-.58l-1.6 2.86c-3.13-1.73-7.75-1.12-11.32-1.56l-1.78 4.48c-.56-1.55-1.13-3.12-1.71-4.66-1.92-.09-3.89-.18-5.81-.25-.61 1.24-1.24 2.54-1.83 3.78-1.6-5.47-8.83-3.79-13.3-4.15h-.17l-.69 9.41.01 7.57h-6.54l-.02-2.7c1.08-.01 2.38-.01 3.47-.01v-.12-.12-.12-.12-.12-.12-.12-.12-.12-.12-.12-.12-.12-.12-.12-.12-.12-.12-.12-.12-.12-.12-.12-.12-.12-.12-.12-.12-.12-.12-.12-.12-.12-.12-.12-.12-.12-.12-.12-.12-.12-.12-.12-.12-.12-.12-.12-.12-.12-.12-.12-.12-.12-.12-.12-.12-.12-.12-.12-.12-.12-.12-.12-.12-.12-.12-.12-.12-.12-.12-.12-5.96c-1.26 0-2.73 0-3.98.01l-2.3.02c-2.79.02-5.38.07-8.04.13l.02 1.01c-.98-.76-2.13-1.64-3.12-2.4l-.68.84-.29-1.15c-1.92.07-4.02.14-5.94.22l.06 1.45-1-1.06c-1.39 1.24-2.91 2.6-4.3 3.85-2.8-3.23-9.19-1.29-13.19-1.3l.21 2.83c-3.48-3.75-10.82-3.02-13.37 1.57-2.56-4.3-9.49-1.88-13.77-1.61l1.89 14.93 7.3 6.33 6.05-.75-.05-.42 1.94 1.78c2.17-.23 4.64-.48 6.82-.69-.67-.85-1.84-2.35-2.49-3.18 1.97 1.64 5.5 1.99 8 .85l1.11 1.46-2.82 4.07c1.65 1.83 3.4 3.59 5.09 5.38 2.54 3.19 8.88 3.23 10.11-.89 1.82 3.72 8.14 4.28 10.83 1.21.29.66.82 1.85.82 1.85h5.54v-.99h3.18l.55 3.64h5.55l.14-2.65h5.41l.58-2.73c1.93-.07 3.46-.76 4.38-1.98v4.71h16.82l.53-.53.28.53h7.05l4.57-4.23-1.84-2.93-1.39-2.23.98-1.12s.48-1.63.49-1.78c.01-.08.02-.29.03-.48 2.59.21 5.19.44 7.76.69l.93-.94c2.7 2.23 7.66 2.18 10.09-.29 1.04-.94 2.08-1.89 3.12-2.83.93-.84 1.86-1.68 2.79-2.53 1.38-1.19 2.71-2.41 3.28-4.25l.3-.24s.16-1.56.16-1.85c0-.11.01-.1-.07-1.09z"/>
  <path class="st0" d="m104.77 38.52h4.04v5.06c0 .8-.41 1.21-1.05 1.21-.65 0-1.6-.42-2.5-1.34l-1.61 2.33c1.14 1.26 2.58 1.99 4.4 1.99 2.65 0 4.33-1.5 4.33-4.1v-7.97h-7.61v2.82z"/>
  <path class="st0" d="m124.88 38.77h-2.54v3.81c0 1.39-.83 2.23-2.01 2.23-1.19 0-2.12-.85-2.12-2.23v-3.81h-2.54l3.07-3.07h-4.06v6.88c0 3.16 2.23 5.18 5.64 5.18 3.4 0 5.56-2.02 5.56-5.18v-8.42h-5.6l4.6 4.61z"/>
  <polygon class="st0" points="135.04 42.29 131.5 34.16 128.38 34.16 128.38 47.61 131.49 47.61 131.49 40.56 133.89 46.44 136.2 46.44 138.59 40.56 138.61 50.74 141.7 50.74 141.7 35.7 137.91 35.7"/>
  <path class="st0" d="m149.8 35.7h-5.4v11.91h3.53v-3.21h1.87c3.08 0 4.84-1.63 4.84-4.47 0-2.7-1.76-4.23-4.84-4.23zm-.17 5.98h-1.7v-3.26h1.7c1.05 0 1.67.58 1.67 1.61 0 1.07-.62 1.65-1.67 1.65z"/>
  <rect class="st0" x="156.69" y="44.89" width="9.91" height="2.71"/>
  <rect class="st1" x="156.69" y="35.7" width="9.74" height="2.72"/>
  <rect class="st0" x="156.69" y="40.29" width="7.24" height="2.72"/>
  <path class="st0" d="m179.57 39.93c0-2.7-1.83-4.23-5.03-4.23h-5.56v11.91h3.53v-3.21h1.87l1.58 3.21h4.01l-2.41-3.89c1.3-.73 2.01-2.02 2.01-3.79zm-5.03 1.75h-2.02v-3.26h2.02c1.05 0 1.66.58 1.66 1.61 0 1.07-.61 1.65-1.66 1.65z"/>
  <polygon class="st2" points="108.81 41.38 112.38 41.38 112.38 35.7 104.77 35.7 104.77 38.52 108.81 38.52"/>
  <polygon class="st2" points="122.34 38.77 122.34 41.38 125.88 41.38 125.88 34.16 120.28 34.16 124.88 38.77"/>
  <polygon class="st2" points="118.21 41.38 118.21 38.77 115.67 38.77 118.74 35.7 114.68 35.7 114.68 41.38"/>
  <polygon class="st2" points="138.26 41.38 138.59 40.56 138.6 41.38 141.7 41.38 141.7 35.7 137.91 35.7 135.44 41.38"/>
  <polygon class="st2" points="131.49 41.38 131.49 40.56 131.83 41.38 134.65 41.38 131.5 34.16 128.38 34.16 128.38 41.38"/>
  <path class="st2" d="m147.93 41.38v-2.96h1.7c1.05 0 1.67.58 1.67 1.61 0 .63-.21 1.08-.6 1.35h3.77c.12-.44.18-.93.18-1.45 0-2.7-1.77-4.23-4.84-4.23h-5.4v5.68h3.52z"/>
  <rect class="st2" x="156.69" y="35.7" width="9.74" height="2.72"/>
  <rect class="st2" x="156.69" y="40.29" width="7.24" height="1.09"/>
  <path class="st2" d="m172.52 41.38v-2.96h2.02c1.05 0 1.66.58 1.66 1.61 0 .63-.21 1.08-.6 1.35h3.77c.12-.44.2-.92.2-1.45 0-2.7-1.83-4.23-5.03-4.23h-5.56v5.68h3.54z"/>
  <path class="st3" d="m108.05 46.94c-1.29 0-2.39-.41-3.34-1.26l.7-1.01c.79.6 1.63.94 2.35.94 1.12 0 1.87-.81 1.87-2.03v-5.88h-4.04v-1.18h5.97v7.15c0 2.11-1.25 3.27-3.51 3.27z"/>
  <path class="st3" d="m120.32 46.94c-2.97 0-4.82-1.67-4.82-4.36v-3h1.9v3c0 1.76 1.24 3.04 2.94 3.04 1.66 0 2.82-1.25 2.82-3.04v-3h1.9v3c0 2.69-1.82 4.36-4.74 4.36zm1.94-11.96h2.8v2.8l-2.8-2.8zm-6.76 1.54h1.27l-1.27 1.27v-1.27z"/>
  <polygon class="st3" points="139.43 49.93 139.41 36.52 137.84 40.25 135.65 45.62 134.44 45.62 132.25 40.25 130.67 36.53 130.67 46.79 129.2 46.79 129.2 34.98 130.96 34.98 135.04 44.34 138.45 36.52 140.88 36.52 140.88 49.93"/>
  <path class="st3" d="m145.22 46.79v-10.27h4.58c1.84 0 4.02.59 4.02 3.41 0 3.02-2.19 3.65-4.02 3.65h-2.69v3.21h-1.89zm1.89-4.29h2.52c1.51 0 2.48-.97 2.48-2.47 0-1.48-.98-2.43-2.48-2.43h-2.52v4.9z"/>
  <rect class="st3" x="157.51" y="45.71" width="8.27" height="1.08"/>
  <rect class="st3" x="157.51" y="36.52" width="8.1" height="1.08"/>
  <rect class="st3" x="157.51" y="41.11" width="5.6" height="1.08"/>
  <path class="st3" d="m176.48 46.79-1.58-3.21h-3.2v3.21h-1.9v-10.27h4.74c1.92 0 4.21.59 4.21 3.41 0 1.44-.53 2.48-1.59 3.08l-.74.42 2.09 3.37h-2.03zm-4.78-4.29h2.84c1.51 0 2.48-.97 2.48-2.47 0-1.48-.97-2.43-2.48-2.43h-2.84v4.9z"/>
  <path class="st1" d="m86.95 25.83c-.28-2.69-2.32-4.02-5.6-3.64-1.9.22-3.79.45-5.69.69.5 3.94 1 7.88 1.49 11.82 1.18-.15 2.36-.29 3.54-.43-.13-1.06-.25-2.13-.38-3.19.63-.07 1.26-.15 1.88-.22 1.06 1.57 2.11 3.15 3.15 4.72 1.33-.15 2.67-.29 4.01-.43-1.33-1.78-2.67-3.56-4.02-5.33 1.21-.87 1.8-2.23 1.62-3.99zm-4.92 2.31c-.68.08-1.37.16-2.05.24l-.39-3.24c.69-.08 1.37-.16 2.06-.24 1.07-.12 1.76.38 1.88 1.41.13 1.06-.43 1.7-1.5 1.83z"/>
  <path class="st1" d="m94.36 20.75c-3.85.35-6.41 3.18-6.04 6.66.37 3.5 3.39 5.79 7.14 5.45 3.74-.34 6.3-3.16 6.04-6.65-.27-3.46-3.3-5.81-7.14-5.46zm.88 9.17c-1.58.14-3.07-1.06-3.25-2.85-.17-1.79 1.07-3.23 2.69-3.37 1.6-.14 2.99 1.05 3.14 2.85.15 1.78-1.01 3.23-2.58 3.37z"/>
  <path class="st1" d="m111.47 25.17c1.24-.43 1.98-1.47 1.92-2.68-.1-1.83-2-2.91-4.86-2.73-2 .13-4.01.27-6.01.42.3 3.96.59 7.92.89 11.88 2.04-.15 4.09-.29 6.13-.42 2.87-.18 4.64-1.56 4.53-3.6-.08-1.52-1.09-2.65-2.6-2.87zm-5.16-2.6c.73-.05 1.46-.1 2.19-.14.71-.05 1.19.3 1.23.91.04.63-.39 1.06-1.1 1.11-.73.05-1.45.09-2.18.14-.05-.68-.09-1.35-.14-2.02zm2.61 6.45c-.72.05-1.44.09-2.16.14-.05-.72-.1-1.44-.15-2.15.72-.05 1.45-.1 2.17-.14.91-.08 1.52.3 1.56.94.05.69-.51 1.17-1.42 1.21z"/>
  <path class="st1" d="m130.94 21.64c1.18-.03 2.35-.05 3.53-.06.04 3.03.09 6.06.13 9.09 1.19-.02 2.38-.03 3.57-.04-.03-3.97-.06-7.94-.09-11.91-2.4.02-4.81.05-7.21.1.03.94.05 1.88.07 2.82z"/>
  <path class="st1" d="m138.91 21.53c1.04-.01 2.08-.01 3.12-.01v-2.82c-1.05 0-2.09 0-3.14.01.01.94.02 1.88.02 2.82z"/>
  <path class="st1" d="m159.28 23.21c.09-2.7-1.68-4.29-4.85-4.37-1.85-.04-3.71-.08-5.56-.1l-.15 11.91c1.19.02 2.37.03 3.56.06l.06-3.21c.63.01 1.26.03 1.89.04 3.11.07 4.95-1.5 5.05-4.33zm-5.16 1.61c-.58-.01-1.15-.03-1.73-.04.02-1.09.04-2.17.06-3.26.58.01 1.16.02 1.74.04 1.08.02 1.69.62 1.66 1.66-.02 1.06-.66 1.62-1.73 1.6z"/>
  <path class="st1" d="m181.44 25.74c1.29-.26 2.16-1.2 2.26-2.4.15-1.83-1.59-3.15-4.46-3.35-2-.14-4.01-.27-6.01-.39l-.54 9.24-2.1-.12c-1.12-3.15-2.26-6.3-3.42-9.45-1.25-.06-2.49-.11-3.74-.16-2.27 4.65-4.48 9.32-6.63 14 1.21.03 2.43.07 3.64.12.61-1.38 1.23-2.76 1.85-4.14 1.62.06 3.24.13 4.85.21.2.64.41 1.29.61 1.94 1.26.06 2.53.13 3.79.2l.99.06c1.18.07 2.36.14 3.53.22.87.06 1.73.12 2.6.18 2.86.2 4.81-.93 4.97-2.97.12-1.51-.73-2.77-2.19-3.19zm-18.06.81c.55-1.28 1.1-2.55 1.65-3.83.43 1.32.86 2.63 1.28 3.95-.98-.03-1.95-.08-2.93-.12zm13.29-4.07 2.19.15c.71.05 1.14.46 1.09 1.07-.05.63-.52 1-1.23.95-.73-.05-1.45-.1-2.18-.15.04-.68.08-1.35.13-2.02zm1.73 6.74c-.72-.05-1.44-.1-2.16-.15.05-.72.09-1.44.14-2.15.72.05 1.45.1 2.17.15.91.05 1.47.5 1.42 1.14-.05.69-.66 1.09-1.57 1.01z"/>
  <path class="st1" d="m189.74 18.66c-1.21-.11-2.43-.21-3.64-.31-.39 4.68-.77 9.36-1.16 14.04 2.85.24 5.71.5 8.56.78.1-.98.2-1.96.29-2.94-1.68-.17-3.36-.33-5.04-.48.33-3.71.66-7.4.99-11.09z"/>
  <path class="st1" d="m202.02 21.98c-3.84-.44-6.92 1.82-7.26 5.31-.35 3.5 2.15 6.36 5.89 6.78 3.73.42 6.82-1.82 7.26-5.29.45-3.45-2.05-6.36-5.89-6.8zm-.99 9.16c-1.57-.18-2.8-1.66-2.61-3.45s1.7-2.95 3.31-2.76c1.6.18 2.72 1.63 2.51 3.42s-1.63 2.97-3.21 2.79z"/>
  <path class="st1" d="m130.65 24.78c-.18-.89-.36-1.77-.54-2.65-.31.06-.61.12-.92.18-.3-.66-.71-1.26-1.21-1.78.21-.26.43-.52.64-.78-.73-.56-1.45-1.12-2.18-1.68-.26.32-.51.63-.77.95-.6-.24-1.24-.41-1.92-.49-.02-.44-.03-.88-.05-1.32-.93.03-1.86.07-2.8.1.02.44.04.88.05 1.32-.68.13-1.31.35-1.88.63-.28-.29-.56-.59-.84-.88-.69.61-1.37 1.22-2.05 1.84.23.24.46.49.69.73-.47.55-.83 1.18-1.08 1.87-.31-.04-.62-.07-.93-.11-.11.9-.23 1.79-.34 2.69.31.04.61.07.92.11.06.75.23 1.46.51 2.11-.26.17-.53.34-.79.51.5.76.99 1.51 1.48 2.27.29-.19.59-.38.88-.56.5.45 1.07.84 1.71 1.13-.12.38-.24.75-.36 1.13.87.27 1.73.54 2.59.82.14-.43.27-.85.41-1.28.31.02.62.03.94.02s.63-.05.94-.09c.17.42.34.83.51 1.25.84-.34 1.68-.67 2.52-1.01-.15-.37-.29-.73-.44-1.1.61-.34 1.15-.76 1.62-1.25.31.17.62.33.93.5.43-.79.87-1.59 1.31-2.38-.28-.15-.55-.3-.83-.45.23-.67.35-1.38.35-2.14.32-.09.62-.15.93-.21zm-7.88 3.65c-1.88.07-3.59-1.31-3.68-3.26s1.49-3.44 3.42-3.51c1.91-.07 3.49 1.3 3.55 3.25.07 1.95-1.4 3.45-3.29 3.52z"/>
  <path class="st4" d="m79.95 28.09c-.12-.98-.23-1.97-.35-2.95.69-.08 1.37-.16 2.06-.24 1.07-.12 1.76.38 1.88 1.41.07.63-.1 1.11-.47 1.42 1.28-.14 2.55-.28 3.83-.42.08-.46.1-.94.05-1.47-.28-2.69-2.32-4.02-5.6-3.64-1.9.22-3.79.45-5.69.69.24 1.88.48 3.77.71 5.65 1.2-.16 2.39-.31 3.58-.45z"/>
  <path class="st4" d="m91.99 26.79c-.03-1.66 1.16-2.96 2.69-3.1 1.51-.14 2.83.94 3.1 2.58l3.69-.3c-.39-3.33-3.35-5.56-7.1-5.22s-6.27 3.05-6.05 6.41c1.21-.13 2.44-.25 3.67-.37z"/>
  <path class="st4" d="m111.89 25.26c-.14-.04-.27-.07-.42-.1 1.24-.43 1.98-1.47 1.92-2.68-.1-1.83-2-2.91-4.86-2.73-2 .13-4.01.27-6.01.42.14 1.89.28 3.78.43 5.68 2.97-.22 5.96-.41 8.94-.59zm-5.58-2.69c.73-.05 1.46-.1 2.19-.14.71-.05 1.19.3 1.23.91.04.63-.39 1.06-1.1 1.11-.73.05-1.45.09-2.18.14-.05-.68-.09-1.35-.14-2.02z"/>
  <path class="st4" d="m134.52 24.45c1.21-.02 2.41-.03 3.62-.04-.01-1.9-.03-3.8-.04-5.69-2.4.02-4.81.05-7.21.1l.06 2.82c1.18-.03 2.35-.05 3.53-.06.01.95.02 1.91.04 2.87z"/>
  <path class="st4" d="m142.04 20.19v-1.49c-1.05 0-2.09 0-3.14.01 0 .5.01.99.01 1.49 1.04-.01 2.08-.01 3.13-.01z"/>
  <path class="st4" d="m152.4 24.49.06-2.97c.58.01 1.16.02 1.74.04 1.08.02 1.69.62 1.66 1.66-.02.63-.25 1.08-.66 1.34 1.28.03 2.56.07 3.85.11.14-.44.22-.92.23-1.45.09-2.7-1.68-4.29-4.85-4.37-1.85-.04-3.71-.08-5.56-.1-.02 1.9-.05 3.79-.07 5.69 1.2.01 2.4.03 3.6.05z"/>
  <path class="st4" d="m164.11 24.85c.31-.71.61-1.41.92-2.12.24.73.48 1.46.71 2.19 1.18.05 2.36.11 3.54.17-.7-1.94-1.4-3.87-2.12-5.8-1.25-.06-2.49-.11-3.74-.16-.91 1.86-1.81 3.73-2.7 5.59 1.13.04 2.26.08 3.39.13z"/>
  <path class="st4" d="m181.84 25.89c-.13-.06-.26-.11-.4-.15 1.29-.26 2.16-1.2 2.26-2.4.15-1.83-1.59-3.15-4.46-3.35-2-.14-4.01-.27-6.01-.39-.11 1.89-.22 3.79-.33 5.68 2.97.19 5.96.39 8.94.61zm-5.17-3.41 2.19.15c.71.05 1.14.46 1.09 1.07-.05.63-.52 1-1.23.95-.73-.05-1.45-.1-2.18-.15.04-.68.08-1.35.13-2.02z"/>
  <path class="st4" d="m189.04 26.49c.23-2.61.47-5.22.7-7.83-1.21-.11-2.43-.21-3.64-.31-.22 2.61-.43 5.22-.65 7.84 1.2.09 2.4.19 3.59.3z"/>
  <path class="st4" d="m198.48 27.42c.31-1.63 1.73-2.67 3.26-2.49 1.51.17 2.59 1.49 2.51 3.15 1.23.15 2.45.3 3.68.45.29-3.34-2.17-6.12-5.91-6.54s-6.76 1.72-7.22 5.05c1.23.12 2.45.25 3.68.38z"/>
  <path class="st4" d="m119.1 24.9c.06-1.81 1.58-3.17 3.42-3.24 1.82-.07 3.34 1.18 3.53 2.98 1.51-.05 3.03-.09 4.54-.12-.16-.8-.32-1.59-.49-2.39-.31.06-.61.12-.92.18-.3-.66-.71-1.26-1.21-1.78.21-.26.43-.52.64-.78-.73-.56-1.45-1.12-2.18-1.68-.26.32-.51.63-.77.95-.6-.24-1.24-.41-1.92-.49-.02-.44-.03-.88-.05-1.32-.93.03-1.86.07-2.8.1.02.44.04.88.05 1.32-.68.13-1.31.35-1.88.63-.28-.29-.56-.59-.84-.88-.69.61-1.37 1.22-2.05 1.84.23.24.46.49.69.73-.47.55-.83 1.18-1.08 1.87-.31-.04-.62-.07-.93-.11-.1.81-.2 1.61-.31 2.42 1.54-.09 3.05-.17 4.56-.23z"/>
  <path class="st5" d="m85.75 34.71c-1.04-1.58-2.09-3.15-3.15-4.73-1.07.12-2.15.25-3.22.38.13 1.06.26 2.13.39 3.19-.63.08-1.27.15-1.9.23-.42-3.4-.85-6.8-1.27-10.19 1.61-.2 3.23-.4 4.84-.58 1.97-.23 4.38.11 4.67 2.91.15 1.44-.28 2.52-1.28 3.23-.23.16-.46.33-.69.49 1.24 1.61 2.46 3.22 3.68 4.84-.69.08-1.38.15-2.07.23zm-6.49-5.42c.96-.12 1.91-.23 2.87-.34 1.53-.18 2.41-1.25 2.24-2.74-.16-1.47-1.26-2.31-2.8-2.13-.97.11-1.93.23-2.9.34.19 1.63.39 3.25.59 4.87z"/>
  <path class="st5" d="m95.38 32.05c-3.3.3-5.92-1.67-6.23-4.72-.31-3.01 1.91-5.46 5.28-5.76s6 1.7 6.23 4.72c.24 3.06-1.98 5.47-5.28 5.76zm-.78-9.17c-2.15.19-3.66 2.08-3.44 4.27.22 2.17 2.08 3.78 4.15 3.59 2.05-.19 3.52-2.05 3.34-4.27-.18-2.2-1.96-3.78-4.05-3.59z"/>
  <path class="st5" d="m104.17 31.18c-.25-3.42-.5-6.83-.75-10.25 1.72-.13 3.44-.24 5.16-.35 1.78-.11 3.89.34 3.97 1.95.05.84-.47 1.55-1.36 1.86.05.53.1 1.05.15 1.58 1.11.16 1.83.97 1.89 2.1.1 1.85-1.88 2.62-3.76 2.74-1.76.12-3.53.24-5.3.37zm1.82-1.14s2.98-.2 2.99-.2c1.38-.09 2.27-.94 2.2-2.08-.06-1.09-1.05-1.8-2.39-1.71-1.02.07-2.04.13-3.06.2.09 1.26.17 2.52.26 3.79zm-.32-4.58c1-.07 2.01-.14 3.01-.2 1.17-.07 1.95-.89 1.88-1.98-.06-1.06-.93-1.75-2.11-1.68-1.01.06-2.02.13-3.03.2.08 1.22.17 2.44.25 3.66z"/>
  <path class="st5" d="m135.42 29.83-.12-9.09c-1.18.02-2.36.03-3.54.06-.01-.39-.02-.79-.02-1.18 1.84-.04 3.68-.06 5.51-.08.03 3.42.06 6.85.1 10.27-.64.01-1.29.02-1.93.02z"/>
  <path class="st5" d="m139.75 20.7c0-.39 0-.79-.01-1.18h1.45v1.18h-1.44z"/>
  <path class="st5" d="m149.56 29.84c.05-3.42.1-6.85.15-10.27 1.57.02 3.14.05 4.71.09 1.89.04 4.12.7 4.03 3.52-.1 3.02-2.33 3.58-4.19 3.54l-2.73-.06-.06 3.21c-.64-.01-1.28-.02-1.91-.03zm1.99-4.26c.85.02 1.71.03 2.56.05 1.53.04 2.55-.9 2.59-2.4.04-1.48-.93-2.46-2.48-2.5-.86-.02-1.72-.04-2.58-.05-.04 1.64-.07 3.27-.09 4.9z"/>
  <path class="st5" d="m158.05 32.34c1.92-4.14 3.88-8.26 5.89-12.37.87.04 1.74.07 2.62.11 1.16 3.14 2.31 6.29 3.43 9.44 1.16.06 2.32.13 3.48.2.19-3.08.37-6.16.56-9.24 1.72.1 3.44.22 5.16.34 1.78.12 3.81.85 3.68 2.47-.07.84-.68 1.48-1.59 1.66l-.06 1.59c1.08.31 1.69 1.2 1.6 2.33-.15 1.85-2.21 2.35-4.09 2.21-3.45-.24-6.9-.45-10.36-.63-.2-.65-.41-1.29-.61-1.94-2-.1-4-.19-6-.26-.62 1.38-1.23 2.76-1.85 4.14-.62-.01-1.24-.03-1.86-.05zm17.31-2.5c1 .06 1.99.13 2.98.2 1.38.1 2.37-.63 2.46-1.77.08-1.09-.8-1.92-2.14-2.01-1.02-.07-2.04-.14-3.06-.2-.08 1.25-.16 2.51-.24 3.78zm-13.21-2.52c1.77.07 3.54.14 5.31.23-.76-2.39-1.53-4.79-2.32-7.18-1.01 2.32-2.01 4.64-2.99 6.95zm13.5-2.06c1 .06 2.01.13 3.01.2 1.17.08 2.05-.62 2.13-1.71.08-1.06-.69-1.86-1.87-1.94-1.01-.07-2.02-.14-3.03-.2-.09 1.21-.16 2.43-.24 3.65z"/>
  <path class="st5" d="m185.83 31.63c.35-4.13.7-8.27 1.05-12.4.65.05 1.3.11 1.95.17-.33 3.69-.65 7.39-.98 11.08 1.68.15 3.36.3 5.03.47-.04.44-.09.88-.13 1.31-2.3-.23-4.61-.44-6.92-.63z"/>
  <path class="st5" d="m200.74 33.26c-3.29-.37-5.46-2.83-5.15-5.88.3-3.02 2.97-4.96 6.34-4.58s5.53 2.88 5.15 5.88c-.38 3.04-3.05 4.95-6.34 4.58zm1.09-9.15c-2.14-.24-4.01 1.3-4.24 3.49-.23 2.17 1.27 4.12 3.34 4.35 2.05.23 3.86-1.3 4.13-3.51.28-2.18-1.14-4.09-3.23-4.33z"/>
  <path class="st5" d="m119.92 31.54c.11-.34.22-.69.33-1.03-.22-.1-.44-.2-.66-.3-.55-.25-1.06-.59-1.5-.99-.16-.14-.31-.28-.47-.43-.24.15-.48.31-.72.46-.19-.3-.39-.6-.59-.9.23-.14.45-.29.68-.43-.09-.21-.18-.42-.27-.63-.25-.58-.39-1.2-.44-1.85-.02-.22-.03-.45-.05-.67-.26-.03-.51-.06-.77-.09.05-.35.09-.71.14-1.06.26.03.51.06.77.09.07-.21.15-.42.22-.63.21-.59.53-1.14.93-1.62.16-.18.31-.37.47-.55-.21-.22-.41-.44-.62-.65.27-.24.54-.48.81-.73.23.24.46.49.69.73.19-.09.38-.18.57-.28.52-.25 1.09-.44 1.68-.56.23-.05.47-.09.7-.14-.02-.4-.03-.8-.05-1.2.37-.01.73-.03 1.1-.04.01.4.03.8.04 1.2.24.03.47.06.71.09.59.07 1.17.22 1.71.43.2.08.39.16.59.23.21-.26.43-.53.64-.79.29.22.57.44.86.66-.19.23-.38.47-.57.7.17.17.34.34.51.52.44.45.8.97 1.05 1.54l.27.6c.25-.05.5-.1.76-.15l.21 1.05c-.25.05-.51.1-.76.15v.67c0 .65-.1 1.28-.31 1.87-.07.22-.15.43-.22.65.24.13.48.25.71.38-.17.31-.34.63-.52.94-.25-.14-.51-.27-.76-.41-.15.15-.29.31-.44.46-.41.43-.89.8-1.42 1.1-.21.12-.42.23-.63.35.14.34.27.67.41 1.01-.33.13-.67.27-1 .4-.15-.36-.29-.72-.44-1.09-.21.03-.43.06-.64.1-.32.05-.59.07-.85.08s-.53 0-.85-.02c-.22-.02-.43-.03-.65-.05-.12.37-.24.74-.36 1.11-.32-.07-.66-.18-1-.28zm2.57-10.7c-2.48.09-4.34 2.02-4.23 4.37.11 2.33 2.15 4.13 4.54 4.04 2.37-.09 4.17-1.99 4.1-4.36-.06-2.35-2-4.14-4.41-4.05z"/>
  <g class="st6">
    <linearGradient id="SVGID_1_" x1="77.261" x2="86.59" y1="33.209" y2="25.381" gradientUnits="userSpaceOnUse">
      <stop stop-color="#fff" stop-opacity="0" offset="0"/>
      <stop stop-color="#fff" offset=".5307"/>
      <stop stop-color="#fff" stop-opacity="0" offset="1"/>
    </linearGradient>
    <path class="st7" d="m84.25 29.66.63-.45c1.02-.73 1.47-1.84 1.31-3.3-.11-.99-.48-1.75-1.12-2.27-1.02-.82-2.54-.84-3.63-.71-1.61.19-3.24.38-4.84.58l-.07.01 1.28 10.26.01.07.07-.01c.63-.08 1.27-.16 1.9-.23l.07-.01-.39-3.19c1.03-.13 2.07-.25 3.11-.37 1.04 1.55 2.09 3.13 3.12 4.69l.02.04h.04c.69-.08 1.38-.15 2.07-.22l.12-.01-.07-.1c-1.2-1.6-2.42-3.2-3.63-4.78zm1.54 4.97c-1.03-1.56-2.08-3.14-3.12-4.69l-.02-.04h-.04c-1.07.12-2.15.25-3.22.38l-.07.01.39 3.19c-.59.07-1.17.14-1.76.22l-1.25-10.05c1.59-.2 3.19-.39 4.77-.57 1.06-.12 2.54-.11 3.53.68.61.49.97 1.22 1.07 2.17.15 1.41-.27 2.47-1.25 3.17l-.75.53.04.06c1.2 1.56 2.41 3.16 3.6 4.74-.65.06-1.29.13-1.92.2z"/>
    <linearGradient id="SVGID_2_" x1="78.522" x2="83.516" y1="28.566" y2="24.375" gradientUnits="userSpaceOnUse">
      <stop stop-color="#fff" stop-opacity="0" offset="0"/>
      <stop stop-color="#fff" offset=".5307"/>
      <stop stop-color="#fff" stop-opacity="0" offset="1"/>
    </linearGradient>
    <path class="st8" d="m84.44 26.2c-.08-.72-.38-1.31-.87-1.7-.52-.41-1.22-.58-2.01-.49-.97.11-1.93.23-2.9.34l-.07.01.61 5.01.07-.01c.96-.12 1.91-.23 2.87-.34 1.56-.18 2.47-1.29 2.3-2.82zm-2.32 2.68c-.93.11-1.87.22-2.8.33l-.57-4.72c.94-.11 1.89-.23 2.83-.33.76-.09 1.42.07 1.9.46.46.37.75.92.82 1.61.16 1.43-.7 2.48-2.18 2.65z"/>
    <linearGradient id="SVGID_3_" x1="90.503" x2="99.319" y1="30.487" y2="23.089" gradientUnits="userSpaceOnUse">
      <stop stop-color="#fff" stop-opacity="0" offset="0"/>
      <stop stop-color="#fff" offset=".5307"/>
      <stop stop-color="#fff" stop-opacity="0" offset="1"/>
    </linearGradient>
    <path class="st9" d="m98.97 22.79c-1.17-.99-2.79-1.45-4.55-1.29s-3.27.9-4.25 2.09c-.85 1.04-1.24 2.37-1.1 3.75.3 2.87 2.63 4.82 5.65 4.82.22 0 .43-.01.66-.03 3.34-.3 5.58-2.76 5.35-5.84-.11-1.39-.73-2.63-1.76-3.5zm-3.6 9.19c-3.26.29-5.85-1.67-6.16-4.66-.14-1.36.23-2.62 1.07-3.65.95-1.16 2.43-1.88 4.15-2.04.22-.02.45-.03.66-.03 1.46 0 2.78.45 3.78 1.29 1.01.85 1.6 2.03 1.71 3.4.24 3.01-1.95 5.4-5.21 5.69z"/>
    <linearGradient id="SVGID_4_" x1="91.944" x2="97.919" y1="29.304" y2="24.29" gradientUnits="userSpaceOnUse">
      <stop stop-color="#fff" stop-opacity="0" offset="0"/>
      <stop stop-color="#fff" offset=".5307"/>
      <stop stop-color="#fff" stop-opacity="0" offset="1"/>
    </linearGradient>
    <path class="st10" d="m97.31 23.66c-.76-.64-1.72-.94-2.72-.85-1.04.09-1.97.58-2.62 1.37-.68.82-.99 1.88-.88 2.97.21 2.09 1.92 3.67 3.9 3.67.11 0 .22 0 .33-.01 2.09-.19 3.59-2.1 3.4-4.34-.09-1.13-.59-2.12-1.41-2.81zm-2 7.01c-2.03.19-3.86-1.4-4.08-3.53-.11-1.06.2-2.08.85-2.87.63-.76 1.53-1.23 2.53-1.32.95-.09 1.88.2 2.61.82.79.66 1.27 1.62 1.36 2.71.18 2.16-1.26 4-3.27 4.19z"/>
    <linearGradient id="SVGID_5_" x1="102.79" x2="112.35" y1="29.69" y2="21.669" gradientUnits="userSpaceOnUse">
      <stop stop-color="#fff" stop-opacity="0" offset="0"/>
      <stop stop-color="#fff" offset=".5307"/>
      <stop stop-color="#fff" stop-opacity="0" offset="1"/>
    </linearGradient>
    <path class="st11" d="m111.41 25.92-.14-1.47c.88-.33 1.4-1.06 1.35-1.91-.03-.48-.22-.88-.59-1.21-.68-.6-1.98-.91-3.46-.81-1.68.11-3.42.23-5.16.35h-.07l.76 10.32v.07l.07-.01c1.77-.13 3.56-.25 5.31-.36 1.92-.12 3.93-.92 3.82-2.81-.05-1.16-.78-1.98-1.89-2.16zm-1.93 4.83c-1.73.11-3.5.23-5.24.36l-.74-10.11c1.72-.13 3.43-.24 5.09-.35 1.45-.09 2.7.2 3.36.78.34.3.52.67.54 1.11.05.81-.46 1.49-1.31 1.79l-.05.02.16 1.69.05.01c1.07.16 1.77.94 1.83 2.04.1 1.78-1.84 2.54-3.69 2.66z"/>
    <linearGradient id="SVGID_6_" x1="105.62" x2="110.23" y1="29.845" y2="25.979" gradientUnits="userSpaceOnUse">
      <stop stop-color="#fff" stop-opacity="0" offset="0"/>
      <stop stop-color="#fff" offset=".5307"/>
      <stop stop-color="#fff" stop-opacity="0" offset="1"/>
    </linearGradient>
    <path class="st12" d="m108.79 25.97c-1.02.07-2.04.13-3.06.2h-.07l.28 4.04.09-.12c.28-.02 2.48-.17 2.89-.19h.07c1.4-.09 2.34-.98 2.27-2.15-.03-.49-.23-.91-.59-1.23-.47-.4-1.13-.6-1.88-.55zm.18 3.8c-.29.01-2.41.16-2.91.2l-.25-3.65c1-.07 1.99-.14 2.99-.2.72-.04 1.34.14 1.77.51.33.29.52.68.54 1.13.06 1.11-.8 1.92-2.14 2.01z"/>
    <linearGradient id="SVGID_7_" x1="105.35" x2="109.7" y1="25.231" y2="21.583" gradientUnits="userSpaceOnUse">
      <stop stop-color="#fff" stop-opacity="0" offset="0"/>
      <stop stop-color="#fff" offset=".5307"/>
      <stop stop-color="#fff" stop-opacity="0" offset="1"/>
    </linearGradient>
    <path class="st13" d="m108.69 25.33c1.21-.08 2.01-.92 1.95-2.05-.03-.51-.24-.94-.59-1.26-.4-.35-.97-.53-1.6-.49-1.01.06-2.02.13-3.03.2h-.07l.24 3.5.02.29h.07c1-.06 2-.13 3.01-.19zm-3.2-3.46c.99-.07 1.97-.13 2.96-.2.59-.03 1.12.12 1.49.45.33.29.52.69.54 1.16.06 1.05-.68 1.83-1.81 1.9-.98.06-1.96.13-2.94.2l-.24-3.51z"/>
    <linearGradient id="SVGID_8_" x1="132.46" x2="138.76" y1="26.464" y2="21.178" gradientUnits="userSpaceOnUse">
      <stop stop-color="#fff" stop-opacity="0" offset="0"/>
      <stop stop-color="#fff" offset=".5307"/>
      <stop stop-color="#fff" stop-opacity="0" offset="1"/>
    </linearGradient>
    <path class="st14" d="m137.25 19.47c-1.83.02-3.68.04-5.51.08h-.07l.03 1.32h.07c1.16-.02 2.31-.04 3.47-.06l.12 9.02v.07h.07c.64-.01 1.29-.02 1.93-.02h.07l-.1-10.42-.08.01zm-1.76 10.29-.12-9.02v-.07h-.07c-1.16.01-2.31.03-3.47.06l-.02-1.04c1.78-.03 3.59-.06 5.37-.08l.09 10.13c-.59.01-1.18.02-1.78.02z"/>
    <linearGradient id="SVGID_9_" x1="139.68" x2="141.26" y1="20.775" y2="19.445" gradientUnits="userSpaceOnUse">
      <stop stop-color="#fff" stop-opacity="0" offset="0"/>
      <stop stop-color="#fff" offset=".5307"/>
      <stop stop-color="#fff" stop-opacity="0" offset="1"/>
    </linearGradient>
    <path class="st15" d="m141.19 19.45h-1.45-.07l.01 1.32h.07 1.45.07v-1.32h-.08zm-1.37 1.18v-1.04h1.31v1.04h-1.31z"/>
    <linearGradient id="SVGID_10_" x1="151.04" x2="155.86" y1="25.138" y2="21.094" gradientUnits="userSpaceOnUse">
      <stop stop-color="#fff" stop-opacity="0" offset="0"/>
      <stop stop-color="#fff" offset=".5307"/>
      <stop stop-color="#fff" stop-opacity="0" offset="1"/>
    </linearGradient>
    <path class="st16" d="m154.22 20.66c-.86-.02-1.72-.04-2.58-.05h-.07l-.09 5.04h.07c.85.02 1.7.03 2.56.05h.08c1.53 0 2.54-.96 2.58-2.47.02-.73-.2-1.35-.63-1.81-.46-.47-1.12-.74-1.92-.76zm-.03 4.9h-.08c-.83-.02-1.66-.04-2.49-.05l.09-4.76c.84.01 1.67.03 2.51.05.76.02 1.39.27 1.82.72.41.43.61 1.02.59 1.7-.04 1.43-1 2.34-2.44 2.34z"/>
    <linearGradient id="SVGID_11_" x1="147.6" x2="156.95" y1="27.662" y2="19.818" gradientUnits="userSpaceOnUse">
      <stop stop-color="#fff" stop-opacity="0" offset="0"/>
      <stop stop-color="#fff" offset=".5307"/>
      <stop stop-color="#fff" stop-opacity="0" offset="1"/>
    </linearGradient>
    <path class="st17" d="m157.71 20.74c-.86-.91-2.27-1.13-3.3-1.15-1.55-.04-3.14-.07-4.71-.09h-.07l-.15 10.34v.07h.07c.64.01 1.27.02 1.91.03h.07l.06-3.21c.89.02 1.77.03 2.65.05h.18c1.85 0 3.99-.65 4.08-3.61.05-1.01-.22-1.83-.79-2.43zm-3.28 5.91h-.18l-2.73-.06h-.07l-.06 3.21-1.77-.03.14-10.13c1.55.02 3.11.05 4.64.09 1 .02 2.37.23 3.2 1.11.54.57.8 1.36.76 2.34-.08 2.85-2.14 3.47-3.93 3.47z"/>
    <linearGradient id="SVGID_12_" x1="175.3" x2="179.78" y1="29.93" y2="26.177" gradientUnits="userSpaceOnUse">
      <stop stop-color="#fff" stop-opacity="0" offset="0"/>
      <stop stop-color="#fff" offset=".5307"/>
      <stop stop-color="#fff" stop-opacity="0" offset="1"/>
    </linearGradient>
    <path class="st18" d="m178.67 26.18c-1.02-.07-2.04-.14-3.06-.2h-.07l-.25 3.93h.07c.99.06 1.99.13 2.98.2.08.01.16.01.24.01 1.28 0 2.21-.73 2.29-1.84.04-.49-.11-.93-.42-1.3-.4-.46-1.03-.75-1.78-.8zm-.32 3.79c-.97-.07-1.94-.13-2.91-.2l.23-3.65c1 .06 1.99.13 2.99.2.71.05 1.31.31 1.68.74.29.33.42.75.39 1.19-.08 1.12-1.04 1.8-2.38 1.72z"/>
    <linearGradient id="SVGID_13_" x1="160.58" x2="180.12" y1="35.552" y2="19.161" gradientUnits="userSpaceOnUse">
      <stop stop-color="#fff" stop-opacity="0" offset="0"/>
      <stop stop-color="#fff" offset=".5307"/>
      <stop stop-color="#fff" stop-opacity="0" offset="1"/>
    </linearGradient>
    <path class="st19" d="m182.93 23.28c.04-.48-.11-.91-.42-1.28-.59-.69-1.84-1.16-3.32-1.27-1.71-.12-3.45-.23-5.16-.34h-.07l-.56 9.24c-1.11-.07-2.24-.13-3.36-.19-1.11-3.13-2.26-6.3-3.41-9.4l-.02-.04h-.05c-.87-.04-1.74-.08-2.62-.11h-.05l-.02.04c-2 4.11-3.98 8.27-5.89 12.38l-.05.1h.11c.62.02 1.23.04 1.85.06h.05l.02-.04c.6-1.35 1.21-2.73 1.83-4.1 1.95.07 3.94.16 5.9.26.2.63.4 1.26.59 1.89l.01.05h.05c3.44.17 6.92.38 10.35.63 1.92.13 4.02-.39 4.17-2.28.09-1.15-.52-2.06-1.6-2.39l.05-1.48c.94-.22 1.55-.87 1.62-1.73zm-1.74 3.32c1.04.3 1.63 1.16 1.55 2.26-.14 1.78-2.17 2.28-4.01 2.15-3.41-.24-6.88-.45-10.31-.62-.2-.63-.4-1.26-.59-1.89l-.01-.05h-.05c-2-.1-4.02-.19-6-.26h-.05l-.02.04c-.62 1.37-1.23 2.75-1.83 4.1-.57-.02-1.13-.04-1.7-.06 1.88-4.06 3.84-8.17 5.82-12.23.84.03 1.68.07 2.52.11 1.15 3.1 2.3 6.26 3.41 9.4l.02.04h.05c1.16.06 2.33.13 3.48.2h.07l.56-9.24c1.69.1 3.4.21 5.09.33 1.45.1 2.65.56 3.22 1.22.29.34.42.73.39 1.17-.06.81-.65 1.42-1.54 1.6l-.05.01-.06 1.7.04.02z"/>
    <linearGradient id="SVGID_14_" x1="175.59" x2="179.86" y1="25.338" y2="21.749" gradientUnits="userSpaceOnUse">
      <stop stop-color="#fff" stop-opacity="0" offset="0"/>
      <stop stop-color="#fff" offset=".5307"/>
      <stop stop-color="#fff" stop-opacity="0" offset="1"/>
    </linearGradient>
    <path class="st20" d="m178.65 25.53c.06 0 .13.01.19.01 1.12 0 1.93-.71 2.01-1.78.04-.5-.11-.96-.42-1.32-.35-.4-.89-.65-1.52-.7-1.01-.07-2.02-.14-3.03-.2h-.07l-.24 3.79h.07c1.01.06 2.01.13 3.01.2zm-2.7-3.85c.99.06 1.97.13 2.96.2.59.04 1.09.27 1.42.65.29.33.42.75.39 1.22-.08 1.05-.92 1.72-2.05 1.64-.98-.07-1.96-.13-2.94-.2l.22-3.51z"/>
    <linearGradient id="SVGID_15_" x1="162.11" x2="167.48" y1="27.469" y2="22.958" gradientUnits="userSpaceOnUse">
      <stop stop-color="#fff" stop-opacity="0" offset="0"/>
      <stop stop-color="#fff" offset=".5307"/>
      <stop stop-color="#fff" stop-opacity="0" offset="1"/>
    </linearGradient>
    <path class="st21" d="m165.21 20.36-.06-.18-.07.17c-.99 2.27-2 4.61-2.99 6.95l-.04.09h.1c1.76.07 3.55.14 5.31.23h.1l-.03-.1c-.75-2.35-1.53-4.77-2.32-7.16zm-2.96 6.9c.96-2.25 1.92-4.5 2.88-6.68.76 2.31 1.51 4.63 2.23 6.9-1.69-.08-3.41-.16-5.11-.22z"/>
    <linearGradient id="SVGID_16_" x1="184.5" x2="192.44" y1="30.202" y2="23.543" gradientUnits="userSpaceOnUse">
      <stop stop-color="#fff" stop-opacity="0" offset="0"/>
      <stop stop-color="#fff" offset=".5307"/>
      <stop stop-color="#fff" stop-opacity="0" offset="1"/>
    </linearGradient>
    <path class="st22" d="m187.93 30.42.97-11.01.01-.07-.07-.01c-.65-.06-1.3-.11-1.95-.17l-.07-.01-1.01 11.97-.05.57.07.01c2.31.2 4.64.41 6.93.63l.07.01.14-1.45-.07-.01c-1.66-.16-3.33-.32-4.97-.46zm4.76 1.76c-2.24-.22-4.52-.43-6.79-.62l1.03-12.26c.6.05 1.21.1 1.81.16l-.97 11.01-.01.07.07.01c1.64.14 3.31.3 4.96.46l-.1 1.17z"/>
    <linearGradient id="SVGID_17_" x1="198.34" x2="204.38" y1="30.539" y2="25.477" gradientUnits="userSpaceOnUse">
      <stop stop-color="#fff" stop-opacity="0" offset="0"/>
      <stop stop-color="#fff" offset=".5307"/>
      <stop stop-color="#fff" stop-opacity="0" offset="1"/>
    </linearGradient>
    <path class="st23" d="m201.84 24.04c-1.04-.12-2.05.17-2.85.81-.83.67-1.35 1.64-1.46 2.74-.23 2.2 1.3 4.19 3.41 4.43.14.02.28.02.42.02 1.91 0 3.54-1.5 3.79-3.59.14-1.12-.15-2.19-.81-3.03-.62-.77-1.51-1.27-2.5-1.38zm3.17 4.4c-.26 2.16-2.04 3.67-4.06 3.44-2.03-.23-3.5-2.15-3.28-4.28.11-1.06.61-2 1.41-2.64.66-.53 1.46-.81 2.31-.81.14 0 .29.01.44.02.95.11 1.8.58 2.4 1.33.63.82.91 1.86.78 2.94z"/>
    <linearGradient id="SVGID_18_" x1="197" x2="205.68" y1="31.643" y2="24.36" gradientUnits="userSpaceOnUse">
      <stop stop-color="#fff" stop-opacity="0" offset="0"/>
      <stop stop-color="#fff" offset=".5307"/>
      <stop stop-color="#fff" stop-opacity="0" offset="1"/>
    </linearGradient>
    <path class="st24" d="m206.14 24.91c-.95-1.21-2.44-1.99-4.2-2.19s-3.38.22-4.58 1.19c-1.05.84-1.7 2.07-1.84 3.45-.31 3.08 1.88 5.58 5.22 5.96.28.03.55.05.81.05 2.95 0 5.25-1.88 5.6-4.69.18-1.37-.18-2.71-1.01-3.77zm.87 3.76c-.38 2.99-3.01 4.89-6.26 4.52s-5.39-2.81-5.09-5.81c.14-1.36.75-2.52 1.78-3.35.98-.79 2.25-1.21 3.65-1.21.27 0 .55.02.83.05 1.72.2 3.18.95 4.1 2.13.82 1.04 1.17 2.31.99 3.67z"/>
    <linearGradient id="SVGID_19_" x1="117.05" x2="127.97" y1="29.55" y2="20.386" gradientUnits="userSpaceOnUse">
      <stop stop-color="#fff" stop-opacity="0" offset="0"/>
      <stop stop-color="#fff" offset=".5307"/>
      <stop stop-color="#fff" stop-opacity="0" offset="1"/>
    </linearGradient>
    <path class="st25" d="m129.5 23.01-.07.01c-.23.05-.47.09-.7.14l-.25-.55c-.26-.58-.62-1.11-1.07-1.57l-.46-.47c.18-.22.35-.43.53-.65l.05-.06-.06-.04c-.29-.22-.57-.44-.86-.66l-.05-.04-.65.8-.54-.22c-.55-.22-1.13-.37-1.73-.44l-.65-.08-.04-1.21h-.07c-.37.01-.74.03-1.1.04h-.07l.05 1.21c-.21.04-.43.08-.64.13-.59.12-1.16.31-1.69.57-.17.08-.35.17-.52.25-.22-.23-.44-.46-.66-.7l-.05-.05-.05.05c-.27.24-.54.48-.81.73l-.05.05.62.66c-.14.17-.28.33-.42.5-.41.49-.73 1.04-.95 1.64l-.21.57-.78-.1-.15 1.2.78.1.05.61c.05.66.2 1.29.45 1.87l.25.58c-.21.13-.42.27-.63.4l-.06.04.04.06c.2.3.39.6.59.9l.04.06.74-.47.43.39c.45.41.96.74 1.52 1 .2.09.4.18.6.28-.1.32-.21.65-.31.97l-.02.07.07.02c.34.11.68.21 1.02.32l.07.02.36-1.13.59.04c.33.02.6.03.86.02s.53-.04.86-.08l.59-.09.45 1.1 1.13-.45-.41-1.01.58-.32c.54-.3 1.02-.67 1.44-1.11l.4-.42c.24.13.48.25.71.38l.06.03.03-.06c.17-.31.34-.63.52-.94l.03-.06-.72-.39.2-.6c.21-.6.31-1.24.31-1.9v-.61l.77-.15-.29-1.18zm-.67 1.95c0 .64-.1 1.26-.3 1.85l-.24.71.7.38c-.15.27-.3.54-.45.82-.23-.13-.47-.25-.7-.38l-.05-.03-.47.5c-.4.43-.88.79-1.4 1.08l-.69.38.4 1-.87.35-.43-1.07-.7.1c-.32.05-.59.07-.84.08-.26.01-.52 0-.85-.02l-.7-.05-.35 1.1c-.3-.09-.59-.19-.89-.28.1-.32.2-.64.31-.96l.02-.06-.06-.03c-.22-.1-.44-.2-.66-.3-.55-.25-1.04-.58-1.48-.98l-.51-.46-.71.45c-.17-.26-.34-.52-.51-.78.21-.13.41-.26.62-.39l.05-.03-.29-.69c-.24-.57-.39-1.19-.44-1.83l-.05-.73-.76-.09.12-.92.75.09.24-.68c.21-.59.52-1.12.92-1.6.15-.18.31-.37.47-.55l.04-.05-.61-.65c.23-.21.47-.42.7-.63.22.23.43.46.65.68l.04.04.05-.02c.19-.09.38-.18.57-.28.52-.25 1.08-.44 1.66-.55.23-.05.47-.09.7-.14l.06-.01-.05-1.19c.32-.01.64-.02.96-.04l.04 1.19.77.09c.59.07 1.16.22 1.69.43l.64.25.63-.78c.25.19.5.38.75.58-.18.21-.35.43-.52.65l-.04.05.55.56c.44.44.78.96 1.04 1.52l.29.66.06-.01c.23-.05.46-.09.69-.14l.19.91-.75.15v.75z"/>
    <linearGradient id="SVGID_20_" x1="119.28" x2="125.95" y1="27.828" y2="22.226" gradientUnits="userSpaceOnUse">
      <stop stop-color="#fff" stop-opacity="0" offset="0"/>
      <stop stop-color="#fff" offset=".5307"/>
      <stop stop-color="#fff" stop-opacity="0" offset="1"/>
    </linearGradient>
    <path class="st26" d="m122.49 20.77c-1.26.05-2.4.56-3.2 1.44-.75.82-1.14 1.89-1.09 3 .11 2.3 2.08 4.11 4.44 4.11h.17c2.41-.09 4.24-2.04 4.17-4.44-.03-1.14-.5-2.19-1.32-2.96-.84-.79-1.96-1.2-3.17-1.15zm.31 8.4h-.17c-2.28 0-4.19-1.75-4.3-3.98-.05-1.08.32-2.11 1.05-2.9.78-.85 1.89-1.35 3.11-1.39 1.16-.05 2.25.35 3.07 1.12.79.74 1.24 1.76 1.27 2.86.07 2.32-1.7 4.21-4.03 4.29z"/>
  </g>
  <g class="st27">
    <linearGradient id="SVGID_21_" x1="104.51" x2="111.96" y1="45.607" y2="36.723" gradientUnits="userSpaceOnUse">
      <stop stop-color="#fff" stop-opacity="0" offset="0"/>
      <stop stop-color="#fff" offset=".5307"/>
      <stop stop-color="#fff" stop-opacity="0" offset="1"/>
    </linearGradient>
    <path class="st28" d="m105.51 37.77h4.04v5.81c0 1.17-.72 1.95-1.8 1.95-.7 0-1.52-.33-2.31-.92l-.06-.04-.78 1.12.05.04c.96.86 2.07 1.28 3.39 1.28 2.31 0 3.58-1.19 3.58-3.35v-7.22h-6.12v1.33zm.15-1.18h5.83v7.08c0 2.07-1.22 3.21-3.44 3.21-1.26 0-2.32-.39-3.24-1.2l.62-.9c.79.59 1.62.91 2.33.91 1.16 0 1.94-.84 1.94-2.1v-5.95h-4.04v-1.05z"/>
    <linearGradient id="SVGID_22_" x1="115.13" x2="116.49" y1="37.701" y2="36.075" gradientUnits="userSpaceOnUse">
      <stop stop-color="#fff" stop-opacity="0" offset="0"/>
      <stop stop-color="#fff" offset=".5307"/>
      <stop stop-color="#fff" stop-opacity="0" offset="1"/>
    </linearGradient>
    <path class="st29" d="m115.43 36.45v1.51l1.51-1.51h-1.51zm.14.14h1.02l-1.02 1.02v-1.02z"/>
    <linearGradient id="SVGID_23_" x1="123.49" x2="124.99" y1="36.574" y2="34.787" gradientUnits="userSpaceOnUse">
      <stop stop-color="#fff" stop-opacity="0" offset="0"/>
      <stop stop-color="#fff" offset=".5307"/>
      <stop stop-color="#fff" stop-opacity="0" offset="1"/>
    </linearGradient>
    <path class="st30" d="m125.13 37.95v-3.05h-3.04l3.04 3.05zm-.14-.34-2.56-2.56h2.56v2.56z"/>
    <linearGradient id="SVGID_24_" x1="116.89" x2="123.47" y1="45.954" y2="38.12" gradientUnits="userSpaceOnUse">
      <stop stop-color="#fff" stop-opacity="0" offset="0"/>
      <stop stop-color="#fff" offset=".5307"/>
      <stop stop-color="#fff" stop-opacity="0" offset="1"/>
    </linearGradient>
    <path class="st31" d="m123.09 42.58c0 1.75-1.13 2.97-2.75 2.97-1.66 0-2.87-1.25-2.87-2.97v-3.07h-2.04v3.07c0 2.74 1.88 4.43 4.89 4.43 2.97 0 4.81-1.7 4.81-4.43v-3.07h-2.04v3.07zm.14-2.92h1.75v2.92c0 2.65-1.79 4.29-4.67 4.29-2.93 0-4.75-1.65-4.75-4.29v-2.92h1.76v2.92c0 1.81 1.27 3.12 3.01 3.12 1.7 0 2.9-1.28 2.9-3.12v-2.92z"/>
    <linearGradient id="SVGID_25_" x1="130.43" x2="140.44" y1="47.951" y2="36.016" gradientUnits="userSpaceOnUse">
      <stop stop-color="#fff" stop-opacity="0" offset="0"/>
      <stop stop-color="#fff" offset=".5307"/>
      <stop stop-color="#fff" stop-opacity="0" offset="1"/>
    </linearGradient>
    <path class="st32" d="m139.48 36.17-.12.28h-.96l-3.36 7.72-4.03-9.26h-1.88v11.95h1.61v-9.98l1.44 3.39 2.21 5.41h1.31l2.21-5.41 1.44-3.41.02 13.06v.08h1.6v-13.55h-1.47l-.02-.28zm-1.71 4.05-2.17 5.33h-1.11l-2.17-5.33-1.71-4.04v10.54h-1.33v-11.67h1.65l4.12 9.47 3.45-7.93h.81l-1.54 3.63zm3.04 9.64h-1.31l-.02-13.27h1.33v13.27z"/>
    <linearGradient id="SVGID_26_" x1="143.83" x2="151.71" y1="45.757" y2="36.37" gradientUnits="userSpaceOnUse">
      <stop stop-color="#fff" stop-opacity="0" offset="0"/>
      <stop stop-color="#fff" offset=".5307"/>
      <stop stop-color="#fff" stop-opacity="0" offset="1"/>
    </linearGradient>
    <path class="st33" d="m149.8 36.45h-4.66v10.42h2.04v-3.21h2.62c1.87 0 4.09-.65 4.09-3.72.01-2.89-2.22-3.49-4.09-3.49zm0 7.06h-2.76v3.21h-1.76v-10.13h4.51c1.8 0 3.95.58 3.95 3.34.01 2.96-2.14 3.58-3.94 3.58z"/>
    <linearGradient id="SVGID_27_" x1="146.94" x2="150.93" y1="42.482" y2="37.729" gradientUnits="userSpaceOnUse">
      <stop stop-color="#fff" stop-opacity="0" offset="0"/>
      <stop stop-color="#fff" offset=".5307"/>
      <stop stop-color="#fff" stop-opacity="0" offset="1"/>
    </linearGradient>
    <path class="st34" d="m149.63 37.53h-2.59v5.04h2.59c1.55 0 2.56-1 2.56-2.54 0-1.52-1.01-2.5-2.56-2.5zm0 4.9h-2.45v-4.76h2.45c1.47 0 2.41.93 2.41 2.36.01 1.46-.94 2.4-2.41 2.4z"/>
    <linearGradient id="SVGID_28_" x1="159.6" x2="163.68" y1="48.678" y2="43.822" gradientUnits="userSpaceOnUse">
      <stop stop-color="#fff" stop-opacity="0" offset="0"/>
      <stop stop-color="#fff" offset=".5307"/>
      <stop stop-color="#fff" stop-opacity="0" offset="1"/>
    </linearGradient>
    <path class="st35" d="m157.44 46.86h8.41v-1.22h-8.41v1.22zm.14-1.08h8.13v.93h-8.13v-.93z"/>
    <linearGradient id="SVGID_29_" x1="159.55" x2="163.56" y1="39.447" y2="34.671" gradientUnits="userSpaceOnUse">
      <stop stop-color="#fff" stop-opacity="0" offset="0"/>
      <stop stop-color="#fff" offset=".5307"/>
      <stop stop-color="#fff" stop-opacity="0" offset="1"/>
    </linearGradient>
    <path class="st36" d="m165.68 36.45h-8.24v1.22h8.24v-1.22zm-.14 1.08h-7.96v-.94h7.96v.94z"/>
    <linearGradient id="SVGID_30_" x1="158.82" x2="161.8" y1="43.421" y2="39.874" gradientUnits="userSpaceOnUse">
      <stop stop-color="#fff" stop-opacity="0" offset="0"/>
      <stop stop-color="#fff" offset=".5307"/>
      <stop stop-color="#fff" stop-opacity="0" offset="1"/>
    </linearGradient>
    <path class="st37" d="m163.18 41.04h-5.75v1.22h5.75v-1.22zm-.14 1.08h-5.46v-.94h5.46v.94z"/>
    <linearGradient id="SVGID_31_" x1="171.62" x2="175.74" y1="42.562" y2="37.649" gradientUnits="userSpaceOnUse">
      <stop stop-color="#fff" stop-opacity="0" offset="0"/>
      <stop stop-color="#fff" offset=".5307"/>
      <stop stop-color="#fff" stop-opacity="0" offset="1"/>
    </linearGradient>
    <path class="st38" d="m177.09 40.03c0-1.52-1-2.5-2.55-2.5h-2.91v5.04h2.91c1.55 0 2.55-1 2.55-2.54zm-2.55 2.4h-2.77v-4.76h2.77c1.47 0 2.41.93 2.41 2.36 0 1.46-.95 2.4-2.41 2.4z"/>
    <linearGradient id="SVGID_32_" x1="169.78" x2="177.78" y1="46.902" y2="37.37" gradientUnits="userSpaceOnUse">
      <stop stop-color="#fff" stop-opacity="0" offset="0"/>
      <stop stop-color="#fff" offset=".5307"/>
      <stop stop-color="#fff" stop-opacity="0" offset="1"/>
    </linearGradient>
    <path class="st39" d="m177.2 43.07c1.08-.61 1.63-1.66 1.63-3.14 0-2.88-2.33-3.48-4.28-3.48h-4.81v10.42h2.04v-3.21h3.08l1.58 3.21h2.2l-2.11-3.41.67-.39zm1.18 3.65h-1.86l-1.58-3.21h-3.31v3.21h-1.75v-10.13h4.67c1.89 0 4.14.58 4.14 3.34 0 1.42-.52 2.43-1.55 3.01l-.81.46 2.05 3.32z"/>
  </g>
  <polygon class="st4" points="82.74 76.15 84.49 74.4 199.04 74.4 200.85 76.21 200.85 92.26 199.07 94.04 84.42 94.04 82.77 92.39"/>
  <polygon class="st5" points="84.96 76.16 199.16 91.98 199.32 76.44 198.56 75.64 84.79 75.8"/>
  <path class="st1" d="m198.61 75.5h-113.82l-.94.98v15.51l.96 1.01h113.85l.96-1.06.04-15.46-1.05-.98zm.36 16.3-.6.6h-113.34l-.59-.69.05-15 .61-.56h113.26l.69.56-.08 15.09z"/>
  <polygon class="st5" points="84.3 74.45 84.43 74.63 84.79 75.46 198.44 75.5 198.96 75.75 199.62 76.45 199.63 84.08 200.47 75.96 199.04 74.4"/>
  <path class="st5" d="m94.67 78.62 89.27 12.45s-32.79-3.47-45.63-5.28c-16.87-2.36-43.64-7.17-43.64-7.17z"/>
  <path d="m199.21 74.14h-114.95l-1.77 1.77v16.68l1.77 1.77h114.95l1.77-1.77v-16.68l-1.77-1.77zm1.2 18.21-1.44 1.44h-114.48l-1.44-1.44v-16.2l1.44-1.44h114.48l1.44 1.44v16.2z"/>
  <path d="m84.76 75.35-1.06 1.06v15.67l1.06 1.06h113.94l1.06-1.06v-15.66l-1.06-1.06h-113.94zm114.61 1.07-.32.13-.49-.49.15-.31.66.67zm.11 15.38-.32-.13v-14.86l.32-.13v15.12zm-.79.96-.14-.32.5-.5.32.13-.68.69zm-114.61-.69.31-.14.5.5-.13.32-.68-.68zm-.1-15.36.32.12v14.82l-.32.14v-15.08zm.79-.97.13.33-.5.5-.33-.13.7-.7zm114.1 1.03v0c0 .01.01.02.01.02v14.92l-.54.54h-113.21l-.54-.54v-14.93l.54-.54h113.21l.53.53zm-.58-.81h-113.13l-.13-.32h113.4l-.14.32zm-113.14 16.58h113.14l.14.32h-113.4l.12-.32z"/>
  <circle cx="197.09" cy="78.03" r=".57"/>
  <path d="m197.09 79.06c-.57 0-1.03-.46-1.03-1.03s.46-1.03 1.03-1.03 1.03.46 1.03 1.03-.46 1.03-1.03 1.03zm0-1.78c-.41 0-.75.34-.75.75s.34.75.75.75.75-.34.75-.75-.33-.75-.75-.75z"/>
  <circle cx="86.37" cy="90.48" r=".57"/>
  <path d="m86.37 91.51c-.57 0-1.03-.46-1.03-1.03s.46-1.03 1.03-1.03 1.03.46 1.03 1.03-.46 1.03-1.03 1.03zm0-1.78c-.41 0-.75.34-.75.75s.34.75.75.75.75-.34.75-.75-.34-.75-.75-.75z"/>
  <circle cx="197.09" cy="90.48" r=".57"/>
  <path d="m196.06 90.48c0-.57.46-1.03 1.03-1.03s1.03.46 1.03 1.03-.46 1.03-1.03 1.03-1.03-.46-1.03-1.03zm1.78 0c0-.41-.34-.75-.75-.75s-.75.34-.75.75.34.75.75.75.75-.34.75-.75z"/>
  <circle cx="86.37" cy="78.03" r=".57"/>
  <path d="m85.34 78.03c0-.57.46-1.03 1.03-1.03s1.03.46 1.03 1.03-.46 1.03-1.03 1.03-1.03-.46-1.03-1.03zm1.78 0c0-.41-.34-.75-.75-.75s-.75.34-.75.75.34.75.75.75c.41-.01.75-.34.75-.75z"/>
  <polygon class="st4" points="82.74 101.7 84.49 99.95 199.04 99.95 200.85 101.76 200.85 117.81 199.07 119.59 84.42 119.59 82.77 117.94"/>
  <polygon class="st5" points="84.96 101.71 199.16 117.53 199.32 101.99 198.56 101.19 84.79 101.35"/>
  <path class="st1" d="m198.61 101.05h-113.82l-.94.98v15.51l.97 1.01h113.85l.96-1.06.04-15.46-1.06-.98zm.36 16.3-.6.6h-113.34l-.59-.69.05-15 .61-.56h113.26l.69.56-.08 15.09z"/>
  <polygon class="st5" points="84.3 100 84.43 100.17 84.79 101 198.44 101.05 198.96 101.3 199.62 101.99 199.63 109.63 200.47 101.51 199.04 99.95"/>
  <path class="st5" d="m94.67 104.17 89.27 12.45s-32.79-3.47-45.63-5.28c-16.87-2.36-43.64-7.17-43.64-7.17z"/>
  <path d="m199.21 99.69h-114.95l-1.77 1.77v16.68l1.77 1.77h114.95l1.77-1.77v-16.68l-1.77-1.77zm1.2 18.21-1.44 1.44h-114.48l-1.44-1.44v-16.2l1.44-1.44h114.48l1.44 1.44v16.2z"/>
  <path d="m84.76 100.9-1.06 1.06v15.67l1.06 1.06h113.94l1.06-1.06v-15.67l-1.06-1.06h-113.94zm114.61 1.07-.32.13-.49-.49.15-.31.66.67zm.11 15.38-.32-.13v-14.86l.32-.13v15.12zm-.79.95-.14-.32.5-.5.32.13-.68.69zm-114.61-.68.31-.14.5.5-.13.32-.68-.68zm-.1-15.36.32.12v14.82l-.32.14v-15.08zm.79-.97.13.33-.5.5-.33-.13.7-.7zm114.1 1.03v0c0 .01.01.02.01.02v14.92l-.54.54h-113.21l-.54-.54v-14.93l.54-.54h113.21l.53.53zm-.58-.81h-113.13l-.13-.32h113.4l-.14.32zm-113.14 16.58h113.14l.14.32h-113.4l.12-.32z"/>
  <circle cx="197.09" cy="103.57" r=".57"/>
  <path d="m197.09 104.61c-.57 0-1.03-.46-1.03-1.03s.46-1.03 1.03-1.03 1.03.46 1.03 1.03-.46 1.03-1.03 1.03zm0-1.78c-.41 0-.75.34-.75.75s.34.75.75.75.75-.34.75-.75c0-.42-.33-.75-.75-.75z"/>
  <circle cx="86.37" cy="116.02" r=".57"/>
  <path d="m86.37 117.06c-.57 0-1.03-.46-1.03-1.03s.46-1.03 1.03-1.03 1.03.46 1.03 1.03-.46 1.03-1.03 1.03zm0-1.78c-.41 0-.75.34-.75.75s.34.75.75.75.75-.34.75-.75c0-.42-.34-.75-.75-.75z"/>
  <circle cx="197.09" cy="116.02" r=".57"/>
  <path d="m196.06 116.02c0-.57.46-1.03 1.03-1.03s1.03.46 1.03 1.03-.46 1.03-1.03 1.03-1.03-.46-1.03-1.03zm1.78 0c0-.41-.34-.75-.75-.75s-.75.34-.75.75.34.75.75.75.75-.33.75-.75z"/>
  <circle cx="86.37" cy="103.57" r=".57"/>
  <path d="m85.34 103.57c0-.57.46-1.03 1.03-1.03s1.03.46 1.03 1.03-.46 1.03-1.03 1.03c-.57.01-1.03-.46-1.03-1.03zm1.78 0c0-.41-.34-.75-.75-.75s-.75.34-.75.75.34.75.75.75.75-.33.75-.75z"/>
  <polygon class="st4" points="82.74 127.25 84.49 125.5 199.04 125.5 200.85 127.31 200.85 143.35 199.07 145.14 84.42 145.14 82.77 143.49"/>
  <polygon class="st5" points="84.96 127.25 199.16 143.08 199.32 127.54 198.56 126.74 84.79 126.9"/>
  <path class="st1" d="m198.61 126.59h-113.82l-.94.98v15.51l.97 1.01h113.85l.96-1.06.04-15.46-1.06-.98zm.36 16.31-.6.6h-113.34l-.59-.69.05-15 .61-.56h113.26l.69.56-.08 15.09z"/>
  <polygon class="st5" points="84.3 125.55 84.43 125.72 84.79 126.55 198.44 126.59 198.96 126.85 199.62 127.54 199.63 135.18 200.47 127.06 199.04 125.5"/>
  <path class="st5" d="m94.67 129.72 89.27 12.45s-32.79-3.47-45.63-5.28c-16.87-2.36-43.64-7.17-43.64-7.17z"/>
  <path d="m199.21 125.24h-114.95l-1.77 1.77v16.68l1.77 1.77h114.95l1.77-1.77v-16.68l-1.77-1.77zm1.2 18.21-1.44 1.44h-114.48l-1.44-1.44v-16.2l1.44-1.44h114.48l1.44 1.44v16.2z"/>
  <path d="m84.76 126.45-1.06 1.06v15.67l1.06 1.06h113.94l1.06-1.06v-15.67l-1.06-1.06h-113.94zm114.61 1.07-.32.13-.49-.49.15-.31.66.67zm.11 15.38-.32-.13v-14.86l.32-.13v15.12zm-.79.95-.14-.32.5-.5.32.13-.68.69zm-114.61-.68.31-.14.5.5-.13.32-.68-.68zm-.1-15.36.32.12v14.82l-.32.14v-15.08zm.79-.97.13.33-.5.5-.33-.13.7-.7zm114.1 1.03v0c0 .01.01.02.01.02v14.92l-.54.54h-113.21l-.54-.54v-14.93l.54-.54h113.21l.53.53zm-.58-.81h-113.13l-.13-.32h113.4l-.14.32zm-113.14 16.58h113.14l.14.32h-113.4l.12-.32z"/>
  <circle cx="197.09" cy="129.12" r=".57"/>
  <path d="m197.09 130.16c-.57 0-1.03-.46-1.03-1.03s.46-1.03 1.03-1.03 1.03.46 1.03 1.03-.46 1.03-1.03 1.03zm0-1.78c-.41 0-.75.34-.75.75s.34.75.75.75.75-.34.75-.75c0-.42-.33-.75-.75-.75z"/>
  <circle cx="86.37" cy="141.57" r=".57"/>
  <path d="m86.37 142.61c-.57 0-1.03-.46-1.03-1.03s.46-1.03 1.03-1.03 1.03.46 1.03 1.03-.46 1.03-1.03 1.03zm0-1.78c-.41 0-.75.34-.75.75s.34.75.75.75.75-.34.75-.75c0-.42-.34-.75-.75-.75z"/>
  <circle cx="197.09" cy="141.57" r=".57"/>
  <path d="m196.06 141.57c0-.57.46-1.03 1.03-1.03s1.03.46 1.03 1.03-.46 1.03-1.03 1.03-1.03-.46-1.03-1.03zm1.78 0c0-.41-.34-.75-.75-.75s-.75.34-.75.75.34.75.75.75.75-.33.75-.75z"/>
  <circle cx="86.37" cy="129.12" r=".57"/>
  <path d="m85.34 129.12c0-.57.46-1.03 1.03-1.03s1.03.46 1.03 1.03-.46 1.03-1.03 1.03c-.57.01-1.03-.46-1.03-1.03zm1.78 0c0-.41-.34-.75-.75-.75s-.75.34-.75.75.34.75.75.75.75-.33.75-.75z"/>
</svg>
