<?xml version="1.0" encoding="UTF-8"?>
<svg width="145.46" height="264.46" version="1.1" viewBox="0 0 145.46 264.46" xmlns="http://www.w3.org/2000/svg">
  <style type="text/css">.st0{fill:#6EA7BD;}
	.st1{fill:#4D90A5;}
	.st2{fill:#8DD1E7;}
	.st3{fill:#767676;}
	.st4{fill:#4E4D4D;}</style>
  <g id="SPREZYNA" transform="translate(-74.033 -59.693)">
    <path d="m124.99 215.57c5.28 2.53 12.86 4.17 22.31 4.71 9.67.4 18.08-.81 23.65-3.4 1.28-.59 2.08-1.93 2.08-3.5s-.8-2.91-2.07-3.49c-5.59-2.59-13.99-3.8-23.69-3.4-9.42.53-16.98 2.16-22.26 4.68-3.17-1.9-4.69-4.08-4.69-6.16 0-2.37 1.75-4.52 4.9-6.32 4.7 2.43 11.72 4.25 22.07 4.84 9.68.4 18.08-.81 23.66-3.4 1.28-.59 2.08-1.93 2.08-3.5s-.8-2.91-2.07-3.49c-5.59-2.59-13.99-3.8-23.69-3.4-9.26.52-16.73 2.11-21.99 4.55-3.03-2-4.95-4.71-4.95-8.33 0-1.07-.86-1.93-1.93-1.93s-1.93.86-1.93 1.93c0 3.41 1.2 7.2 5.16 10.4-3.36 2.37-5.16 5.28-5.16 8.63 0 3.22 1.67 6.05 4.81 8.37-3.14 2.32-4.81 5.15-4.81 8.38 0 3.22 1.67 6.05 4.81 8.37-3.14 2.32-4.81 5.15-4.81 8.38 0 5.35 5.61 11.04 16 11.04 1.06 0 1.93-.86 1.93-1.93s-.86-1.93-1.93-1.93c-8.84 0-12.14-4.4-12.14-7.18 0-2.31 1.67-4.42 4.66-6.18 5.28 2.53 12.86 4.17 22.31 4.71 9.67.4 18.08-.81 23.65-3.4 1.28-.59 2.08-1.93 2.08-3.5s-.8-2.91-2.07-3.49c-5.59-2.59-13.99-3.81-23.69-3.4-9.42.53-16.98 2.16-22.26 4.68-3.17-1.9-4.69-4.08-4.69-6.16.01-2.31 1.67-4.42 4.67-6.18zm22.47-5.23c8.84-.36 16.73.72 21.72 2.97v.14c-4.97 2.26-12.86 3.34-21.68 2.98-7.47-.43-13.29-1.54-17.6-3.04 4.56-1.58 10.57-2.66 17.56-3.05zm0-16.74c8.84-.37 16.73.72 21.71 2.97.01.04.01.09 0 .14-4.98 2.26-12.87 3.33-21.68 2.98-5.91-.34-12.37-1.19-17.5-3.08 4.55-1.56 10.52-2.62 17.47-3.01zm0 33.48c8.83-.37 16.72.72 21.71 2.97.01.04.01.09 0 .14-4.97 2.26-12.87 3.34-21.68 2.98-7.47-.43-13.29-1.54-17.6-3.04 4.57-1.58 10.58-2.65 17.57-3.05z"/>
  </g>
  <g id="NOGA" transform="translate(-73.7 -31.014)">
    <path class="st0" d="m112.76 256.29c-4.35 10-5.76 15.41-5.53 21.06h78.82s-.59-14.35-6.24-21.06z"/>
    <path class="st1" d="m109.94 265.41s.79 5.65 1.32 6.53h67.59c2.03 0 2.12-10.76.62-14.56l4.63 7.87 1.94 11.71-78.83-.96z"/>
    <path class="st2" d="m116.47 257.38s26.29 9.44 59.91 0z"/>
    <path class="st3" d="m130.29 256.29s3.76-7.53 18.59-7.18 14.12 8.26 14.12 8.26z"/>
    <path class="st4" d="m148.88 249.12c-4.11-.1-7.36.41-9.93 1.2 7.14 1.02 13.94 3.51 20.28 6.94l3.76.13c.01-.01.72-7.92-14.11-8.27z"/>
    <path d="m181.73 255.41c-.36-.62-1.02-1-1.73-1h-14.47c-4.3-4.88-11.35-7.76-19.1-7.76s-14.8 2.89-19.1 7.76h-14.47c-.72 0-1.38.38-1.73 1-4.26 7.4-6.43 14.84-6.27 21.52.03 1.08.91 1.95 2 1.95h79.14c1.09 0 1.97-.87 2-1.95.16-6.68-2.01-14.12-6.27-21.52zm-35.31-4.76c4.9 0 9.57 1.38 13.07 3.76h-26.14c3.5-2.38 8.17-3.76 13.07-3.76zm-37.54 24.23c.26-5.14 2.02-10.78 5.14-16.47h64.8c3.12 5.69 4.88 11.33 5.14 16.47z"/>
  </g>
  <path class="st0" d="m21.164 64.533 8.38 32.21s41.65 10.41 88.85-1.76l1.06-16.2-3-.66 5.82-50.03s-44.65-13.76-95.65 1.06l3.09 36.35z"/>
  <path class="st2" d="m79.104 23.413c-24.35 3.29-46.47 9.76-46.47 9.76l21.41 11.29-9.76 10.47s-3.18-2.12-6.35-8.71l-3.53-1.06 1.06 16.4 28.71 6.89-35.06-3.29-2.48-36.02 24.25-5.15 23.17-1.72z"/>
  <polygon class="st2" transform="translate(-72.366,-89.707)" points="115.85 156.18 93.53 154.24 95.47 160.32 108.26 161.38 113.47 177.44 113.47 161.91 127.06 163.24 131.65 176.38 132.88 164.12 146.2 165.97 149.38 175.85 149.38 161.21"/>
  <path class="st1" d="m111.59 55.193c2.49.04 4.98-.03 7.47-.11.52-4.81.9-8.49.83-8.61-.2-.35 2.39-18.38 2.39-18.38s-26-4.91-27.53-5.15c-1.53-.23-17.74 0-17.74 0 16.56 1.18 37.15 9.77 37.15 9.77s-1.37 10.66-2.57 22.48z"/>
  <path class="st1" d="m114.4 67.463c-1.37.59-2.85 1.29-4.1 2.1-.05.66-.1 1.33-.14 1.97 0 0-8.5 2.68-31.53 3.65l-.24 5.41 38.06-2.47s.63-5.41 1.35-11.76c-.85.23-1.7.48-2.54.74-.28.12-.58.24-.86.36z"/>
  <path class="st1" d="m30.604 95.763c25.68 2.12 56.75 1.34 73.68-2.47 0 0-6-7.68 2.82-9.79l-3.88-2.91 16.24-1.81-.53 17.08-31.68 4.32-32.65.7z"/>
  <path class="st1" d="m116.01 67.043s-10.24 2.42-22.68 3.22v-11.12s18.53-1.85 25.32-4.32z"/>
  <polygon class="st1" transform="translate(-72.366,-89.707)" points="161.18 151.6 166.24 152.3 166.24 150.35"/>
  <polygon class="st1" transform="translate(-72.366,-89.707)" points="161.18 154.93 166.24 155.62 166.24 153.68"/>
  <polygon class="st1" transform="translate(-72.366,-89.707)" points="161.41 158 166.47 158.69 166.47 156.75"/>
  <path d="m108 91.373c1.66-.06 2.95-1.46 2.88-3.11-.06-1.66-1.46-2.95-3.11-2.88s-2.95 1.46-2.88 3.11 1.46 2.94 3.11 2.88z"/>
  <path d="m122.81 26.573c-45.09-15.03-96.96.59-97.48.75-.89.27-1.48 1.13-1.41 2.06.72 9.73 2.57 27.63 3.24 33.97-3.52-.32-5.84-.51-6.21-.54-.69-.06-1.35.24-1.76.79s-.52 1.27-.28 1.91c.62 1.65 5.3 19.81 8.29 31.61.18.72.74 1.27 1.46 1.45 16.72 4.14 33.04 5.01 46.9 4.49 22.87-.86 43.31-5.82 43.57-5.89.72-.21 1.26-.81 1.4-1.55.97-5.27 1.06-17.11 1.06-17.61 0-.59-.26-1.16-.71-1.54s-1.05-.54-1.64-.44c-.29.05-.61.1-.92.15 2.74-32.14 5.78-47.14 5.81-47.29.21-1.01-.36-2-1.32-2.32zm-6.02 67.08c-6.98 1.82-47.4 10.52-86.01 1.31-1.25-4.92-5.36-21.07-7.25-27.92 3.05.27 8.24.74 14.32 1.35.34 2.92.77 5.83 1.15 8.75l1.39 10.24c.15 1.09 1.16 1.86 2.25 1.71s1.85-1.15 1.71-2.24l-1.33-10.25c-.35-2.6-.65-5.2-1.02-7.79 4.9.51 10.15 1.09 15.21 1.71l1.41 16.08c.09 1.07 1.01 1.86 2.07 1.82.03 0 .07 0 .1-.01 1.1-.1 1.91-1.07 1.82-2.17l-1.33-15.21c5.49.72 10.55 1.49 14.42 2.26l.47 12.54c.04 1.1.97 1.96 2.07 1.92s1.96-.97 1.92-2.07l-.11-2.92c5.41-.16 27.35-1.05 37.49-2.45-.04 3.36-.23 9.52-.75 13.34zm-2.52-16.96c-.75.08-1.54.16-2.09.22-9.99.97-27.76 1.72-32.26 1.86l-.27-7.19c-.03-.91-.68-1.68-1.57-1.88-9.92-2.17-29.25-4.28-42.67-5.59-1.02-.1-2.69-.26-4-.38-.06-.01-.11-.01-.17-.02-.55-5.19-2.37-22.6-3.19-33.01 8.69-2.38 52.69-13.23 91.85-.88-.89 4.91-3.38 20.13-5.63 46.87z"/>
  <path d="m66.112 45.772-28.748-7.2722c-1.07-.26-2.15.4-2.41 1.48s.4 2.15 1.48 2.41c11.191 2.6762 17.554 4.5954 28.748 7.2622.16.04.31.06.47.06.9 0 1.72-.62 1.94-1.53.26-1.07-.41-2.15-1.48-2.41z"/>
  <path d="m76.072 48.026c.22.92 1.04 1.53 1.94 1.53.15 0 .31-.02.47-.06 11.192-2.6725 18.336-4.4257 29.525-7.1066 1.07-.26 1.74-1.34 1.48-2.41s-1.34-1.74-2.41-1.48l-29.525 7.1166c-1.08.26-1.74 1.34-1.48 2.41z"/>
  <path d="m61.731 33.416-23.409 18.203c-.86286.68408-1.0063 1.9416-.31428 2.8106.69197.86901 1.9416 1.0063 2.8106.31429 8.9905-7.1812 14.416-11.02 23.401-18.209.12991-.1016.2379-.20761.33626-.33381.55329-.70984.56839-1.7377-.01409-2.4707-.68408-.86286-1.9478-.99837-2.8106-.31429z"/>
  <path d="m79.879 32.645c-.62625.70895-.65389 1.7306-.13644 2.467.08624.12273.1946.24214.31932.35005 8.6213 7.6205 14.163 12.457 22.79 20.071.82792.72598 2.0968.65323 2.8228-.17469.72599-.82792.65323-2.0968-.17469-2.8228l-22.798-20.066c-.83367-.73416-2.0968-.65323-2.8228.17469z"/>
</svg>
