<?xml version="1.0" encoding="UTF-8"?>
<svg enable-background="new 0 0 113.39 56.69" version="1.1" viewBox="0 0 113.39 56.69" xmlns="http://www.w3.org/2000/svg">
  <style type="text/css">.st0{fill:#767676;}
	.st1{fill:#4E4D4D;}</style>
  <g id="cog">
    <path class="st0" d="m35.79 22.13-1.96.51-.11-.17c-.42-.64-.89-1.25-1.41-1.8l-.15-.15 1.02-1.74c.18-.3.22-.65.14-.99-.09-.34-.3-.62-.61-.8l-3.92-2.29c-.29-.17-.64-.21-.99-.12s-.63.3-.8.59l-1.06 1.82-.2-.05c-.73-.16-1.48-.26-2.22-.29l-.21-.01-.52-2c-.18-.7-.9-1.12-1.6-.93l-4.39 1.15c-.7.18-1.12.9-.93 1.6l.52 2-.18.11c-.65.4-1.26.86-1.83 1.37l-.15.14-1.72-1c-.3-.18-.65-.22-.99-.13s-.62.3-.8.6l-2.29 3.92c-.36.62-.15 1.43.47 1.79l1.66.97-.05.2c-.19.77-.31 1.57-.35 2.37l-.01.2-1.77.47c-.7.18-1.12.9-.93 1.6l1.15 4.39c.18.7.9 1.12 1.6.93l1.7-.45.11.18c.43.71.94 1.39 1.51 2.01l.14.15-.85 1.46c-.36.62-.15 1.42.47 1.79l3.92 2.29c.3.18.65.22.99.14.34-.09.62-.3.8-.6l.85-1.45.2.05c.84.2 1.69.31 2.54.34l.21.01.41 1.58c.18.7.9 1.12 1.6.93l4.39-1.15c.7-.18 1.12-.9.93-1.6l-.44-1.67.17-.11c.71-.45 1.38-.97 1.98-1.55l.15-.15 1.48.87c.3.17.65.22.99.13s.62-.3.8-.6l2.29-3.92c.36-.62.15-1.43-.47-1.79l-1.61-.94.04-.2c.17-.79.26-1.59.28-2.39v-.21l1.8-.47c.7-.18 1.12-.9.93-1.6l-1.15-4.39c-.16-.72-.87-1.14-1.57-.95zm-11.36 12.92c-3.08.81-6.24-1.04-7.05-4.12s1.04-6.24 4.12-7.05 6.24 1.04 7.05 4.12-1.03 6.24-4.12 7.05z"/>
    <path class="st1" d="m34.63 25.1-1.97.52c-.13.03-.26-.02-.33-.13l-.95-1.47c-.33-.51-.71-1-1.13-1.44l-1.25-1.33c-.09-.1-.11-.24-.04-.36l1.05-1.8c.08-.14.04-.33-.11-.41l-1.2-.7c-.14-.08-.33-.04-.41.11l-1.08 1.84c-.07.11-.2.17-.33.14l-1.72-.38c-.58-.13-1.17-.21-1.77-.23l-1.81-.08c-.13-.01-.25-.1-.28-.23l-.54-2.04c-.04-.16-.21-.26-.37-.22l-1.35.35c-.16.04-.26.21-.22.37l.54 2.04c.03.13-.02.26-.13.33l-1.52.94c-.52.32-1.02.7-1.47 1.11l-1.31 1.18c-.1.09-.24.1-.35.04l-1.75-1.02c-.14-.08-.33-.04-.41.11l-.7 1.2c-.08.14-.04.33.11.41l1.72 1.01c.12.07.17.2.14.33l-.43 1.75c-.15.62-.25 1.25-.28 1.89l-.09 1.78c-.01.13-.1.24-.22.28l-1.81.47c-.16.04-.26.21-.22.37l.35 1.35c.04.16.21.26.37.22l1.77-.47c.13-.03.27.02.33.14l.92 1.52c.35.58.77 1.13 1.23 1.64l1.21 1.32c.09.1.11.24.04.36l-.88 1.51c-.08.14-.04.33.11.41l1.21.7c.14.08.33.04.41-.11l.88-1.51c.07-.11.2-.17.33-.14l1.77.42c.65.15 1.32.24 1.97.26l1.84.05c.13 0 .25.1.28.23l.44 1.66c.04.16.21.26.37.22l1.35-.35c.16-.04.26-.21.22-.37l-.45-1.7c-.03-.13.02-.26.13-.33l1.49-.95c.57-.36 1.1-.78 1.59-1.25l1.32-1.26c.1-.09.24-.11.36-.04l1.56.91c.14.08.33.04.41-.11l.7-1.21c.08-.14.04-.33-.11-.41l-1.63-.95c-.11-.07-.17-.2-.14-.32l.37-1.71c.14-.63.21-1.28.23-1.92l.04-1.83c0-.13.09-.25.23-.29l1.89-.5c.16-.04.26-.21.22-.37l-.37-1.34c-.04-.16-.21-.26-.37-.21zm-11.18 12.46c-3.24.22-6.38-1.62-7.78-4.55-2.5-5.25 1.02-11.27 6.82-11.67 3.24-.22 6.38 1.62 7.78 4.55 2.5 5.25-1.02 11.28-6.82 11.67z"/>
    <path d="m21.24 22.87c-3.64.95-5.82 4.69-4.87 8.32.95 3.64 4.69 5.82 8.33 4.86s5.82-4.69 4.87-8.32c-.96-3.63-4.69-5.82-8.33-4.86zm2.95 11.25c-2.57.67-5.21-.87-5.88-3.44s.87-5.21 3.44-5.88 5.21.87 5.88 3.44-.87 5.21-3.44 5.88z"/>
    <path d="m35.72 21.85-1.76.46c-.43-.66-.91-1.27-1.45-1.84l.91-1.56c.44-.76.19-1.73-.57-2.18l-3.92-2.29c-.73-.43-1.75-.16-2.18.57l-.96 1.64c-.75-.17-1.51-.26-2.27-.3l-.47-1.79c-.22-.85-1.09-1.36-1.94-1.14l-4.39 1.15c-.85.22-1.36 1.09-1.14 1.94l.47 1.79c-.66.41-1.29.88-1.87 1.4l-1.54-.9c-.76-.44-1.73-.18-2.18.57l-2.29 3.92c-.43.79-.17 1.76.59 2.21l1.48.86c-.19.79-.31 1.6-.35 2.42l-1.57.41c-.85.22-1.36 1.09-1.14 1.94l1.15 4.39c.22.85 1.09 1.36 1.94 1.14l1.5-.39c.44.73.96 1.42 1.54 2.05l-.75 1.28c-.44.76-.19 1.73.57 2.18l3.92 2.29c.76.44 1.74.19 2.18-.57l.74-1.27c.85.2 1.72.32 2.59.34l.36 1.38c.22.85 1.09 1.36 1.94 1.14l4.39-1.15c.85-.22 1.36-1.09 1.14-1.94l-.39-1.47c.73-.46 1.41-.99 2.02-1.59l1.3.76c.76.44 1.73.18 2.18-.57l2.29-3.92c.44-.76.19-1.73-.57-2.18l-1.43-.84c.17-.81.27-1.63.29-2.44l1.6-.42c.85-.22 1.36-1.09 1.14-1.94l-1.15-4.39c-.23-.86-1.1-1.37-1.95-1.15zm1.05 5.64-1.95.51c-.45.12-.77.54-.75 1.01.05 1.13-.08 2.27-.39 3.39-.12.44.07.9.46 1.13l1.72 1.01-1.88 3.21-1.61-.94c-.41-.24-.92-.16-1.24.19-.79.86-1.72 1.59-2.77 2.17-.4.22-.6.69-.48 1.13l.47 1.8-3.6.94-.45-1.73c-.12-.45-.53-.76-1-.75-1.19.04-2.37-.12-3.53-.47-.44-.13-.92.05-1.15.45l-.92 1.58-3.21-1.88.92-1.58c.23-.4.16-.9-.17-1.22-.85-.82-1.56-1.77-2.11-2.81-.22-.41-.69-.62-1.14-.5l-1.85.48-.94-3.6 1.91-.5c.44-.12.75-.52.75-.98-.01-1.15.16-2.28.5-3.37.14-.44-.05-.93-.45-1.16l-1.79-1.05 1.88-3.19 1.84 1.07c.4.23.9.17 1.22-.16.78-.79 1.66-1.46 2.64-1.98.41-.22.61-.69.49-1.13l-.56-2.13 3.6-.94.56 2.13c.12.45.52.75.99.75 1.1-.02 2.18.12 3.24.42.44.13.91-.06 1.14-.46l1.13-1.94 3.21 1.88-1.09 1.87c-.24.4-.16.91.18 1.23.81.76 1.5 1.63 2.05 2.6.22.39.68.59 1.12.47l2.09-.55.92 3.6z"/>
  </g>
  <g id="spring">
    <path d="m104.07 23.9c-1.58-1.68-4.23-2.92-7.49-3.5-2.92-.46-5.51-.35-7.52.31-.65-1.11-.82-2.35-.49-3.7.16-.69-.13-1.33-.67-1.46-.53-.13-1.09.31-1.26.99-.45 1.87-.31 3.59.41 5.13-1.3.88-2.14 2.09-2.51 3.6-.35 1.45-.18 2.86.51 4.18-1.22.87-2.01 2.05-2.36 3.5s-.17 2.86.51 4.18c-1.22.87-2.01 2.05-2.36 3.49-.04.15-.02.3.06.44.15.25.46.35.77.43.84.2 1.04-.2 1.09-.4.21-.87.8-1.58 1.77-2.12 1.49 1.54 3.79 2.85 6.67 3.79 1.75.53 3.42.79 4.93.79 1.22 0 2.34-.17 3.31-.52.59-.21 1.08-.86 1.28-1.69s.06-1.63-.37-2.08c-1.58-1.68-4.23-2.93-7.49-3.5-2.98-.47-5.61-.35-7.63.34-.6-.92-.83-1.86-.63-2.69.21-.87.8-1.58 1.77-2.12 1.49 1.54 3.79 2.85 6.67 3.79 3.16.95 6.09 1.05 8.24.27.6-.21 1.08-.85 1.28-1.69.2-.83.06-1.63-.37-2.08-1.58-1.68-4.23-2.92-7.49-3.5-2.98-.47-5.61-.35-7.63.34-.61-.92-.83-1.85-.63-2.69.21-.88.85-1.63 1.85-2.16 1.43 1.58 3.64 2.87 6.59 3.83 3.16.96 6.09 1.05 8.24.27.6-.21 1.08-.84 1.28-1.69.24-.83.1-1.63-.33-2.08zm-1.84 1.56c-1.75.45-4.13.28-6.62-.47-1.89-.62-3.44-1.37-4.61-2.23 1.49-.22 3.24-.18 5.1.11 2.57.46 4.77 1.39 6.13 2.59zm-14.93 12.66c1.5-.22 3.25-.18 5.12.11 2.56.46 4.76 1.39 6.12 2.59-1.75.45-4.13.28-6.62-.47-1.85-.61-3.4-1.36-4.62-2.23zm1.84-7.68c1.5-.22 3.25-.18 5.12.11 2.57.46 4.76 1.39 6.12 2.59-1.75.45-4.13.28-6.61-.47-1.86-.61-3.41-1.36-4.63-2.23z"/>
  </g>
  <g id="screw">
    <path class="st0" d="m57.79 49.04c-.18-.02-.35-.11-.47-.25l-2.9-3.39-1.39.2c-.06.01-.12.01-.18 0-.16-.02-.31-.09-.42-.2-.16-.15-.24-.37-.22-.59l.45-4.22c.03-.33.28-.59.61-.63l1.23-.18.29-2.75-.86.13c-.06.01-.12.01-.18 0-.16-.02-.31-.09-.42-.2-.16-.15-.24-.37-.22-.59l.45-4.22c.03-.33.28-.59.61-.63l1.23-.18.29-2.75-.86.13c-.06.01-.12.01-.18 0-.16-.02-.31-.09-.42-.2-.16-.15-.24-.37-.22-.59l.45-4.22c.03-.33.28-.59.61-.63l1.23-.18.56-5.29-4.58-.48c-.39-.04-.68-.39-.64-.79l.61-5.8c.04-.39.39-.68.79-.64l17.61 1.86c.39.04.68.39.64.79l-.61 5.8c-.04.39-.39.68-.79.64l-4.58-.48-.33 3.11.86-.13c.06-.01.12-.01.18 0 .16.02.31.09.42.2.16.15.24.37.22.59l-.45 4.22c-.03.33-.28.59-.61.63l-1.23.18-.29 2.75.86-.13c.06-.01.12-.01.18 0 .16.02.31.09.42.19.16.15.24.37.22.59l-.45 4.22c-.03.33-.28.59-.61.63l-1.23.18-.29 2.75.86-.13c.06-.01.12-.01.18 0 .16.02.31.09.42.2.16.15.24.37.22.59l-.45 4.22c-.03.33-.28.59-.61.63l-1.51.22-3.88 4.55c-.14.16-.33.25-.54.25l-.08.02z"/>
    <polygon class="st1" points="56.9 43.8 57.35 39.54 58.38 39.65 58.65 35.78 57.41 35.65 57.81 31.83 58.92 31.95 59.27 27.12 58.12 27 58.53 23.11 59.55 23.21 59.95 17.46 57.8 17.23 56.7 23.46 54.88 23.93 54.55 27 55.97 27.86 55.98 31.99 54.46 32.05 53.88 35.85 55.5 36.51 55.52 40.46 53.32 41.16 53.4 44.63 54.92 44.47 57.78 47.58 57.87 46.78 58.07 43.92"/>
    <rect class="st1" transform="matrix(.9944 .1053 -.1053 .9944 2.0145 -6.3603)" x="52.76" y="14.9" width="16.99" height="2.01"/>
    <path d="m70.67 11.47-17.6-1.87c-.55-.06-1.04.34-1.1.89l-.61 5.8c-.06.55.34 1.04.89 1.1l4.3.46-.51 4.79-1.01.15c-.45.07-.8.43-.85.88l-.45 4.22c-.03.31.08.61.3.83.16.16.37.25.59.27.08.01.17.01.25 0l.5-.07-.23 2.17-1.01.15c-.45.07-.8.43-.85.88l-.45 4.22c-.03.31.08.61.3.83.16.16.37.25.59.27.08.01.17.01.25 0l.5-.07-.23 2.17-1.01.15c-.45.07-.8.43-.85.88l-.45 4.22c-.03.31.08.61.3.83.16.16.37.25.59.27.08.01.17.01.25 0l1.23-.18 2.8 3.27c.17.2.4.32.65.34.03 0 .07.01.11.01.29 0 .57-.13.76-.35l3.81-4.47 1.41-.21c.45-.07.8-.43.85-.88l.45-4.22c.03-.31-.08-.61-.3-.83s-.53-.31-.84-.27l-.5.07.23-2.17 1.01-.15c.45-.07.8-.43.85-.88l.45-4.22c.03-.31-.08-.61-.3-.83s-.53-.31-.84-.27l-.5.07.23-2.17 1.01-.15c.45-.07.8-.43.85-.88l.45-4.22c.03-.31-.08-.61-.3-.83s-.53-.31-.84-.27l-.5.07.26-2.47 4.3.46c.55.06 1.04-.34 1.1-.89l.61-5.8c.05-.55-.35-1.04-.9-1.1zm-7.1 14.21-7.22 1.07-.5.07.23-2.17 1.01-.15h.01l.14-.02 7.57-1.12-.23 2.17-1.01.15zm.34 6.13-.23 2.17-1.01.15-7.22 1.07-.5.07.23-2.17 1-.15h.01l5.89-.87 1.83-.27zm-.89 8.45-.23 2.17-1.01.15-7.22 1.07-.5.07.23-2.17 1-.15h.01l5.89-.87 1.83-.27zm-5.15 6.52-1.22-1.43 2.79-.41-1.57 1.84zm3.82-10.48-.23 2.17-5.17.77.23-2.17 4.57-.68.6-.09zm.89-8.45-.23 2.17-5.17.77.23-2.17 4.57-.68.6-.09zm.67-6.33-5.18.8.45-4.27 5.03.53-.3 2.94zm5.82-4.36-4.3-.46-7.02-.74-4.3-.46.4-3.81 15.62 1.65-.4 3.82z"/>
  </g>
</svg>
