<?xml version="1.0" encoding="UTF-8"?>
<svg width="189.62" height="164.57" version="1.1" viewBox="0 0 189.62 164.57" xmlns="http://www.w3.org/2000/svg">
  <style type="text/css">.st0{fill:#767676;}
	.st1{fill:#4E4D4D;}
	.st2{fill:#D1C552;}
	.st3{fill:#F4E783;}
	.st4{fill:#B29F31;}
	.st5{fill:#E73634;}
	.st6{fill:#EF7F81;}
	.st7{fill:#C61D1B;}</style>
  <g transform="translate(2.3233 -1.1617)">
    <circle class="st0" cx="44.79" cy="130.86" r="22.29"/>
    <path class="st1" d="m43.77 145.16c-.03 1.06.01 2.12.31 3.19.39-1.04.51-2.1.57-3.16.04-1.06 0-2.12-.31-3.19-.39 1.05-.52 2.1-.57 3.16z"/>
    <path class="st1" d="m49.97 140.74c.18 1.1.6 2.08 1.09 3.02.51.93 1.07 1.83 1.87 2.61-.19-1.1-.61-2.07-1.09-3.02-.5-.94-1.06-1.84-1.87-2.61z"/>
    <path class="st1" d="m54.22 136.82c.71.86 1.56 1.5 2.45 2.07.9.55 1.84 1.05 2.92 1.33-.71-.86-1.56-1.49-2.45-2.07-.9-.56-1.84-1.06-2.92-1.33z"/>
    <path class="st1" d="m55.94 131.31c1.04.4 2.1.52 3.16.57 1.06.03 2.12-.01 3.19-.31-1.04-.39-2.1-.51-3.16-.57-1.06-.04-2.12 0-3.19.31z"/>
    <path class="st1" d="m60.3 122.72c-1.1.19-2.07.61-3.02 1.09-.93.5-1.83 1.06-2.61 1.87 1.1-.18 2.08-.6 3.02-1.09.93-.51 1.83-1.07 2.61-1.87z"/>
    <path class="st1" d="m52.83 118.98c.55-.9 1.05-1.84 1.33-2.92-.86.71-1.49 1.56-2.07 2.45-.56.9-1.06 1.84-1.33 2.92.86-.7 1.49-1.56 2.07-2.45z"/>
    <path class="st1" d="m45.81 116.56c.03-1.06-.01-2.12-.31-3.19-.39 1.04-.51 2.1-.57 3.16-.04 1.06 0 2.12.31 3.19.4-1.05.52-2.11.57-3.16z"/>
    <path class="st1" d="m39.61 120.98c-.18-1.1-.6-2.08-1.09-3.02-.51-.93-1.07-1.83-1.87-2.61.19 1.1.61 2.07 1.09 3.02.5.94 1.07 1.84 1.87 2.61z"/>
    <path class="st1" d="m32.92 122.82c-.9-.55-1.84-1.05-2.92-1.33.71.86 1.56 1.49 2.45 2.07.9.56 1.84 1.06 2.92 1.33-.71-.86-1.56-1.49-2.45-2.07z"/>
    <path class="st1" d="m33.65 130.41c-1.04-.4-2.1-.52-3.16-.57-1.06-.03-2.12.01-3.19.31 1.04.39 2.1.51 3.16.57 1.05.03 2.12 0 3.19-.31z"/>
    <path class="st1" d="m29.29 138.99c1.1-.19 2.07-.61 3.02-1.09.93-.5 1.83-1.06 2.61-1.87-1.1.18-2.08.6-3.02 1.09-.93.51-1.83 1.07-2.61 1.87z"/>
    <path class="st1" d="m36.76 142.73c-.55.9-1.05 1.84-1.33 2.92.86-.71 1.49-1.56 2.07-2.45.56-.9 1.06-1.84 1.33-2.92-.86.71-1.5 1.56-2.07 2.45z"/>
    <path d="m44.79 107.15c-13.07 0-23.71 10.63-23.71 23.71s10.63 23.71 23.71 23.71c13.07 0 23.71-10.63 23.71-23.71s-10.64-23.71-23.71-23.71zm0 43.41c-10.87 0-19.71-8.84-19.71-19.71s8.84-19.71 19.71-19.71 19.71 8.84 19.71 19.71-8.84 19.71-19.71 19.71z"/>
    <circle cx="44.79" cy="130.86" r="9.11"/>
    <path d="m44.35 145.19c.02 1.06.1 2.12.44 3.18.34-1.06.42-2.12.44-3.18-.01-1.06-.09-2.12-.44-3.18-.35 1.06-.43 2.12-.44 3.18z"/>
    <path d="m50.37 140.52c.22 1.09.68 2.05 1.21 2.97.54.91 1.14 1.79 1.97 2.53-.23-1.09-.69-2.05-1.21-2.97-.54-.91-1.14-1.79-1.97-2.53z"/>
    <path d="m54.45 136.43c.74.83 1.62 1.43 2.53 1.97.93.52 1.88.98 2.97 1.21-.74-.83-1.62-1.43-2.53-1.97-.92-.52-1.87-.98-2.97-1.21z"/>
    <path d="m55.95 130.86c1.06.35 2.12.43 3.18.44 1.06-.02 2.12-.1 3.18-.44-1.06-.34-2.12-.42-3.18-.44-1.07.01-2.12.09-3.18.44z"/>
    <path d="m59.95 122.1c-1.09.23-2.05.69-2.97 1.21-.91.54-1.79 1.13-2.53 1.97 1.09-.22 2.05-.68 2.97-1.21.91-.54 1.79-1.14 2.53-1.97z"/>
    <path d="m52.34 118.67c.52-.93.98-1.88 1.21-2.97-.83.74-1.43 1.62-1.97 2.53-.52.92-.98 1.88-1.21 2.97.83-.74 1.43-1.62 1.97-2.53z"/>
    <path d="m45.23 116.53c-.02-1.06-.1-2.12-.44-3.18-.34 1.06-.42 2.12-.44 3.18.01 1.06.09 2.12.44 3.18.36-1.07.44-2.12.44-3.18z"/>
    <path d="m39.22 121.2c-.22-1.09-.68-2.05-1.21-2.97-.54-.91-1.14-1.79-1.97-2.53.23 1.09.69 2.05 1.21 2.97.53.91 1.13 1.79 1.97 2.53z"/>
    <path d="m32.6 123.31c-.93-.52-1.88-.98-2.97-1.21.74.83 1.62 1.43 2.53 1.97.92.52 1.88.98 2.97 1.21-.74-.83-1.61-1.43-2.53-1.97z"/>
    <path d="m33.64 130.86c-1.06-.35-2.12-.43-3.18-.44-1.06.02-2.12.1-3.18.44 1.06.34 2.12.42 3.18.44 1.06-.01 2.12-.09 3.18-.44z"/>
    <path d="m29.63 139.61c1.09-.23 2.05-.69 2.97-1.21.91-.54 1.79-1.13 2.53-1.97-1.09.22-2.05.68-2.97 1.21-.91.55-1.78 1.14-2.53 1.97z"/>
    <path d="m37.25 143.05c-.52.93-.98 1.88-1.21 2.97.83-.74 1.43-1.62 1.97-2.53.52-.92.98-1.88 1.21-2.97-.84.74-1.44 1.62-1.97 2.53z"/>
  </g>
  <g transform="translate(3.9323e-8 -43.369)">
    <path class="st2" d="m22.21 99.36c0-12.59 5.41-39.88 9.88-41.41s116.58-.47 120.41 0 7.83 1.29 10.06 9.18c2.24 7.88 4.82 24.24 5.18 32.24h-145.53z"/>
    <path class="st3" d="m87.5 59.03c-37.53 1.15-48.82 1.98-51.41 4.8s-6.47 28.71-3.76 29.76c2.71 1.06 32.71 4.82 45.88 4.94l-56 .82 1.95-23.18 5.46-16 4.35-3.03h54.35z"/>
    <path class="st4" d="m78.21 78.43h30.12l4.94 9.05 26.35-7.53 10-4.12s-64.71-.82-64.47-1.29-9.65 0-9.65 0z"/>
    <path class="st4" d="m86.33 57.72c18.94-.35 66.24 4.59 67.29 5.76 1.06 1.18 6.47 26.12 6 28.35-.47 2.24-76 7.18-86.71 6.59l90.82 1.65 4-.71-2.25-23.41-6.57-16.12-4.82-2.13z"/>
    <path class="st0" d="m14.01 128.95c-1.98-3.18-2.86-25.47-1.8-27.12s10-2.47 10-2.47l150.76.71s4.24.29 4.76 3.47c.53 3.18 1.24 20.47 0 22.41s-7.06 3-7.06 3z"/>
    <path class="st1" d="m12.49 121.48c.38 3.56.9 6.47 1.52 7.47h156.67s5.82-1.06 7.06-3c.34-.53.53-2.23.62-4.47z"/>
    <path class="st1" d="m50.68 101.25c23.41 1.53 118.35 2.59 119.65 5.41 1.29 2.82 1.65 9.53.71 10.12s-50.71 4.71-50.71 4.71h58.03l-.62-17.94-3.53-3.47-123.53.59"/>
    <path d="m172.63 97.84h-3.18c-.19-11.82-2.45-23.82-6.79-35.71-1.28-3.44-4.99-6.16-8.45-6.19l-32.09-.24-54.6-.42-31.98-.24c-3.42-.01-7.25 2.8-8.54 6.32-4.36 12.11-6.63 24.37-6.82 36.48h-3.18c-3.86 0-7 3.14-7 7v19.29c0 3.86 3.14 7 7 7h155.62c3.86 0 7-3.14 7-7v-19.29c.01-3.86-3.13-7-6.99-7zm-141.86-35.12c.77-2.11 3.12-3.68 4.72-3.68h.02l118.66.9c1.79.01 4.04 1.72 4.73 3.57 4.18 11.44 6.39 22.98 6.58 34.33h-141.32c.19-11.66 2.42-23.46 6.61-35.12zm144.86 61.41c0 1.65-1.35 3-3 3h-155.62c-1.65 0-3-1.35-3-3v-1.34h7.4l1.27 3.04 1.48-3.04h17.32l1.27 3.04 1.48-3.04h55.58l1.27 3.04 1.48-3.04h8.99l1.27 3.04 1.48-3.04h36.8l1.27 3.04 1.48-3.04h21.8v1.34zm0-3.84h-161.62v-15.46c0-1.65 1.35-3 3-3h155.63c1.65 0 3 1.35 3 3v15.46z"/>
    <path d="m150.5 72.78h-111.35c-1.1 0-2 .9-2 2s.9 2 2 2h8.57l2.84 8.68c.52 1.58 1.94 2.68 3.6 2.77l19.39 1.16c2.01.12 3.81-1.27 4.2-3.24l1.86-9.37h30.44l1.86 9.37c.39 1.98 2.19 3.36 4.2 3.24l19.39-1.16c1.65-.1 3.08-1.2 3.6-2.77l2.84-8.68h8.57c1.1 0 2-.9 2-2s-.91-2-2.01-2z"/>
  </g>
  <g transform="translate(-151.79 92.546)">
    <path class="st0" d="m268.89 58.517c0-3.09-.53-10.76 3.62-11.03 4.15-.26 40.5 0 42.79 0s3.62 6.97 3.53 11.03z"/>
    <path class="st1" d="m281.36 47.607c8.31 1.16 16.48 3.2 24.68 4.93 3.82.81 7.64 1.72 11.25 3.24.5.21.99.43 1.48.66-.29-3.99-1.53-8.95-3.47-8.95-1.78 0-23.96-.16-35.82-.11.63.08 1.25.15 1.88.23z"/>
    <path class="st5" d="m274.56 47.427c0-10.97-2-33.55 19.59-33.55s18.24 24.33 18.24 33.71z"/>
    <path class="st6" d="m281.84 37.177c1.88-.19 3.76-.41 5.64-.61.2-.02.4-.04.61-.07.07-1.26.16-2.45.25-3.56-2.86.7-5.7 1.43-8.49 2.34-.05.7-.09 1.43-.13 2.15.7-.08 1.41-.18 2.12-.25z"/>
    <path class="st6" d="m287.78 37.767c-1.93.21-3.87.43-5.8.63-.78.08-1.55.19-2.33.29-.12 2.81-.17 5.79-.17 8.93h8.32c0-3.7.08-6.97.22-9.87-.08 0-.16.01-.24.02z"/>
    <path class="st6" d="m288.46 31.637c.24-2.49.54-4.59.88-6.38-2.94.9-5.83 1.94-8.64 3.17-.32 1.71-.55 3.57-.73 5.52 2.79-.89 5.63-1.61 8.49-2.31z"/>
    <path class="st6" d="m289.61 23.887c1.68-7.75 4.02-8.51 4.79-8.54l-4.51-.33c-4.87 1.53-7.49 5.8-8.89 11.95 2.81-1.19 5.69-2.2 8.61-3.08z"/>
    <path class="st7" d="m295.89 15.017c6.44 1.68 10.85 8.12 10.85 13.15v18.26l7.32.53-1.49-19.32-5.48-8.82-6.09-3.79h-5.11z"/>
    <path d="m321.18 61.617v-9.07c0-3.54-2.64-6.47-6.06-6.93v-12.46c0-11.71-9.53-21.24-21.24-21.24s-21.24 9.53-21.24 21.24v12.46c-3.42.46-6.06 3.39-6.06 6.93v8.65zm-44.53-28.47c0-9.5 7.73-17.24 17.24-17.24 9.5 0 17.24 7.73 17.24 17.24v12.39h-34.48zm-6.06 19.39c0-1.65 1.35-3 3-3h40.59c1.65 0 3 1.35 3 3v4.41h-46.59z"/>
  </g>
</svg>
