<?xml version="1.0" encoding="UTF-8"?>
<svg enable-background="new 0 0 141.73 56.69" version="1.1" viewBox="0 0 141.73 56.69" xmlns="http://www.w3.org/2000/svg">
  <style type="text/css">.st0{fill:#767676;}
	.st1{fill:#909091;}
	.st2{fill:#4E4D4D;}
	.st3{fill:#5CB354;}
	.st4{fill:#A5CC73;}
	.st5{fill:#508E4A;}</style>
  <rect x="14.57" y="9.28" width="100.65" height="38.13" fill="#fff"/>
  <g id="BATERIA">
    <path class="st0" d="m14.02 52.24c-2.36 0-4.28-1.92-4.28-4.28v-39.23c0-2.36 1.92-4.28 4.28-4.28h101.76c2.36 0 4.29 1.92 4.29 4.28v5.93h8.54c2.36 0 4.28 1.92 4.28 4.28v18.82c0 2.36-1.92 4.29-4.28 4.29h-8.54v5.92c0 2.36-1.92 4.28-4.29 4.28h-101.76zm.55-4.83h100.65v-38.13h-100.65v38.13z"/>
    <path class="st1" d="m120.02 27.73v-9.29c8.26 0 12.87-1 12.87 5.41v-4.91c0-2.36-1.92-4.28-4.28-4.28h-8.54v-5.93c0-2.36-1.92-4.28-4.29-4.28h-101.76c-2.36 0-4.28 1.92-4.28 4.28v19.01l4.83-18.45h100.65l4.8 18.44z"/>
    <path class="st2" d="m120.02 28.96v10.42c8.26 0 12.87 1 12.87-5.41v3.79c0 2.36-1.92 4.28-4.28 4.28h-8.54v5.93c0 2.36-1.92 4.28-4.29 4.28h-101.76c-2.36 0-4.28-1.92-4.28-4.28v-19.01l3.97 18.86 102.38.14 3.93-19z"/>
    <path d="m128.6 13.52h-7.41v-4.79c0-2.99-2.42-5.41-5.41-5.41h-101.76c-2.99 0-5.41 2.42-5.41 5.41v39.24c0 2.99 2.42 5.41 5.41 5.41h101.76c2.99 0 5.41-2.42 5.41-5.41v-4.79h7.41c2.99 0 5.41-2.42 5.41-5.41v-18.84c.01-2.99-2.42-5.41-5.41-5.41zm-9.41 34.44c0 1.88-1.53 3.41-3.41 3.41h-101.76c-1.88 0-3.41-1.53-3.41-3.41v-39.23c0-1.88 1.53-3.41 3.41-3.41h101.76c1.88 0 3.41 1.53 3.41 3.41v39.23zm12.83-10.2c0 1.88-1.53 3.41-3.41 3.41h-7.41v-25.65h7.41c1.88 0 3.41 1.53 3.41 3.41v18.83z"/>
    <path d="m115.78 8.42h-101.76c-.17 0-.31.14-.31.31v39.23c0 .17.14.31.31.31h101.76c.17 0 .31-.14.31-.31v-39.23c0-.17-.14-.31-.31-.31zm-1.69 37.85h-98.38v-35.85h98.38v35.85z"/>
  </g>
  <g id="ZYCIE_1_">
    <polygon class="st3" points="41.77 13.53 56.4 43.18 86.77 43.18 72.14 13.53"/>
    <polygon class="st4" points="73.86 17.03 72.14 13.53 41.77 13.53 43.49 17.03"/>
    <polygon class="st5" points="54.64 39.61 56.4 43.18 86.77 43.18 85.01 39.61"/>
    <polygon class="st3" points="76.37 13.53 91 43.18 110.99 43.18 110.99 13.53"/>
    <polygon class="st4" points="110.99 17.03 110.99 13.53 76.37 13.53 78.09 17.03"/>
    <polygon class="st5" points="89.24 39.61 91 43.18 110.99 43.18 110.99 39.61"/>
    <polygon class="st3" points="37.54 13.53 18.81 13.53 18.81 43.18 52.17 43.18"/>
    <polygon class="st4" points="39.26 17.03 37.54 13.53 18.81 13.53 18.81 17.03"/>
    <polygon class="st5" points="18.81 39.61 18.81 43.18 52.17 43.18 50.41 39.61"/>
  </g>
  <rect x="14.418" y="21.355" width="4.0805" height="3.6725" fill-opacity="0" opacity=".55"/>
  <rect x="26.659" y="26.795" width="6.5288" height="6.9369" fill-opacity="0" opacity=".55"/>
</svg>
